<?xml version="1.0" encoding="UTF-8" standalone="no"?>
<!DOCTYPE svg PUBLIC "-//W3C//DTD SVG 1.1//EN" "http://www.w3.org/Graphics/SVG/1.1/DTD/svg11.dtd">
<svg xmlns="http://www.w3.org/2000/svg" version="1.1" viewBox="0.00 0.00 176.00 176.00">
<g stroke-width="2.00" fill="none" stroke-linecap="butt">
<path stroke="#1e150f" vector-effect="non-scaling-stroke" d="
  M 171.18 82.52
  L 170.43 81.77"
/>
<path stroke="#81292a" vector-effect="non-scaling-stroke" d="
  M 170.43 81.77
  Q 171.44 78.04 172.30 74.43
  Q 173.14 70.88 173.14 66.97
  C 173.14 63.98 173.43 60.62 172.81 57.70
  Q 172.49 56.20 172.14 54.64"
/>
<path stroke="#892a2d" vector-effect="non-scaling-stroke" d="
  M 172.14 54.64
  C 168.60 41.45 159.47 30.04 148.83 21.66
  Q 117.52 -3.01 77.63 2.02
  Q 77.22 2.07 77.09 2.46
  Q 77.04 2.60 77.01 2.75
  Q 76.95 3.07 76.62 3.07
  Q 64.17 3.02 52.93 8.21
  Q 52.46 8.43 51.96 8.28
  Q 51.30 8.07 50.51 8.32
  C 31.53 14.19 16.41 25.82 8.90 45.03
  Q 3.12 59.83 0.00 78.44"
/>
<path stroke="#892a2d" vector-effect="non-scaling-stroke" d="
  M 66.82 1.16
  C 63.23 2.00 60.36 1.83 56.71 3.74
  Q 56.43 3.89 56.36 4.09
  Q 56.27 4.32 56.36 4.54
  Q 56.57 5.03 57.10 4.92
  Q 62.71 3.68 68.39 2.65
  Q 69.10 2.52 68.56 1.74
  Q 68.37 1.45 68.03 1.38
  Q 67.71 1.32 67.72 1.00"
/>
<path stroke="#81292a" vector-effect="non-scaling-stroke" d="
  M 73.23 1.57
  Q 77.38 2.66 76.46 1.20"
/>
<path stroke="#d53140" vector-effect="non-scaling-stroke" d="
  M 172.14 54.64
  L 172.64 65.97
  Q 172.66 66.50 172.18 66.73
  Q 169.22 68.12 167.24 68.04
  C 161.39 67.83 155.25 68.77 149.68 66.76
  C 146.12 65.48 142.53 65.48 138.83 64.45
  C 137.05 63.95 135.24 64.25 133.47 64.46
  Q 130.13 64.86 129.36 60.48"
/>
<path stroke="#e9959f" vector-effect="non-scaling-stroke" d="
  M 129.36 60.48
  Q 131.03 45.28 116.25 41.40
  C 113.37 40.65 105.68 40.52 101.72 42.12
  Q 100.19 42.74 98.65 43.28"
/>
<path stroke="#892a2d" vector-effect="non-scaling-stroke" d="
  M 98.65 43.28
  Q 93.46 45.98 92.78 52.25
  Q 92.28 56.89 93.09 60.89"
/>
<path stroke="#d53140" vector-effect="non-scaling-stroke" d="
  M 93.09 60.89
  Q 86.89 60.57 81.50 61.55
  Q 80.48 61.74 79.35 62.60
  Q 78.95 62.90 78.45 62.92
  C 73.26 63.11 68.23 65.34 64.04 66.10
  Q 57.86 67.22 51.66 68.29
  C 48.67 68.81 46.37 70.40 43.45 71.37
  C 39.17 72.80 36.53 74.39 32.86 76.23
  C 29.44 77.94 27.71 81.87 23.50 81.25"
/>
<path stroke="#893239" vector-effect="non-scaling-stroke" d="
  M 23.50 81.25
  Q 22.98 80.27 22.88 79.13
  Q 22.88 79.11 22.88 79.13
  Q 22.70 80.10 22.96 81.35"
/>
<path stroke="#d53140" vector-effect="non-scaling-stroke" d="
  M 22.96 81.35
  C 21.51 82.39 20.41 82.95 19.04 84.27
  Q 16.02 87.18 12.09 88.51
  Q 9.36 89.43 7.60 90.54
  Q 3.92 92.87 0.00 94.44"
/>
<path stroke="#9e2832" vector-effect="non-scaling-stroke" d="
  M 109.80 39.01
  C 105.60 24.18 95.83 6.30 79.06 3.18
  Q 78.84 3.14 78.79 3.36
  L 78.79 3.37
  Q 78.75 3.59 78.96 3.63
  C 95.48 7.06 104.46 24.24 109.34 39.16
  Q 109.42 39.38 109.64 39.31
  L 109.65 39.31
  Q 109.87 39.23 109.80 39.01"
/>
<path stroke="#9e2832" vector-effect="non-scaling-stroke" d="
  M 51.79 8.60
  A 0.29 0.29 0.0 0 0 51.39 8.55
  Q 39.14 18.21 32.01 34.29
  Q 25.43 49.14 23.24 65.26
  Q 23.07 66.53 23.11 67.79
  Q 23.11 67.93 23.25 67.94
  L 23.25 67.94
  Q 23.39 67.94 23.41 67.81
  C 26.51 46.14 34.00 23.01 51.97 9.01
  A 0.12 0.11 53.1 0 0 51.99 8.84
  L 51.79 8.60"
/>
<path stroke="#e0949d" vector-effect="non-scaling-stroke" d="
  M 129.36 60.48
  C 128.44 64.06 126.34 67.50 122.56 67.71
  Q 121.10 67.79 119.85 67.99"
/>
<path stroke="#aa8b8f" vector-effect="non-scaling-stroke" d="
  M 119.85 67.99
  L 111.64 66.56"
/>
<path stroke="#e0949d" vector-effect="non-scaling-stroke" d="
  M 111.64 66.56
  L 100.79 67.88"
/>
<path stroke="#958d8a" vector-effect="non-scaling-stroke" d="
  M 100.79 67.88
  Q 95.56 66.56 94.04 61.75
  C 91.86 54.81 92.87 48.07 98.65 43.28"
/>
<path stroke="#aa8b8f" vector-effect="non-scaling-stroke" d="
  M 101.48 46.48
  L 97.01 63.16
  Q 96.88 63.64 97.30 63.90
  Q 100.22 65.72 102.36 64.19"
/>
<path stroke="#e9959f" vector-effect="non-scaling-stroke" d="
  M 102.36 64.19
  L 105.06 53.47"
/>
<path stroke="#aa8b8f" vector-effect="non-scaling-stroke" d="
  M 105.06 53.47
  Q 108.34 57.87 112.09 59.82"
/>
<path stroke="#e9959f" vector-effect="non-scaling-stroke" d="
  M 112.09 59.82
  Q 114.67 57.45 116.35 55.34
  Q 116.60 55.03 117.29 55.24"
/>
<path stroke="#aa8b8f" vector-effect="non-scaling-stroke" d="
  M 117.29 55.24
  L 118.79 60.56"
/>
<path stroke="#e9959f" vector-effect="non-scaling-stroke" d="
  M 118.79 60.56
  L 119.59 64.60
  Q 119.85 65.92 121.17 65.61
  L 124.19 64.90
  Q 125.68 64.55 125.26 63.08
  L 120.13 45.31
  A 0.69 0.68 -31.2 0 0 118.98 45.03
  L 112.37 51.88
  A 0.74 0.74 0.0 0 1 111.33 51.91
  L 102.91 44.09
  A 0.63 0.63 0.0 0 0 101.93 44.24
  Q 101.29 45.39 101.48 46.48"
/>
<path stroke="#9e2832" vector-effect="non-scaling-stroke" d="
  M 118.79 60.56
  Q 118.84 57.82 117.74 55.25
  Q 117.67 55.10 117.50 55.11
  Q 117.28 55.13 117.29 55.24"
/>
<path stroke="#9e2832" vector-effect="non-scaling-stroke" d="
  M 112.09 59.82
  L 105.06 53.47"
/>
<path stroke="#9e2832" vector-effect="non-scaling-stroke" d="
  M 102.36 64.19
  Q 99.96 64.24 98.24 63.28
  Q 97.77 63.02 97.89 62.49
  L 101.48 46.48"
/>
<path stroke="#81292a" vector-effect="non-scaling-stroke" d="
  M 100.79 67.88
  Q 95.05 67.96 93.09 60.89"
/>
<path stroke="#691b22" vector-effect="non-scaling-stroke" d="
  M 170.43 81.77
  Q 169.20 82.44 166.67 81.59
  C 149.55 75.85 132.64 73.25 114.67 72.10
  C 109.17 71.74 103.59 72.08 98.01 72.20
  Q 78.61 72.61 59.76 77.12
  C 50.51 79.33 39.89 82.88 32.32 89.27
  Q 30.13 91.11 27.77 92.20
  C 20.03 95.79 11.38 101.18 6.92 108.73
  Q 5.92 110.42 5.91 110.57
  Q 5.80 113.99 4.33 110.90
  C 3.55 109.27 2.56 107.70 2.05 105.94
  Q 0.93 102.07 0.00 98.07"
/>
<path stroke="#813037" vector-effect="non-scaling-stroke" d="
  M 22.96 81.35
  C 23.46 85.10 24.07 88.58 26.95 91.38
  Q 27.07 91.50 27.19 91.38
  L 27.20 91.38
  Q 27.32 91.26 27.21 91.14
  Q 23.66 86.87 23.50 81.25"
/>
<path stroke="#962630" vector-effect="non-scaling-stroke" d="
  M 111.64 66.56
  Q 111.70 67.37 112.10 67.77
  Q 112.43 68.10 112.79 67.80
  Q 113.82 66.92 115.00 67.41
  Q 117.96 68.63 119.85 67.99"
/>
<path stroke="#813037" vector-effect="non-scaling-stroke" d="
  M 111.1190 71.0817
  A 1.38 0.36 114.9 0 0 112.0265 69.9816
  A 1.38 0.36 114.9 0 0 112.2810 68.5783
  A 1.38 0.36 114.9 0 0 111.3735 69.6784
  A 1.38 0.36 114.9 0 0 111.1190 71.0817"
/>
<path stroke="#721d24" vector-effect="non-scaling-stroke" d="
  M 176.00 87.18
  Q 173.63 85.08 168.73 83.45
  Q 147.30 76.32 128.51 74.23
  Q 100.41 71.10 72.51 75.53
  C 59.23 77.64 43.00 81.56 32.14 90.78"
/>
<path stroke="#1e1c1b" vector-effect="non-scaling-stroke" d="
  M 32.14 90.78
  Q 29.39 92.41 26.44 93.86
  C 19.67 97.19 14.44 101.32 9.59 107.12
  C 5.96 111.46 7.97 116.58 7.53 121.40
  C 7.18 125.26 7.53 128.04 5.35 131.53
  A 0.96 0.95 -59.1 0 0 5.68 132.86
  Q 6.84 133.52 6.87 135.25
  Q 7.02 143.88 6.89 152.50
  C 6.85 154.84 7.67 157.21 8.10 159.54
  C 8.44 161.35 9.45 163.79 10.85 165.06
  Q 11.20 165.38 11.13 165.86
  A 0.90 0.89 -67.5 0 0 11.46 166.67
  Q 12.59 167.60 13.08 168.15
  Q 15.23 170.62 14.95 167.48
  Q 14.75 165.12 15.68 162.93
  Q 15.87 162.49 16.33 162.64
  L 17.65 163.08
  A 1.00 0.97 -3.6 0 1 18.21 163.56
  Q 18.63 164.40 19.53 164.65
  Q 19.98 164.77 20.12 165.21
  Q 20.34 165.85 20.94 165.87
  Q 21.07 165.88 21.01 165.99
  Q 20.94 166.13 20.88 166.26
  A 0.32 0.32 0.0 0 0 21.07 166.71
  Q 23.35 167.42 25.50 168.46
  C 26.98 169.17 28.27 169.04 29.87 169.41
  Q 30.11 169.47 30.04 169.71
  L 29.92 170.09
  Q 29.85 170.33 29.62 170.22
  Q 28.43 169.67 27.71 170.41"
/>
<path stroke="#1e1c1b" vector-effect="non-scaling-stroke" d="
  M 16.14 167.50
  Q 15.47 169.07 16.94 170.08"
/>
<path stroke="#1e1c1b" vector-effect="non-scaling-stroke" d="
  M 16.98 170.92
  L 16.00 171.06
  Q 15.51 171.13 15.23 170.72
  Q 14.51 169.67 13.41 169.99"
/>
<path stroke="#1e1c1b" vector-effect="non-scaling-stroke" d="
  M 6.63 159.07
  Q 7.58 157.81 6.20 156.32"
/>
<path stroke="#5d5948" vector-effect="non-scaling-stroke" d="
  M 5.54 150.07
  L 5.63 134.54
  Q 5.64 134.20 5.31 134.11
  Q 5.15 134.06 5.00 134.21"
/>
<path stroke="#434446" vector-effect="non-scaling-stroke" d="
  M 5.58 116.05
  Q 6.07 115.20 5.54 114.23
  Q 4.82 112.91 3.56 111.91"
/>
<path stroke="#893239" vector-effect="non-scaling-stroke" d="
  M 176.00 88.70
  L 174.39 89.65
  A 1.49 1.47 32.2 0 1 173.48 89.85
  L 169.74 89.47"
/>
<path stroke="#721d24" vector-effect="non-scaling-stroke" d="
  M 169.74 89.47
  Q 161.39 88.17 153.70 86.41
  Q 143.07 83.97 132.37 81.90
  Q 117.59 79.03 99.13 79.86
  C 80.42 80.70 61.54 85.85 42.77 90.38
  Q 37.68 91.61 32.33 91.20"
/>
<path stroke="#893239" vector-effect="non-scaling-stroke" d="
  M 32.33 91.20
  Q 32.23 90.99 32.14 90.78"
/>
<path stroke="#1e1c1b" vector-effect="non-scaling-stroke" d="
  M 169.74 89.47
  Q 167.20 90.90 163.75 89.19
  Q 162.96 88.80 161.66 89.34
  Q 161.22 89.52 161.37 89.97
  Q 163.15 95.41 163.37 101.12
  Q 163.39 101.73 163.91 102.35
  Q 164.36 102.87 164.59 102.22
  Q 164.83 101.56 165.34 101.02
  Q 166.04 100.28 166.12 101.29
  L 166.28 103.27"
/>
<path stroke="#434446" vector-effect="non-scaling-stroke" d="
  M 166.28 103.27
  L 166.14 105.48"
/>
<path stroke="#1e1c1b" vector-effect="non-scaling-stroke" d="
  M 166.08 129.15
  Q 166.39 128.09 165.24 128.01"
/>
<path stroke="#7c7760" vector-effect="non-scaling-stroke" d="
  M 165.24 128.01
  C 163.97 116.24 162.80 104.52 161.17 92.78
  Q 161.06 91.98 160.63 91.31
  Q 160.10 90.50 160.15 91.47
  Q 160.22 92.73 160.00 94.01
  Q 159.50 97.03 158.84 94.04
  L 157.76 89.13
  Q 157.64 88.57 157.10 88.39
  L 153.73 87.24
  A 0.44 0.44 0.0 0 0 153.15 87.62
  Q 153.06 88.82 152.49 89.86"
/>
<path stroke="#1e1c1b" vector-effect="non-scaling-stroke" d="
  M 152.49 89.86
  Q 152.65 89.02 152.04 89.88"
/>
<path stroke="#7c7760" vector-effect="non-scaling-stroke" d="
  M 152.04 89.88
  Q 152.26 86.44 148.72 86.19
  Q 148.05 86.14 148.45 86.67
  Q 148.71 87.02 148.74 87.45
  Q 148.80 88.18 148.07 88.14
  Q 144.00 87.91 140.30 86.20
  Q 139.79 85.97 139.38 86.36
  L 136.10 89.48"
/>
<path stroke="#1e1c1b" vector-effect="non-scaling-stroke" d="
  M 136.10 89.48
  L 135.67 89.76
  Q 135.33 90.00 135.16 89.62
  Q 135.09 89.47 135.15 89.25"
/>
<path stroke="#7c7760" vector-effect="non-scaling-stroke" d="
  M 135.15 89.25
  L 137.94 86.14
  A 0.90 0.90 0.0 0 0 137.69 84.74
  Q 134.41 83.02 130.74 82.64
  Q 130.25 82.59 130.42 83.06
  Q 131.13 84.95 132.97 85.84
  A 0.54 0.54 0.0 0 1 132.98 86.80
  C 131.50 87.59 130.04 88.22 128.30 87.75
  C 123.95 86.58 120.68 84.02 117.25 81.25
  A 0.63 0.63 0.0 0 0 116.22 81.74
  L 116.20 85.50
  A 0.68 0.67 -58.1 0 1 114.92 85.80
  L 114.34 84.64
  Q 114.00 83.95 113.63 84.63
  Q 113.21 85.40 113.18 86.26
  Q 113.15 87.16 112.25 87.23
  Q 111.00 87.32 109.94 87.99
  A 0.81 0.80 55.6 0 1 108.86 87.78
  L 107.05 85.36
  A 0.37 0.36 42.7 0 0 106.45 85.38
  Q 106.29 85.63 106.27 85.92
  Q 106.24 86.35 105.84 86.49
  Q 102.97 87.54 101.59 87.18
  C 99.73 86.70 95.68 84.83 92.61 82.85
  C 89.52 80.86 81.27 82.63 77.80 83.50
  A 0.21 0.21 0.0 0 0 77.74 83.89
  C 80.67 85.69 83.14 87.58 85.96 89.20
  Q 88.05 90.40 88.61 93.21"
/>
<path stroke="#434446" vector-effect="non-scaling-stroke" d="
  M 88.61 93.21
  Q 86.94 91.23 85.27 90.41
  Q 84.66 90.11 84.91 90.75
  L 86.64 95.22"
/>
<path stroke="#7d8081" vector-effect="non-scaling-stroke" d="
  M 86.64 95.22
  Q 87.70 100.03 85.47 104.60"
/>
<path stroke="#1e1c1b" vector-effect="non-scaling-stroke" d="
  M 85.47 104.60
  Q 84.33 104.07 84.73 103.02
  Q 86.59 98.10 84.59 93.47"
/>
<path stroke="#5d5948" vector-effect="non-scaling-stroke" d="
  M 84.59 93.47
  Q 83.92 92.10 83.06 91.77"
/>
<path stroke="#1e1c1b" vector-effect="non-scaling-stroke" d="
  M 83.06 91.77
  Q 82.82 90.70 81.74 90.83
  C 77.22 91.39 73.18 91.78 69.36 91.17
  C 64.93 90.46 66.17 102.12 66.75 104.41
  Q 66.83 104.73 66.74 104.88
  Q 66.60 105.11 66.19 105.03"
/>
<path stroke="#7d8081" vector-effect="non-scaling-stroke" d="
  M 66.19 105.03
  Q 63.09 98.75 65.79 91.76"
/>
<path stroke="#434446" vector-effect="non-scaling-stroke" d="
  M 65.79 91.76
  Q 65.72 91.13 66.26 90.52"
/>
<path stroke="#1e1c1b" vector-effect="non-scaling-stroke" d="
  M 66.26 90.52
  Q 73.51 88.99 80.81 90.38
  Q 80.86 90.39 80.87 90.34
  L 80.92 90.09
  Q 80.96 89.84 80.72 89.79
  Q 73.22 88.39 65.79 90.01"
/>
<path stroke="#434446" vector-effect="non-scaling-stroke" d="
  M 65.79 90.01
  Q 55.98 91.70 56.73 100.10"
/>
<path stroke="#7d8081" vector-effect="non-scaling-stroke" d="
  M 56.73 100.10
  L 58.28 106.17"
/>
<path stroke="#7c7760" vector-effect="non-scaling-stroke" d="
  M 58.28 106.17
  L 56.35 103.42"
/>
<path stroke="#5d5948" vector-effect="non-scaling-stroke" d="
  M 56.35 103.42
  Q 56.36 102.34 55.76 101.00
  Q 55.46 100.34 55.16 101.00
  C 51.94 107.89 52.06 121.95 57.02 127.61"
/>
<path stroke="#7c7760" vector-effect="non-scaling-stroke" d="
  M 57.02 127.61
  Q 58.47 129.20 60.78 129.56
  Q 60.91 129.58 60.98 129.65
  Q 61.07 129.75 61.11 129.87
  Q 61.19 130.14 60.90 130.18
  Q 57.65 130.57 55.24 128.76
  Q 53.27 127.29 49.42 123.33"
/>
<path stroke="#5d5948" vector-effect="non-scaling-stroke" d="
  M 49.42 123.33
  Q 49.01 121.00 47.00 118.24
  Q 46.74 117.88 46.74 118.32
  Q 46.67 132.13 55.70 141.83"
/>
<path stroke="#7c7760" vector-effect="non-scaling-stroke" d="
  M 55.70 141.83
  Q 57.02 143.44 59.63 144.74
  Q 59.97 144.91 60.34 144.85
  L 61.46 144.65
  Q 62.04 144.55 61.78 145.08
  Q 58.37 151.98 51.06 149.99"
/>
<path stroke="#716d58" vector-effect="non-scaling-stroke" d="
  M 51.06 149.99
  L 47.51 148.42"
/>
<path stroke="#1e1c1b" vector-effect="non-scaling-stroke" d="
  M 47.51 148.42
  Q 46.50 148.61 46.60 147.28
  A 0.88 0.87 20.9 0 0 46.25 146.51
  Q 45.23 145.77 44.85 144.53
  A 0.23 0.22 -72.9 0 1 45.24 144.32
  C 48.22 148.17 55.30 151.51 59.34 146.77
  Q 59.73 146.32 59.22 146.01
  C 49.87 140.30 46.21 128.91 45.66 118.50
  Q 45.62 117.74 46.29 115.68
  Q 46.43 115.23 46.19 114.83
  Q 45.45 113.63 46.08 112.55
  Q 46.45 111.91 46.61 112.63
  C 46.86 113.73 47.24 115.03 47.15 116.15
  Q 47.11 116.70 47.53 117.03
  Q 47.82 117.27 48.00 117.59
  C 49.39 120.15 50.83 123.57 53.34 125.20
  Q 53.93 125.58 53.76 124.91
  C 52.88 121.39 51.97 117.82 51.91 114.30
  C 51.76 105.58 54.99 98.70 57.80 91.14
  Q 57.99 90.65 57.87 90.13
  Q 57.65 89.19 58.10 88.32
  Q 58.61 87.33 57.55 87.64
  Q 47.14 90.61 36.50 92.19
  Q 33.24 92.68 32.33 91.20"
/>
<path stroke="#1e1c1b" vector-effect="non-scaling-stroke" d="
  M 106.11 83.13
  L 109.20 86.10
  A 1.59 1.59 0.0 0 0 111.63 85.83
  L 113.80 82.55
  Q 113.91 82.39 114.09 82.41
  Q 114.24 82.43 114.36 82.41
  Q 114.71 82.35 114.75 82.00
  Q 114.79 81.67 114.68 81.33
  Q 114.52 80.86 114.03 80.87
  L 94.56 81.10
  Q 92.83 81.13 94.22 82.16
  C 96.04 83.51 105.64 89.18 105.70 83.30
  Q 105.70 82.74 106.11 83.13"
/>
<path stroke="#1e1c1b" vector-effect="non-scaling-stroke" d="
  M 120.63 82.12
  Q 124.52 85.81 130.19 86.67
  Q 131.21 86.82 130.68 85.93
  L 128.96 83.06
  Q 128.53 82.33 127.69 82.25
  L 120.31 81.51
  Q 119.87 81.47 120.11 81.85
  Q 120.26 82.09 120.63 82.12"
/>
<path stroke="#1e1c1b" vector-effect="non-scaling-stroke" d="
  M 59.29 90.34
  Q 58.03 91.07 58.13 92.01
  Q 58.20 92.62 58.65 92.21
  Q 59.39 91.52 59.68 90.27"
/>
<path stroke="#7c7760" vector-effect="non-scaling-stroke" d="
  M 59.68 90.27
  Q 59.82 90.20 59.95 90.13"
/>
<path stroke="#5d5948" vector-effect="non-scaling-stroke" d="
  M 59.95 90.13
  Q 61.15 90.05 61.94 89.57"
/>
<path stroke="#7c7760" vector-effect="non-scaling-stroke" d="
  M 61.94 89.57
  C 67.77 88.05 77.12 86.73 82.71 89.21
  Q 83.49 89.56 82.92 88.92
  C 81.28 87.11 78.45 85.52 76.38 84.13
  A 1.25 1.25 0.0 0 0 75.50 83.93
  Q 65.96 85.29 60.55 87.31
  Q 58.59 88.04 59.29 90.34"
/>
<path stroke="#d3c9a2" vector-effect="non-scaling-stroke" d="
  M 61.94 89.57
  Q 61.20 88.76 60.54 88.52
  Q 59.98 88.32 60.17 88.88
  Q 60.49 89.79 59.95 90.13"
/>
<path stroke="#948c75" vector-effect="non-scaling-stroke" d="
  M 59.68 90.27
  Q 59.49 90.22 59.29 90.34"
/>
<path stroke="#948c75" vector-effect="non-scaling-stroke" d="
  M 135.15 89.25
  Q 134.15 90.22 132.61 90.70
  A 0.22 0.22 0.0 0 0 132.62 91.12
  Q 132.91 91.20 133.21 91.13
  A 0.40 0.39 -76.4 0 1 133.60 91.77
  Q 133.06 92.42 132.99 93.25
  A 1.00 0.09 -84.3 0 0 132.98 94.13
  Q 133.84 95.44 133.62 96.05"
/>
<path stroke="#f3f0db" vector-effect="non-scaling-stroke" d="
  M 133.62 96.05
  Q 132.44 94.73 132.02 98.00
  C 131.66 100.73 132.02 106.74 135.30 107.87
  Q 135.86 108.07 136.08 107.51
  Q 136.20 107.22 136.04 106.78"
/>
<path stroke="#948c75" vector-effect="non-scaling-stroke" d="
  M 136.04 106.78
  L 136.85 107.79
  Q 137.16 108.18 137.65 108.28
  Q 144.18 109.59 150.00 108.62"
/>
<path stroke="#f3f0db" vector-effect="non-scaling-stroke" d="
  M 150.00 108.62
  C 152.81 108.13 154.13 108.98 156.37 106.97"
/>
<path stroke="#948c75" vector-effect="non-scaling-stroke" d="
  M 156.37 106.97
  Q 161.83 100.13 154.81 91.88
  Q 154.50 91.51 154.95 91.67
  Q 155.35 91.81 155.65 91.60
  Q 156.17 91.24 155.57 91.02
  L 152.49 89.86"
/>
<path stroke="#948c75" vector-effect="non-scaling-stroke" d="
  M 165.24 128.01
  Q 164.86 130.71 164.52 133.47
  Q 163.48 141.92 159.77 148.71"
/>
<path stroke="#e7ddb2" vector-effect="non-scaling-stroke" d="
  M 159.77 148.71
  Q 153.79 152.99 148.92 158.35
  Q 148.35 158.97 147.39 159.44
  C 145.88 160.18 144.75 161.42 143.40 162.08
  C 140.16 163.66 137.11 165.47 133.70 166.52
  C 125.68 168.97 117.29 169.50 109.00 170.51
  Q 97.75 171.88 81.74 168.74
  Q 66.78 165.81 54.61 154.62
  Q 53.24 153.37 51.95 152.79
  A 3.11 3.05 86.4 0 1 50.56 151.54
  Q 49.72 150.11 51.06 149.99"
/>
<path stroke="#d3c9a2" vector-effect="non-scaling-stroke" d="
  M 55.70 141.83
  Q 51.21 132.16 49.42 123.33"
/>
<path stroke="#d3c9a2" vector-effect="non-scaling-stroke" d="
  M 57.02 127.61
  Q 55.19 119.43 55.15 114.38
  Q 55.14 112.81 56.72 113.06"
/>
<path stroke="#7c7760" vector-effect="non-scaling-stroke" d="
  M 56.72 113.06
  Q 58.87 113.72 55.72 110.94"
/>
<path stroke="#d3c9a2" vector-effect="non-scaling-stroke" d="
  M 55.72 110.94
  Q 55.41 106.54 56.35 103.42"
/>
<path stroke="#f3f0db" vector-effect="non-scaling-stroke" d="
  M 58.28 106.17
  Q 62.57 108.36 68.02 107.64"
/>
<path stroke="#948c75" vector-effect="non-scaling-stroke" d="
  M 68.02 107.64
  Q 68.37 108.44 70.25 108.60
  C 73.11 108.84 81.69 109.30 83.45 107.54"
/>
<path stroke="#f3f0db" vector-effect="non-scaling-stroke" d="
  M 83.45 107.54
  L 83.60 107.90
  Q 83.77 108.29 84.15 108.10
  C 88.88 105.77 89.40 100.15 88.36 95.60"
/>
<path stroke="#b9b4a0" vector-effect="non-scaling-stroke" d="
  M 88.36 95.60
  L 88.61 93.21"
/>
<path stroke="#7c7760" vector-effect="non-scaling-stroke" d="
  M 61.8211 109.0115
  A 0.45 0.45 0.0 0 0 61.1851 108.9904
  L 61.1413 109.0314
  A 0.45 0.45 0.0 0 0 61.1202 109.6675
  L 64.3589 113.1285
  A 0.45 0.45 0.0 0 0 64.9949 113.1496
  L 65.0387 113.1086
  A 0.45 0.45 0.0 0 0 65.0598 112.4725
  L 61.8211 109.0115"
/>
<path stroke="#7c7760" vector-effect="non-scaling-stroke" d="
  M 67.33 113.42
  L 67.66 113.31
  Q 67.95 113.22 67.86 112.93
  Q 67.22 110.95 65.51 109.82
  A 0.44 0.44 0.0 0 0 64.86 110.01
  Q 64.73 110.29 64.95 110.49
  Q 66.29 111.70 67.07 113.31
  Q 67.15 113.48 67.33 113.42"
/>
<path stroke="#7c7760" vector-effect="non-scaling-stroke" d="
  M 59.33 111.69
  Q 59.95 112.66 60.01 112.71
  Q 62.76 114.65 60.85 111.88
  Q 60.37 111.19 58.97 110.11
  Q 58.72 109.92 58.42 110.00
  Q 58.28 110.05 58.20 110.14
  Q 58.06 110.31 58.26 110.60
  C 58.58 111.06 59.04 111.24 59.33 111.69"
/>
<path stroke="#a9826e" vector-effect="non-scaling-stroke" d="
  M 159.1261 114.0609
  A 0.52 0.52 0.0 0 0 159.0786 113.3270
  L 155.3674 110.0666
  A 0.52 0.52 0.0 0 0 154.6335 110.1141
  L 154.5939 110.1591
  A 0.52 0.52 0.0 0 0 154.6414 110.8930
  L 158.3526 114.1534
  A 0.52 0.52 0.0 0 0 159.0865 114.1059
  L 159.1261 114.0609"
/>
<path stroke="#a9826e" vector-effect="non-scaling-stroke" d="
  M 158.46 110.32
  L 162.06 114.32
  A 0.13 0.13 0.0 0 0 162.24 114.33
  L 162.29 114.29
  A 2.56 1.07 48.1 0 0 161.37 111.67
  L 161.03 111.29
  A 2.56 1.07 48.1 0 0 158.52 110.09
  L 158.47 110.13
  A 0.13 0.13 0.0 0 0 158.46 110.32"
/>
<path stroke="#948c75" vector-effect="non-scaling-stroke" d="
  M 68.94 112.22
  Q 70.19 114.63 70.07 111.91
  Q 70.02 110.89 68.50 110.25
  Q 67.74 109.93 68.12 110.66
  L 68.94 112.22"
/>
<path stroke="#a9826e" vector-effect="non-scaling-stroke" d="
  M 155.3182 113.8733
  A 2.37 0.61 45.6 0 0 154.0958 111.7532
  A 2.37 0.61 45.6 0 0 152.0018 110.4867
  A 2.37 0.61 45.6 0 0 153.2242 112.6068
  A 2.37 0.61 45.6 0 0 155.3182 113.8733"
/>
<path stroke="#948569" vector-effect="non-scaling-stroke" d="
  M 74.5178 113.0401
  A 1.79 0.50 33.2 0 0 73.2938 111.6416
  A 1.79 0.50 33.2 0 0 71.5222 111.0799
  A 1.79 0.50 33.2 0 0 72.7462 112.4784
  A 1.79 0.50 33.2 0 0 74.5178 113.0401"
/>
<path stroke="#a9826e" vector-effect="non-scaling-stroke" d="
  M 151.6901 113.9341
  A 2.27 0.62 41.5 0 0 150.4008 111.9656
  A 2.27 0.62 41.5 0 0 148.2899 110.9259
  A 2.27 0.62 41.5 0 0 149.5792 112.8944
  A 2.27 0.62 41.5 0 0 151.6901 113.9341"
/>
<path stroke="#b9b4a0" vector-effect="non-scaling-stroke" d="
  M 143.88 112.07
  Q 143.38 111.93 142.88 112.03
  Q 142.11 112.18 142.56 112.82
  Q 142.95 113.37 143.80 113.55
  A 0.81 0.67 53.4 0 0 143.88 112.07"
/>
<path stroke="#a9826e" vector-effect="non-scaling-stroke" d="
  M 149.0483 114.1162
  A 1.89 0.54 31.1 0 0 147.7089 112.6776
  A 1.89 0.54 31.1 0 0 145.8117 112.1638
  A 1.89 0.54 31.1 0 0 147.1511 113.6024
  A 1.89 0.54 31.1 0 0 149.0483 114.1162"
/>
<path stroke="#7c7760" vector-effect="non-scaling-stroke" d="
  M 111.32 145.58
  Q 120.40 139.58 124.91 128.74
  Q 125.04 128.43 124.71 128.44
  Q 109.48 128.72 94.41 126.54
  A 1.17 1.17 0.0 0 0 93.07 127.62
  C 92.69 133.60 92.61 139.64 96.99 144.21
  C 100.75 148.12 106.88 148.52 111.32 145.58"
/>
<path stroke="#948c75" vector-effect="non-scaling-stroke" d="
  M 152.04 89.88
  Q 144.11 87.86 136.10 89.48"
/>
<path stroke="#89826d" vector-effect="non-scaling-stroke" d="
  M 47.51 148.42
  L 49.01 152.64
  Q 49.18 153.12 49.61 153.42
  C 50.84 154.27 51.25 155.73 52.02 156.59
  C 65.98 172.11 86.93 176.35 107.24 174.55
  C 127.88 172.72 148.84 168.54 159.77 148.71"
/>
<path stroke="#5b595b" vector-effect="non-scaling-stroke" d="
  M 156.24 170.42
  L 150.53 170.39"
/>
<path stroke="#5b595b" vector-effect="non-scaling-stroke" d="
  M 46.64 167.01
  Q 45.11 165.74 43.54 166.17
  Q 42.96 166.33 43.36 166.78
  Q 43.88 167.37 44.99 167.46"
/>
<path stroke="#948c75" vector-effect="non-scaling-stroke" d="
  M 38.32 137.24
  Q 38.17 137.12 38.02 137.00"
/>
<path stroke="#1e1c1b" vector-effect="non-scaling-stroke" d="
  M 38.02 137.00
  Q 38.86 136.77 38.68 135.72
  C 37.60 129.54 33.48 126.52 31.02 122.30
  C 27.79 116.79 27.67 110.35 28.51 104.33
  A 1.26 1.26 0.0 0 0 26.78 102.99
  C 18.80 106.32 14.81 115.44 18.43 123.51
  C 20.86 128.94 27.63 141.64 35.12 139.71
  Q 37.43 139.11 38.32 137.24"
/>
<path stroke="#7c7760" vector-effect="non-scaling-stroke" d="
  M 38.02 137.00
  Q 37.29 131.63 33.71 127.77
  C 29.70 123.43 26.95 117.92 26.99 112.06
  Q 27.00 110.69 26.81 109.61
  Q 26.62 108.50 25.73 109.18
  Q 22.99 111.23 21.90 114.03
  Q 21.39 115.33 21.83 117.23
  C 22.74 121.17 23.19 123.92 25.86 128.17
  Q 27.47 130.72 29.32 133.08
  Q 29.37 133.13 29.30 133.14
  Q 29.27 133.15 29.23 133.15
  Q 29.10 133.16 29.00 133.06
  C 22.83 127.11 14.62 112.74 26.55 108.05
  A 0.55 0.54 -5.6 0 0 26.87 107.67
  L 27.53 104.32
  A 0.20 0.19 88.2 0 0 27.29 104.09
  C 18.87 106.16 16.64 116.37 19.63 123.43
  C 21.74 128.43 27.79 140.08 34.80 138.44
  Q 36.42 138.06 38.32 137.24"
/>
<path stroke="#959596" vector-effect="non-scaling-stroke" d="
  M 156.37 106.97
  Q 159.40 100.37 155.84 95.89"
/>
<path stroke="#5b595b" vector-effect="non-scaling-stroke" d="
  M 155.84 95.89
  Q 154.89 93.45 152.76 92.34
  Q 152.18 92.04 152.43 92.65
  L 153.24 94.62"
/>
<path stroke="#959596" vector-effect="non-scaling-stroke" d="
  M 153.24 94.62
  C 153.37 98.04 153.74 101.10 152.29 104.27
  Q 151.33 106.37 150.00 108.62"
/>
<path stroke="#959596" vector-effect="non-scaling-stroke" d="
  M 136.04 106.78
  Q 135.54 106.29 135.50 105.65"
/>
<path stroke="#34593d" vector-effect="non-scaling-stroke" d="
  M 135.50 105.65
  Q 138.10 107.88 141.24 108.09
  Q 144.58 108.31 148.89 107.74
  Q 149.48 107.66 149.64 107.08
  Q 149.73 106.75 150.07 106.55
  A 0.30 0.30 0.0 0 0 150.06 106.03
  Q 149.90 105.95 149.74 105.88
  Q 149.21 105.67 149.55 105.21
  Q 150.47 103.95 150.04 102.36
  Q 149.91 101.88 149.45 101.70
  L 147.10 100.80
  A 0.81 0.81 0.0 0 0 146.20 101.03
  Q 145.29 102.08 144.08 102.76
  Q 143.43 103.12 142.84 102.68
  L 141.37 101.58
  Q 140.92 101.24 140.40 101.44
  C 139.06 101.93 137.20 102.50 137.10 103.92
  Q 137.08 104.28 136.72 104.24
  Q 136.05 104.18 135.65 103.69
  Q 135.61 103.64 135.56 103.68
  Q 135.27 103.98 134.98 104.23
  Q 134.85 104.34 134.72 104.22
  L 134.51 104.03"
/>
<path stroke="#959596" vector-effect="non-scaling-stroke" d="
  M 134.51 104.03
  Q 132.97 100.40 133.62 96.05"
/>
<path stroke="#959596" vector-effect="non-scaling-stroke" d="
  M 150.4294 96.6360
  A 2.51 2.37 42.2 0 0 150.1620 93.1943
  A 2.51 2.37 42.2 0 0 146.7106 93.2640
  A 2.51 2.37 42.2 0 0 146.9780 96.7057
  A 2.51 2.37 42.2 0 0 150.4294 96.6360"
/>
<path stroke="#5b595b" vector-effect="non-scaling-stroke" d="
  M 166.89 100.96
  L 166.28 103.27"
/>
<path stroke="#5b595b" vector-effect="non-scaling-stroke" d="
  M 66.26 90.52
  Q 65.57 90.15 65.79 90.01"
/>
<path stroke="#babcc1" vector-effect="non-scaling-stroke" d="
  M 65.79 91.76
  C 62.85 93.01 59.78 94.80 58.22 97.66
  Q 57.57 98.86 56.73 100.10"
/>
<path stroke="#babcc1" vector-effect="non-scaling-stroke" d="
  M 88.36 95.60
  Q 87.03 94.61 86.64 95.22"
/>
<path stroke="#756e5d" vector-effect="non-scaling-stroke" d="
  M 83.06 91.77
  Q 81.53 91.01 79.91 91.78"
/>
<path stroke="#959596" vector-effect="non-scaling-stroke" d="
  M 79.91 91.78
  Q 77.87 94.59 80.92 96.10"
/>
<path stroke="#756e5d" vector-effect="non-scaling-stroke" d="
  M 80.92 96.10
  C 83.36 97.06 84.14 95.46 84.59 93.47"
/>
<path stroke="#959596" vector-effect="non-scaling-stroke" d="
  M 85.47 104.60
  L 83.45 107.54"
/>
<path stroke="#959596" vector-effect="non-scaling-stroke" d="
  M 68.02 107.64
  L 66.19 105.03"
/>
<path stroke="#34593d" vector-effect="non-scaling-stroke" d="
  M 68.09 104.89
  Q 67.92 104.88 67.72 104.88
  A 0.45 0.44 -11.1 0 0 67.30 105.50
  C 68.57 108.40 70.49 107.88 73.03 108.20
  C 76.03 108.59 84.23 108.41 84.24 104.61
  C 84.25 102.32 81.11 100.37 79.30 99.55
  A 1.39 1.39 0.0 0 0 77.62 99.97
  L 76.21 101.83
  A 1.43 1.43 0.0 0 1 74.02 101.93
  C 71.66 99.35 68.15 101.42 68.40 104.59
  Q 68.43 104.92 68.09 104.89"
/>
<path stroke="#d4d1c3" vector-effect="non-scaling-stroke" d="
  M 80.92 96.10
  Q 84.42 96.13 83.88 93.62
  Q 83.44 91.60 79.91 91.78"
/>
<path stroke="#babcc1" vector-effect="non-scaling-stroke" d="
  M 155.84 95.89
  Q 154.33 94.84 153.24 94.62"
/>
<path stroke="#93bca3" vector-effect="non-scaling-stroke" d="
  M 134.51 104.03
  Q 134.82 105.38 135.50 105.65"
/>
<path stroke="#5d5948" vector-effect="non-scaling-stroke" d="
  M 55.72 110.94
  Q 54.47 109.85 53.82 110.02
  A 0.25 0.24 -32.0 0 0 53.72 110.44
  L 56.72 113.06"
/>
<path stroke="#6a362b" vector-effect="non-scaling-stroke" d="
  M 118.45 129.72
  L 94.61 128.35
  Q 94.24 128.33 94.15 128.69
  C 92.58 135.34 94.61 144.11 101.74 146.45
  C 108.67 148.72 115.61 142.31 119.51 136.73
  Q 121.84 133.39 118.89 129.94
  A 0.68 0.65 70.3 0 0 118.45 129.72"
/>
</g>
<path fill="#352217" d="
  M 88.12 0.00
  L 96.26 0.00
  Q 125.06 1.81 147.98 19.27
  Q 162.28 30.16 169.31 43.68
  C 174.32 53.31 174.76 61.78 173.76 72.54
  C 173.50 75.35 172.23 78.22 171.84 81.26
  Q 171.79 81.69 171.18 82.52
  L 170.43 81.77
  Q 171.44 78.04 172.30 74.43
  Q 173.14 70.88 173.14 66.97
  C 173.14 63.98 173.43 60.62 172.81 57.70
  Q 172.49 56.20 172.14 54.64
  C 168.60 41.45 159.47 30.04 148.83 21.66
  Q 117.52 -3.01 77.63 2.02
  Q 77.22 2.07 77.09 2.46
  Q 77.04 2.60 77.01 2.75
  Q 76.95 3.07 76.62 3.07
  Q 64.17 3.02 52.93 8.21
  Q 52.46 8.43 51.96 8.28
  Q 51.30 8.07 50.51 8.32
  C 31.53 14.19 16.41 25.82 8.90 45.03
  Q 3.12 59.83 0.00 78.44
  L 0.00 73.01
  C 2.28 58.10 7.16 41.64 16.25 29.40
  C 23.57 19.53 34.15 13.08 45.61 8.76
  Q 49.83 7.17 54.04 5.53
  A 1.07 1.07 0.0 0 0 54.65 4.92
  C 56.39 0.19 62.31 0.79 66.82 1.16
  C 63.23 2.00 60.36 1.83 56.71 3.74
  Q 56.43 3.89 56.36 4.09
  Q 56.27 4.32 56.36 4.54
  Q 56.57 5.03 57.10 4.92
  Q 62.71 3.68 68.39 2.65
  Q 69.10 2.52 68.56 1.74
  Q 68.37 1.45 68.03 1.38
  Q 67.71 1.32 67.72 1.00
  L 73.23 1.57
  Q 77.38 2.66 76.46 1.20
  L 88.12 0.00
  Z"
/>
<path fill="#dd3242" d="
  M 66.82 1.16
  Q 67.38 1.17 67.72 1.00
  Q 67.71 1.32 68.03 1.38
  Q 68.37 1.45 68.56 1.74
  Q 69.10 2.52 68.39 2.65
  Q 62.71 3.68 57.10 4.92
  Q 56.57 5.03 56.36 4.54
  Q 56.27 4.32 56.36 4.09
  Q 56.43 3.89 56.71 3.74
  C 60.36 1.83 63.23 2.00 66.82 1.16
  Z"
/>
<path fill="#dd3242" d="
  M 172.14 54.64
  L 172.64 65.97
  Q 172.66 66.50 172.18 66.73
  Q 169.22 68.12 167.24 68.04
  C 161.39 67.83 155.25 68.77 149.68 66.76
  C 146.12 65.48 142.53 65.48 138.83 64.45
  C 137.05 63.95 135.24 64.25 133.47 64.46
  Q 130.13 64.86 129.36 60.48
  Q 131.03 45.28 116.25 41.40
  C 113.37 40.65 105.68 40.52 101.72 42.12
  Q 100.19 42.74 98.65 43.28
  Q 93.46 45.98 92.78 52.25
  Q 92.28 56.89 93.09 60.89
  Q 86.89 60.57 81.50 61.55
  Q 80.48 61.74 79.35 62.60
  Q 78.95 62.90 78.45 62.92
  C 73.26 63.11 68.23 65.34 64.04 66.10
  Q 57.86 67.22 51.66 68.29
  C 48.67 68.81 46.37 70.40 43.45 71.37
  C 39.17 72.80 36.53 74.39 32.86 76.23
  C 29.44 77.94 27.71 81.87 23.50 81.25
  Q 22.98 80.27 22.88 79.13
  Q 22.88 79.11 22.88 79.13
  Q 22.70 80.10 22.96 81.35
  C 21.51 82.39 20.41 82.95 19.04 84.27
  Q 16.02 87.18 12.09 88.51
  Q 9.36 89.43 7.60 90.54
  Q 3.92 92.87 0.00 94.44
  L 0.00 78.44
  Q 3.12 59.83 8.90 45.03
  C 16.41 25.82 31.53 14.19 50.51 8.32
  Q 51.30 8.07 51.96 8.28
  Q 52.46 8.43 52.93 8.21
  Q 64.17 3.02 76.62 3.07
  Q 76.95 3.07 77.01 2.75
  Q 77.04 2.60 77.09 2.46
  Q 77.22 2.07 77.63 2.02
  Q 117.52 -3.01 148.83 21.66
  C 159.47 30.04 168.60 41.45 172.14 54.64
  Z
  M 109.80 39.01
  C 105.60 24.18 95.83 6.30 79.06 3.18
  Q 78.84 3.14 78.79 3.36
  L 78.79 3.37
  Q 78.75 3.59 78.96 3.63
  C 95.48 7.06 104.46 24.24 109.34 39.16
  Q 109.42 39.38 109.64 39.31
  L 109.65 39.31
  Q 109.87 39.23 109.80 39.01
  Z
  M 51.79 8.60
  A 0.29 0.29 0.0 0 0 51.39 8.55
  Q 39.14 18.21 32.01 34.29
  Q 25.43 49.14 23.24 65.26
  Q 23.07 66.53 23.11 67.79
  Q 23.11 67.93 23.25 67.94
  L 23.25 67.94
  Q 23.39 67.94 23.41 67.81
  C 26.51 46.14 34.00 23.01 51.97 9.01
  A 0.12 0.11 53.1 0 0 51.99 8.84
  L 51.79 8.60
  Z"
/>
<path fill="#cc2f3d" d="
  M 76.46 1.20
  Q 77.38 2.66 73.23 1.57
  L 76.46 1.20
  Z"
/>
<path fill="#5f1d22" d="
  M 79.06 3.18
  C 95.83 6.30 105.60 24.18 109.80 39.01
  Q 109.87 39.23 109.65 39.31
  L 109.64 39.31
  Q 109.42 39.38 109.34 39.16
  C 104.46 24.24 95.48 7.06 78.96 3.63
  Q 78.75 3.59 78.79 3.37
  L 78.79 3.36
  Q 78.84 3.14 79.06 3.18
  Z"
/>
<path fill="#5f1d22" d="
  M 51.79 8.60
  L 51.99 8.84
  A 0.12 0.11 53.1 0 1 51.97 9.01
  C 34.00 23.01 26.51 46.14 23.41 67.81
  Q 23.39 67.94 23.25 67.94
  L 23.25 67.94
  Q 23.11 67.93 23.11 67.79
  Q 23.07 66.53 23.24 65.26
  Q 25.43 49.14 32.01 34.29
  Q 39.14 18.21 51.39 8.55
  A 0.29 0.29 0.0 0 1 51.79 8.60
  Z"
/>
<path fill="#f4f8fc" d="
  M 129.36 60.48
  C 128.44 64.06 126.34 67.50 122.56 67.71
  Q 121.10 67.79 119.85 67.99
  L 111.64 66.56
  L 100.79 67.88
  Q 95.56 66.56 94.04 61.75
  C 91.86 54.81 92.87 48.07 98.65 43.28
  Q 100.19 42.74 101.72 42.12
  C 105.68 40.52 113.37 40.65 116.25 41.40
  Q 131.03 45.28 129.36 60.48
  Z
  M 101.48 46.48
  L 97.01 63.16
  Q 96.88 63.64 97.30 63.90
  Q 100.22 65.72 102.36 64.19
  L 105.06 53.47
  Q 108.34 57.87 112.09 59.82
  Q 114.67 57.45 116.35 55.34
  Q 116.60 55.03 117.29 55.24
  L 118.79 60.56
  L 119.59 64.60
  Q 119.85 65.92 121.17 65.61
  L 124.19 64.90
  Q 125.68 64.55 125.26 63.08
  L 120.13 45.31
  A 0.69 0.68 -31.2 0 0 118.98 45.03
  L 112.37 51.88
  A 0.74 0.74 0.0 0 1 111.33 51.91
  L 102.91 44.09
  A 0.63 0.63 0.0 0 0 101.93 44.24
  Q 101.29 45.39 101.48 46.48
  Z"
/>
<path fill="#352217" d="
  M 98.65 43.28
  C 92.87 48.07 91.86 54.81 94.04 61.75
  Q 95.56 66.56 100.79 67.88
  Q 95.05 67.96 93.09 60.89
  Q 92.28 56.89 92.78 52.25
  Q 93.46 45.98 98.65 43.28
  Z"
/>
<path fill="#dd3242" d="
  M 118.79 60.56
  Q 118.84 57.82 117.74 55.25
  Q 117.67 55.10 117.50 55.11
  Q 117.28 55.13 117.29 55.24
  Q 116.60 55.03 116.35 55.34
  Q 114.67 57.45 112.09 59.82
  L 105.06 53.47
  L 102.36 64.19
  Q 99.96 64.24 98.24 63.28
  Q 97.77 63.02 97.89 62.49
  L 101.48 46.48
  Q 101.29 45.39 101.93 44.24
  A 0.63 0.63 0.0 0 1 102.91 44.09
  L 111.33 51.91
  A 0.74 0.74 0.0 0 0 112.37 51.88
  L 118.98 45.03
  A 0.69 0.68 -31.2 0 1 120.13 45.31
  L 125.26 63.08
  Q 125.68 64.55 124.19 64.90
  L 121.17 65.61
  Q 119.85 65.92 119.59 64.60
  L 118.79 60.56
  Z"
/>
<path fill="#5f1d22" d="
  M 101.48 46.48
  L 97.89 62.49
  Q 97.77 63.02 98.24 63.28
  Q 99.96 64.24 102.36 64.19
  Q 100.22 65.72 97.30 63.90
  Q 96.88 63.64 97.01 63.16
  L 101.48 46.48
  Z"
/>
<path fill="#5f1d22" d="
  M 112.09 59.82
  Q 108.34 57.87 105.06 53.47
  L 112.09 59.82
  Z"
/>
<path fill="#cc2f3d" d="
  M 172.14 54.64
  Q 172.49 56.20 172.81 57.70
  C 173.43 60.62 173.14 63.98 173.14 66.97
  Q 173.14 70.88 172.30 74.43
  Q 171.44 78.04 170.43 81.77
  Q 169.20 82.44 166.67 81.59
  C 149.55 75.85 132.64 73.25 114.67 72.10
  C 109.17 71.74 103.59 72.08 98.01 72.20
  Q 78.61 72.61 59.76 77.12
  C 50.51 79.33 39.89 82.88 32.32 89.27
  Q 30.13 91.11 27.77 92.20
  C 20.03 95.79 11.38 101.18 6.92 108.73
  Q 5.92 110.42 5.91 110.57
  Q 5.80 113.99 4.33 110.90
  C 3.55 109.27 2.56 107.70 2.05 105.94
  Q 0.93 102.07 0.00 98.07
  L 0.00 94.44
  Q 3.92 92.87 7.60 90.54
  Q 9.36 89.43 12.09 88.51
  Q 16.02 87.18 19.04 84.27
  C 20.41 82.95 21.51 82.39 22.96 81.35
  C 23.46 85.10 24.07 88.58 26.95 91.38
  Q 27.07 91.50 27.19 91.38
  L 27.20 91.38
  Q 27.32 91.26 27.21 91.14
  Q 23.66 86.87 23.50 81.25
  C 27.71 81.87 29.44 77.94 32.86 76.23
  C 36.53 74.39 39.17 72.80 43.45 71.37
  C 46.37 70.40 48.67 68.81 51.66 68.29
  Q 57.86 67.22 64.04 66.10
  C 68.23 65.34 73.26 63.11 78.45 62.92
  Q 78.95 62.90 79.35 62.60
  Q 80.48 61.74 81.50 61.55
  Q 86.89 60.57 93.09 60.89
  Q 95.05 67.96 100.79 67.88
  L 111.64 66.56
  Q 111.70 67.37 112.10 67.77
  Q 112.43 68.10 112.79 67.80
  Q 113.82 66.92 115.00 67.41
  Q 117.96 68.63 119.85 67.99
  Q 121.10 67.79 122.56 67.71
  C 126.34 67.50 128.44 64.06 129.36 60.48
  Q 130.13 64.86 133.47 64.46
  C 135.24 64.25 137.05 63.95 138.83 64.45
  C 142.53 65.48 146.12 65.48 149.68 66.76
  C 155.25 68.77 161.39 67.83 167.24 68.04
  Q 169.22 68.12 172.18 66.73
  Q 172.66 66.50 172.64 65.97
  L 172.14 54.64
  Z
  M 111.1190 71.0817
  A 1.38 0.36 114.9 0 0 112.0265 69.9816
  A 1.38 0.36 114.9 0 0 112.2810 68.5783
  A 1.38 0.36 114.9 0 0 111.3735 69.6784
  A 1.38 0.36 114.9 0 0 111.1190 71.0817
  Z"
/>
<path fill="#5f1d22" d="
  M 118.79 60.56
  L 117.29 55.24
  Q 117.28 55.13 117.50 55.11
  Q 117.67 55.10 117.74 55.25
  Q 118.84 57.82 118.79 60.56
  Z"
/>
<path fill="#5f1d22" d="
  M 111.64 66.56
  L 119.85 67.99
  Q 117.96 68.63 115.00 67.41
  Q 113.82 66.92 112.79 67.80
  Q 112.43 68.10 112.10 67.77
  Q 111.70 67.37 111.64 66.56
  Z"
/>
<ellipse fill="#353130" cx="0.00" cy="0.00" transform="translate(111.70,69.83) rotate(114.9)" rx="1.38" ry="0.36"/>
<path fill="#060706" d="
  M 170.43 81.77
  L 171.18 82.52
  C 172.18 84.69 174.84 83.99 176.00 86.09
  L 176.00 87.18
  Q 173.63 85.08 168.73 83.45
  Q 147.30 76.32 128.51 74.23
  Q 100.41 71.10 72.51 75.53
  C 59.23 77.64 43.00 81.56 32.14 90.78
  Q 29.39 92.41 26.44 93.86
  C 19.67 97.19 14.44 101.32 9.59 107.12
  C 5.96 111.46 7.97 116.58 7.53 121.40
  C 7.18 125.26 7.53 128.04 5.35 131.53
  A 0.96 0.95 -59.1 0 0 5.68 132.86
  Q 6.84 133.52 6.87 135.25
  Q 7.02 143.88 6.89 152.50
  C 6.85 154.84 7.67 157.21 8.10 159.54
  C 8.44 161.35 9.45 163.79 10.85 165.06
  Q 11.20 165.38 11.13 165.86
  A 0.90 0.89 -67.5 0 0 11.46 166.67
  Q 12.59 167.60 13.08 168.15
  Q 15.23 170.62 14.95 167.48
  Q 14.75 165.12 15.68 162.93
  Q 15.87 162.49 16.33 162.64
  L 17.65 163.08
  A 1.00 0.97 -3.6 0 1 18.21 163.56
  Q 18.63 164.40 19.53 164.65
  Q 19.98 164.77 20.12 165.21
  Q 20.34 165.85 20.94 165.87
  Q 21.07 165.88 21.01 165.99
  Q 20.94 166.13 20.88 166.26
  A 0.32 0.32 0.0 0 0 21.07 166.71
  Q 23.35 167.42 25.50 168.46
  C 26.98 169.17 28.27 169.04 29.87 169.41
  Q 30.11 169.47 30.04 169.71
  L 29.92 170.09
  Q 29.85 170.33 29.62 170.22
  Q 28.43 169.67 27.71 170.41
  Q 21.51 168.99 16.84 164.52
  Q 16.40 164.10 16.17 164.66
  Q 15.69 165.81 16.14 167.50
  Q 15.47 169.07 16.94 170.08
  Q 17.26 170.25 16.98 170.92
  L 16.00 171.06
  Q 15.51 171.13 15.23 170.72
  Q 14.51 169.67 13.41 169.99
  Q 7.75 166.07 6.63 159.07
  Q 7.58 157.81 6.20 156.32
  L 5.54 150.07
  L 5.63 134.54
  Q 5.64 134.20 5.31 134.11
  Q 5.15 134.06 5.00 134.21
  L 3.68 133.59
  Q 3.20 133.37 3.40 132.89
  C 4.41 130.46 5.52 128.21 5.79 125.62
  Q 6.29 120.75 5.58 116.05
  Q 6.07 115.20 5.54 114.23
  Q 4.82 112.91 3.56 111.91
  Q 1.03 107.92 0.00 102.85
  L 0.00 98.07
  Q 0.93 102.07 2.05 105.94
  C 2.56 107.70 3.55 109.27 4.33 110.90
  Q 5.80 113.99 5.91 110.57
  Q 5.92 110.42 6.92 108.73
  C 11.38 101.18 20.03 95.79 27.77 92.20
  Q 30.13 91.11 32.32 89.27
  C 39.89 82.88 50.51 79.33 59.76 77.12
  Q 78.61 72.61 98.01 72.20
  C 103.59 72.08 109.17 71.74 114.67 72.10
  C 132.64 73.25 149.55 75.85 166.67 81.59
  Q 169.20 82.44 170.43 81.77
  Z"
/>
<path fill="#dd3242" d="
  M 176.00 87.18
  L 176.00 88.70
  L 174.39 89.65
  A 1.49 1.47 32.2 0 1 173.48 89.85
  L 169.74 89.47
  Q 161.39 88.17 153.70 86.41
  Q 143.07 83.97 132.37 81.90
  Q 117.59 79.03 99.13 79.86
  C 80.42 80.70 61.54 85.85 42.77 90.38
  Q 37.68 91.61 32.33 91.20
  Q 32.23 90.99 32.14 90.78
  C 43.00 81.56 59.23 77.64 72.51 75.53
  Q 100.41 71.10 128.51 74.23
  Q 147.30 76.32 168.73 83.45
  Q 173.63 85.08 176.00 87.18
  Z"
/>
<path fill="#353130" d="
  M 23.50 81.25
  Q 23.66 86.87 27.21 91.14
  Q 27.32 91.26 27.20 91.38
  L 27.19 91.38
  Q 27.07 91.50 26.95 91.38
  C 24.07 88.58 23.46 85.10 22.96 81.35
  Q 22.70 80.10 22.88 79.13
  Q 22.88 79.11 22.88 79.13
  Q 22.98 80.27 23.50 81.25
  Z"
/>
<path fill="#060706" d="
  M 169.74 89.47
  Q 167.20 90.90 163.75 89.19
  Q 162.96 88.80 161.66 89.34
  Q 161.22 89.52 161.37 89.97
  Q 163.15 95.41 163.37 101.12
  Q 163.39 101.73 163.91 102.35
  Q 164.36 102.87 164.59 102.22
  Q 164.83 101.56 165.34 101.02
  Q 166.04 100.28 166.12 101.29
  L 166.28 103.27
  L 166.14 105.48
  C 165.95 108.24 165.46 113.31 166.51 115.85
  C 167.11 117.31 167.24 119.04 167.73 120.28
  Q 169.65 125.19 172.58 129.40
  A 0.38 0.38 0.0 0 1 172.28 130.00
  Q 169.09 130.14 166.08 129.15
  Q 166.39 128.09 165.24 128.01
  C 163.97 116.24 162.80 104.52 161.17 92.78
  Q 161.06 91.98 160.63 91.31
  Q 160.10 90.50 160.15 91.47
  Q 160.22 92.73 160.00 94.01
  Q 159.50 97.03 158.84 94.04
  L 157.76 89.13
  Q 157.64 88.57 157.10 88.39
  L 153.73 87.24
  A 0.44 0.44 0.0 0 0 153.15 87.62
  Q 153.06 88.82 152.49 89.86
  Q 152.65 89.02 152.04 89.88
  Q 152.26 86.44 148.72 86.19
  Q 148.05 86.14 148.45 86.67
  Q 148.71 87.02 148.74 87.45
  Q 148.80 88.18 148.07 88.14
  Q 144.00 87.91 140.30 86.20
  Q 139.79 85.97 139.38 86.36
  L 136.10 89.48
  L 135.67 89.76
  Q 135.33 90.00 135.16 89.62
  Q 135.09 89.47 135.15 89.25
  L 137.94 86.14
  A 0.90 0.90 0.0 0 0 137.69 84.74
  Q 134.41 83.02 130.74 82.64
  Q 130.25 82.59 130.42 83.06
  Q 131.13 84.95 132.97 85.84
  A 0.54 0.54 0.0 0 1 132.98 86.80
  C 131.50 87.59 130.04 88.22 128.30 87.75
  C 123.95 86.58 120.68 84.02 117.25 81.25
  A 0.63 0.63 0.0 0 0 116.22 81.74
  L 116.20 85.50
  A 0.68 0.67 -58.1 0 1 114.92 85.80
  L 114.34 84.64
  Q 114.00 83.95 113.63 84.63
  Q 113.21 85.40 113.18 86.26
  Q 113.15 87.16 112.25 87.23
  Q 111.00 87.32 109.94 87.99
  A 0.81 0.80 55.6 0 1 108.86 87.78
  L 107.05 85.36
  A 0.37 0.36 42.7 0 0 106.45 85.38
  Q 106.29 85.63 106.27 85.92
  Q 106.24 86.35 105.84 86.49
  Q 102.97 87.54 101.59 87.18
  C 99.73 86.70 95.68 84.83 92.61 82.85
  C 89.52 80.86 81.27 82.63 77.80 83.50
  A 0.21 0.21 0.0 0 0 77.74 83.89
  C 80.67 85.69 83.14 87.58 85.96 89.20
  Q 88.05 90.40 88.61 93.21
  Q 86.94 91.23 85.27 90.41
  Q 84.66 90.11 84.91 90.75
  L 86.64 95.22
  Q 87.70 100.03 85.47 104.60
  Q 84.33 104.07 84.73 103.02
  Q 86.59 98.10 84.59 93.47
  Q 83.92 92.10 83.06 91.77
  Q 82.82 90.70 81.74 90.83
  C 77.22 91.39 73.18 91.78 69.36 91.17
  C 64.93 90.46 66.17 102.12 66.75 104.41
  Q 66.83 104.73 66.74 104.88
  Q 66.60 105.11 66.19 105.03
  Q 63.09 98.75 65.79 91.76
  Q 65.72 91.13 66.26 90.52
  Q 73.51 88.99 80.81 90.38
  Q 80.86 90.39 80.87 90.34
  L 80.92 90.09
  Q 80.96 89.84 80.72 89.79
  Q 73.22 88.39 65.79 90.01
  Q 55.98 91.70 56.73 100.10
  L 58.28 106.17
  L 56.35 103.42
  Q 56.36 102.34 55.76 101.00
  Q 55.46 100.34 55.16 101.00
  C 51.94 107.89 52.06 121.95 57.02 127.61
  Q 58.47 129.20 60.78 129.56
  Q 60.91 129.58 60.98 129.65
  Q 61.07 129.75 61.11 129.87
  Q 61.19 130.14 60.90 130.18
  Q 57.65 130.57 55.24 128.76
  Q 53.27 127.29 49.42 123.33
  Q 49.01 121.00 47.00 118.24
  Q 46.74 117.88 46.74 118.32
  Q 46.67 132.13 55.70 141.83
  Q 57.02 143.44 59.63 144.74
  Q 59.97 144.91 60.34 144.85
  L 61.46 144.65
  Q 62.04 144.55 61.78 145.08
  Q 58.37 151.98 51.06 149.99
  L 47.51 148.42
  Q 46.50 148.61 46.60 147.28
  A 0.88 0.87 20.9 0 0 46.25 146.51
  Q 45.23 145.77 44.85 144.53
  A 0.23 0.22 -72.9 0 1 45.24 144.32
  C 48.22 148.17 55.30 151.51 59.34 146.77
  Q 59.73 146.32 59.22 146.01
  C 49.87 140.30 46.21 128.91 45.66 118.50
  Q 45.62 117.74 46.29 115.68
  Q 46.43 115.23 46.19 114.83
  Q 45.45 113.63 46.08 112.55
  Q 46.45 111.91 46.61 112.63
  C 46.86 113.73 47.24 115.03 47.15 116.15
  Q 47.11 116.70 47.53 117.03
  Q 47.82 117.27 48.00 117.59
  C 49.39 120.15 50.83 123.57 53.34 125.20
  Q 53.93 125.58 53.76 124.91
  C 52.88 121.39 51.97 117.82 51.91 114.30
  C 51.76 105.58 54.99 98.70 57.80 91.14
  Q 57.99 90.65 57.87 90.13
  Q 57.65 89.19 58.10 88.32
  Q 58.61 87.33 57.55 87.64
  Q 47.14 90.61 36.50 92.19
  Q 33.24 92.68 32.33 91.20
  Q 37.68 91.61 42.77 90.38
  C 61.54 85.85 80.42 80.70 99.13 79.86
  Q 117.59 79.03 132.37 81.90
  Q 143.07 83.97 153.70 86.41
  Q 161.39 88.17 169.74 89.47
  Z
  M 106.11 83.13
  L 109.20 86.10
  A 1.59 1.59 0.0 0 0 111.63 85.83
  L 113.80 82.55
  Q 113.91 82.39 114.09 82.41
  Q 114.24 82.43 114.36 82.41
  Q 114.71 82.35 114.75 82.00
  Q 114.79 81.67 114.68 81.33
  Q 114.52 80.86 114.03 80.87
  L 94.56 81.10
  Q 92.83 81.13 94.22 82.16
  C 96.04 83.51 105.64 89.18 105.70 83.30
  Q 105.70 82.74 106.11 83.13
  Z
  M 120.63 82.12
  Q 124.52 85.81 130.19 86.67
  Q 131.21 86.82 130.68 85.93
  L 128.96 83.06
  Q 128.53 82.33 127.69 82.25
  L 120.31 81.51
  Q 119.87 81.47 120.11 81.85
  Q 120.26 82.09 120.63 82.12
  Z
  M 59.29 90.34
  Q 58.03 91.07 58.13 92.01
  Q 58.20 92.62 58.65 92.21
  Q 59.39 91.52 59.68 90.27
  Q 59.82 90.20 59.95 90.13
  Q 61.15 90.05 61.94 89.57
  C 67.77 88.05 77.12 86.73 82.71 89.21
  Q 83.49 89.56 82.92 88.92
  C 81.28 87.11 78.45 85.52 76.38 84.13
  A 1.25 1.25 0.0 0 0 75.50 83.93
  Q 65.96 85.29 60.55 87.31
  Q 58.59 88.04 59.29 90.34
  Z"
/>
<path fill="#353130" d="
  M 109.20 86.10
  L 106.11 83.13
  Q 105.70 82.74 105.70 83.30
  C 105.64 89.18 96.04 83.51 94.22 82.16
  Q 92.83 81.13 94.56 81.10
  L 114.03 80.87
  Q 114.52 80.86 114.68 81.33
  Q 114.79 81.67 114.75 82.00
  Q 114.71 82.35 114.36 82.41
  Q 114.24 82.43 114.09 82.41
  Q 113.91 82.39 113.80 82.55
  L 111.63 85.83
  A 1.59 1.59 0.0 0 1 109.20 86.10
  Z"
/>
<path fill="#f2e7ba" d="
  M 135.15 89.25
  Q 134.15 90.22 132.61 90.70
  A 0.22 0.22 0.0 0 0 132.62 91.12
  Q 132.91 91.20 133.21 91.13
  A 0.40 0.39 -76.4 0 1 133.60 91.77
  Q 133.06 92.42 132.99 93.25
  A 1.00 0.09 -84.3 0 0 132.98 94.13
  Q 133.84 95.44 133.62 96.05
  Q 132.44 94.73 132.02 98.00
  C 131.66 100.73 132.02 106.74 135.30 107.87
  Q 135.86 108.07 136.08 107.51
  Q 136.20 107.22 136.04 106.78
  L 136.85 107.79
  Q 137.16 108.18 137.65 108.28
  Q 144.18 109.59 150.00 108.62
  C 152.81 108.13 154.13 108.98 156.37 106.97
  Q 161.83 100.13 154.81 91.88
  Q 154.50 91.51 154.95 91.67
  Q 155.35 91.81 155.65 91.60
  Q 156.17 91.24 155.57 91.02
  L 152.49 89.86
  Q 153.06 88.82 153.15 87.62
  A 0.44 0.44 0.0 0 1 153.73 87.24
  L 157.10 88.39
  Q 157.64 88.57 157.76 89.13
  L 158.84 94.04
  Q 159.50 97.03 160.00 94.01
  Q 160.22 92.73 160.15 91.47
  Q 160.10 90.50 160.63 91.31
  Q 161.06 91.98 161.17 92.78
  C 162.80 104.52 163.97 116.24 165.24 128.01
  Q 164.86 130.71 164.52 133.47
  Q 163.48 141.92 159.77 148.71
  Q 153.79 152.99 148.92 158.35
  Q 148.35 158.97 147.39 159.44
  C 145.88 160.18 144.75 161.42 143.40 162.08
  C 140.16 163.66 137.11 165.47 133.70 166.52
  C 125.68 168.97 117.29 169.50 109.00 170.51
  Q 97.75 171.88 81.74 168.74
  Q 66.78 165.81 54.61 154.62
  Q 53.24 153.37 51.95 152.79
  A 3.11 3.05 86.4 0 1 50.56 151.54
  Q 49.72 150.11 51.06 149.99
  Q 58.37 151.98 61.78 145.08
  Q 62.04 144.55 61.46 144.65
  L 60.34 144.85
  Q 59.97 144.91 59.63 144.74
  Q 57.02 143.44 55.70 141.83
  Q 51.21 132.16 49.42 123.33
  Q 53.27 127.29 55.24 128.76
  Q 57.65 130.57 60.90 130.18
  Q 61.19 130.14 61.11 129.87
  Q 61.07 129.75 60.98 129.65
  Q 60.91 129.58 60.78 129.56
  Q 58.47 129.20 57.02 127.61
  Q 55.19 119.43 55.15 114.38
  Q 55.14 112.81 56.72 113.06
  Q 58.87 113.72 55.72 110.94
  Q 55.41 106.54 56.35 103.42
  L 58.28 106.17
  Q 62.57 108.36 68.02 107.64
  Q 68.37 108.44 70.25 108.60
  C 73.11 108.84 81.69 109.30 83.45 107.54
  L 83.60 107.90
  Q 83.77 108.29 84.15 108.10
  C 88.88 105.77 89.40 100.15 88.36 95.60
  L 88.61 93.21
  Q 88.05 90.40 85.96 89.20
  C 83.14 87.58 80.67 85.69 77.74 83.89
  A 0.21 0.21 0.0 0 1 77.80 83.50
  C 81.27 82.63 89.52 80.86 92.61 82.85
  C 95.68 84.83 99.73 86.70 101.59 87.18
  Q 102.97 87.54 105.84 86.49
  Q 106.24 86.35 106.27 85.92
  Q 106.29 85.63 106.45 85.38
  A 0.37 0.36 42.7 0 1 107.05 85.36
  L 108.86 87.78
  A 0.81 0.80 55.6 0 0 109.94 87.99
  Q 111.00 87.32 112.25 87.23
  Q 113.15 87.16 113.18 86.26
  Q 113.21 85.40 113.63 84.63
  Q 114.00 83.95 114.34 84.64
  L 114.92 85.80
  A 0.68 0.67 -58.1 0 0 116.20 85.50
  L 116.22 81.74
  A 0.63 0.63 0.0 0 1 117.25 81.25
  C 120.68 84.02 123.95 86.58 128.30 87.75
  C 130.04 88.22 131.50 87.59 132.98 86.80
  A 0.54 0.54 0.0 0 0 132.97 85.84
  Q 131.13 84.95 130.42 83.06
  Q 130.25 82.59 130.74 82.64
  Q 134.41 83.02 137.69 84.74
  A 0.90 0.90 0.0 0 1 137.94 86.14
  L 135.15 89.25
  Z
  M 61.8211 109.0115
  A 0.45 0.45 0.0 0 0 61.1851 108.9904
  L 61.1413 109.0314
  A 0.45 0.45 0.0 0 0 61.1202 109.6675
  L 64.3589 113.1285
  A 0.45 0.45 0.0 0 0 64.9949 113.1496
  L 65.0387 113.1086
  A 0.45 0.45 0.0 0 0 65.0598 112.4725
  L 61.8211 109.0115
  Z
  M 67.33 113.42
  L 67.66 113.31
  Q 67.95 113.22 67.86 112.93
  Q 67.22 110.95 65.51 109.82
  A 0.44 0.44 0.0 0 0 64.86 110.01
  Q 64.73 110.29 64.95 110.49
  Q 66.29 111.70 67.07 113.31
  Q 67.15 113.48 67.33 113.42
  Z
  M 59.33 111.69
  Q 59.95 112.66 60.01 112.71
  Q 62.76 114.65 60.85 111.88
  Q 60.37 111.19 58.97 110.11
  Q 58.72 109.92 58.42 110.00
  Q 58.28 110.05 58.20 110.14
  Q 58.06 110.31 58.26 110.60
  C 58.58 111.06 59.04 111.24 59.33 111.69
  Z
  M 159.1261 114.0609
  A 0.52 0.52 0.0 0 0 159.0786 113.3270
  L 155.3674 110.0666
  A 0.52 0.52 0.0 0 0 154.6335 110.1141
  L 154.5939 110.1591
  A 0.52 0.52 0.0 0 0 154.6414 110.8930
  L 158.3526 114.1534
  A 0.52 0.52 0.0 0 0 159.0865 114.1059
  L 159.1261 114.0609
  Z
  M 158.46 110.32
  L 162.06 114.32
  A 0.13 0.13 0.0 0 0 162.24 114.33
  L 162.29 114.29
  A 2.56 1.07 48.1 0 0 161.37 111.67
  L 161.03 111.29
  A 2.56 1.07 48.1 0 0 158.52 110.09
  L 158.47 110.13
  A 0.13 0.13 0.0 0 0 158.46 110.32
  Z
  M 68.94 112.22
  Q 70.19 114.63 70.07 111.91
  Q 70.02 110.89 68.50 110.25
  Q 67.74 109.93 68.12 110.66
  L 68.94 112.22
  Z
  M 155.3182 113.8733
  A 2.37 0.61 45.6 0 0 154.0958 111.7532
  A 2.37 0.61 45.6 0 0 152.0018 110.4867
  A 2.37 0.61 45.6 0 0 153.2242 112.6068
  A 2.37 0.61 45.6 0 0 155.3182 113.8733
  Z
  M 74.5178 113.0401
  A 1.79 0.50 33.2 0 0 73.2938 111.6416
  A 1.79 0.50 33.2 0 0 71.5222 111.0799
  A 1.79 0.50 33.2 0 0 72.7462 112.4784
  A 1.79 0.50 33.2 0 0 74.5178 113.0401
  Z
  M 151.6901 113.9341
  A 2.27 0.62 41.5 0 0 150.4008 111.9656
  A 2.27 0.62 41.5 0 0 148.2899 110.9259
  A 2.27 0.62 41.5 0 0 149.5792 112.8944
  A 2.27 0.62 41.5 0 0 151.6901 113.9341
  Z
  M 143.88 112.07
  Q 143.38 111.93 142.88 112.03
  Q 142.11 112.18 142.56 112.82
  Q 142.95 113.37 143.80 113.55
  A 0.81 0.67 53.4 0 0 143.88 112.07
  Z
  M 149.0483 114.1162
  A 1.89 0.54 31.1 0 0 147.7089 112.6776
  A 1.89 0.54 31.1 0 0 145.8117 112.1638
  A 1.89 0.54 31.1 0 0 147.1511 113.6024
  A 1.89 0.54 31.1 0 0 149.0483 114.1162
  Z
  M 111.32 145.58
  Q 120.40 139.58 124.91 128.74
  Q 125.04 128.43 124.71 128.44
  Q 109.48 128.72 94.41 126.54
  A 1.17 1.17 0.0 0 0 93.07 127.62
  C 92.69 133.60 92.61 139.64 96.99 144.21
  C 100.75 148.12 106.88 148.52 111.32 145.58
  Z"
/>
<path fill="#353130" d="
  M 120.63 82.12
  Q 120.26 82.09 120.11 81.85
  Q 119.87 81.47 120.31 81.51
  L 127.69 82.25
  Q 128.53 82.33 128.96 83.06
  L 130.68 85.93
  Q 131.21 86.82 130.19 86.67
  Q 124.52 85.81 120.63 82.12
  Z"
/>
<path fill="#f2e7ba" d="
  M 61.94 89.57
  Q 61.20 88.76 60.54 88.52
  Q 59.98 88.32 60.17 88.88
  Q 60.49 89.79 59.95 90.13
  Q 59.82 90.20 59.68 90.27
  Q 59.49 90.22 59.29 90.34
  Q 58.59 88.04 60.55 87.31
  Q 65.96 85.29 75.50 83.93
  A 1.25 1.25 0.0 0 1 76.38 84.13
  C 78.45 85.52 81.28 87.11 82.92 88.92
  Q 83.49 89.56 82.71 89.21
  C 77.12 86.73 67.77 88.05 61.94 89.57
  Z"
/>
<path fill="#f2e7ba" d="
  M 152.04 89.88
  Q 144.11 87.86 136.10 89.48
  L 139.38 86.36
  Q 139.79 85.97 140.30 86.20
  Q 144.00 87.91 148.07 88.14
  Q 148.80 88.18 148.74 87.45
  Q 148.71 87.02 148.45 86.67
  Q 148.05 86.14 148.72 86.19
  Q 152.26 86.44 152.04 89.88
  Z"
/>
<path fill="#353130" d="
  M 47.51 148.42
  L 49.01 152.64
  Q 49.18 153.12 49.61 153.42
  C 50.84 154.27 51.25 155.73 52.02 156.59
  C 65.98 172.11 86.93 176.35 107.24 174.55
  C 127.88 172.72 148.84 168.54 159.77 148.71
  Q 163.48 141.92 164.52 133.47
  Q 164.86 130.71 165.24 128.01
  Q 166.39 128.09 166.08 129.15
  C 165.92 131.95 165.39 134.47 167.24 136.76
  C 169.49 139.54 171.02 140.81 174.68 141.33
  A 0.60 0.60 0.0 0 1 175.08 142.29
  Q 173.40 144.54 170.95 146.36
  C 169.90 147.15 168.42 147.05 167.25 147.25
  A 1.69 1.68 -19.4 0 0 166.06 149.73
  Q 167.13 151.67 166.78 154.00
  Q 166.25 157.53 168.30 165.51
  Q 168.93 167.95 171.62 170.22
  Q 172.19 170.69 171.45 170.72
  Q 170.98 170.73 170.60 170.33
  A 1.06 1.05 -22.1 0 0 169.81 170.00
  Q 166.01 170.09 162.29 169.43
  C 159.92 169.01 158.33 169.63 156.24 170.42
  L 150.53 170.39
  Q 146.62 169.59 143.03 167.51
  Q 142.59 167.26 142.12 167.47
  Q 133.67 171.18 131.00 171.97
  Q 122.19 174.57 108.32 176.00
  L 91.60 176.00
  Q 76.25 174.88 63.59 167.72
  Q 63.18 167.49 62.72 167.57
  Q 57.67 168.37 52.44 168.02
  C 50.58 167.89 48.71 167.07 46.64 167.01
  Q 45.11 165.74 43.54 166.17
  Q 42.96 166.33 43.36 166.78
  Q 43.88 167.37 44.99 167.46
  Q 45.01 167.79 45.26 167.98
  Q 45.43 168.11 45.77 168.12
  Q 46.69 168.13 47.65 168.31
  Q 48.00 168.38 47.91 168.74
  L 47.85 168.99
  Q 47.76 169.34 47.41 169.26
  Q 46.78 169.11 45.05 169.59
  C 40.72 170.77 33.00 171.84 27.71 170.41
  Q 28.43 169.67 29.62 170.22
  Q 29.85 170.33 29.92 170.09
  L 30.04 169.71
  Q 30.11 169.47 29.87 169.41
  C 28.27 169.04 26.98 169.17 25.50 168.46
  Q 23.35 167.42 21.07 166.71
  A 0.32 0.32 0.0 0 1 20.88 166.26
  Q 20.94 166.13 21.01 165.99
  Q 21.07 165.88 20.94 165.87
  Q 20.34 165.85 20.12 165.21
  Q 19.98 164.77 19.53 164.65
  Q 18.63 164.40 18.21 163.56
  A 1.00 0.97 -3.6 0 0 17.65 163.08
  L 16.33 162.64
  Q 15.87 162.49 15.68 162.93
  Q 14.75 165.12 14.95 167.48
  Q 15.23 170.62 13.08 168.15
  Q 12.59 167.60 11.46 166.67
  A 0.90 0.89 -67.5 0 1 11.13 165.86
  Q 11.20 165.38 10.85 165.06
  C 9.45 163.79 8.44 161.35 8.10 159.54
  C 7.67 157.21 6.85 154.84 6.89 152.50
  Q 7.02 143.88 6.87 135.25
  Q 6.84 133.52 5.68 132.86
  A 0.96 0.95 -59.1 0 1 5.35 131.53
  C 7.53 128.04 7.18 125.26 7.53 121.40
  C 7.97 116.58 5.96 111.46 9.59 107.12
  C 14.44 101.32 19.67 97.19 26.44 93.86
  Q 29.39 92.41 32.14 90.78
  Q 32.23 90.99 32.33 91.20
  Q 33.24 92.68 36.50 92.19
  Q 47.14 90.61 57.55 87.64
  Q 58.61 87.33 58.10 88.32
  Q 57.65 89.19 57.87 90.13
  Q 57.99 90.65 57.80 91.14
  C 54.99 98.70 51.76 105.58 51.91 114.30
  C 51.97 117.82 52.88 121.39 53.76 124.91
  Q 53.93 125.58 53.34 125.20
  C 50.83 123.57 49.39 120.15 48.00 117.59
  Q 47.82 117.27 47.53 117.03
  Q 47.11 116.70 47.15 116.15
  C 47.24 115.03 46.86 113.73 46.61 112.63
  Q 46.45 111.91 46.08 112.55
  Q 45.45 113.63 46.19 114.83
  Q 46.43 115.23 46.29 115.68
  Q 45.62 117.74 45.66 118.50
  C 46.21 128.91 49.87 140.30 59.22 146.01
  Q 59.73 146.32 59.34 146.77
  C 55.30 151.51 48.22 148.17 45.24 144.32
  A 0.23 0.22 -72.9 0 0 44.85 144.53
  Q 45.23 145.77 46.25 146.51
  A 0.88 0.87 20.9 0 1 46.60 147.28
  Q 46.50 148.61 47.51 148.42
  Z
  M 38.32 137.24
  Q 38.17 137.12 38.02 137.00
  Q 38.86 136.77 38.68 135.72
  C 37.60 129.54 33.48 126.52 31.02 122.30
  C 27.79 116.79 27.67 110.35 28.51 104.33
  A 1.26 1.26 0.0 0 0 26.78 102.99
  C 18.80 106.32 14.81 115.44 18.43 123.51
  C 20.86 128.94 27.63 141.64 35.12 139.71
  Q 37.43 139.11 38.32 137.24
  Z"
/>
<path fill="#b4aa8a" d="
  M 61.94 89.57
  Q 61.15 90.05 59.95 90.13
  Q 60.49 89.79 60.17 88.88
  Q 59.98 88.32 60.54 88.52
  Q 61.20 88.76 61.94 89.57
  Z"
/>
<path fill="#353130" d="
  M 152.04 89.88
  Q 152.65 89.02 152.49 89.86
  L 155.57 91.02
  Q 156.17 91.24 155.65 91.60
  Q 155.35 91.81 154.95 91.67
  Q 154.50 91.51 154.81 91.88
  Q 161.83 100.13 156.37 106.97
  Q 159.40 100.37 155.84 95.89
  Q 154.89 93.45 152.76 92.34
  Q 152.18 92.04 152.43 92.65
  L 153.24 94.62
  C 153.37 98.04 153.74 101.10 152.29 104.27
  Q 151.33 106.37 150.00 108.62
  Q 144.18 109.59 137.65 108.28
  Q 137.16 108.18 136.85 107.79
  L 136.04 106.78
  Q 135.54 106.29 135.50 105.65
  Q 138.10 107.88 141.24 108.09
  Q 144.58 108.31 148.89 107.74
  Q 149.48 107.66 149.64 107.08
  Q 149.73 106.75 150.07 106.55
  A 0.30 0.30 0.0 0 0 150.06 106.03
  Q 149.90 105.95 149.74 105.88
  Q 149.21 105.67 149.55 105.21
  Q 150.47 103.95 150.04 102.36
  Q 149.91 101.88 149.45 101.70
  L 147.10 100.80
  A 0.81 0.81 0.0 0 0 146.20 101.03
  Q 145.29 102.08 144.08 102.76
  Q 143.43 103.12 142.84 102.68
  L 141.37 101.58
  Q 140.92 101.24 140.40 101.44
  C 139.06 101.93 137.20 102.50 137.10 103.92
  Q 137.08 104.28 136.72 104.24
  Q 136.05 104.18 135.65 103.69
  Q 135.61 103.64 135.56 103.68
  Q 135.27 103.98 134.98 104.23
  Q 134.85 104.34 134.72 104.22
  L 134.51 104.03
  Q 132.97 100.40 133.62 96.05
  Q 133.84 95.44 132.98 94.13
  A 1.00 0.09 -84.3 0 1 132.99 93.25
  Q 133.06 92.42 133.60 91.77
  A 0.40 0.39 -76.4 0 0 133.21 91.13
  Q 132.91 91.20 132.62 91.12
  A 0.22 0.22 0.0 0 1 132.61 90.70
  Q 134.15 90.22 135.15 89.25
  Q 135.09 89.47 135.16 89.62
  Q 135.33 90.00 135.67 89.76
  L 136.10 89.48
  Q 144.11 87.86 152.04 89.88
  Z
  M 150.4294 96.6360
  A 2.51 2.37 42.2 0 0 150.1620 93.1943
  A 2.51 2.37 42.2 0 0 146.7106 93.2640
  A 2.51 2.37 42.2 0 0 146.9780 96.7057
  A 2.51 2.37 42.2 0 0 150.4294 96.6360
  Z"
/>
<path fill="#353130" d="
  M 176.00 88.70
  L 176.00 89.53
  C 174.48 91.78 171.13 90.86 168.78 91.07
  Q 168.25 91.12 168.10 91.62
  Q 166.73 96.28 166.89 100.96
  L 166.28 103.27
  L 166.12 101.29
  Q 166.04 100.28 165.34 101.02
  Q 164.83 101.56 164.59 102.22
  Q 164.36 102.87 163.91 102.35
  Q 163.39 101.73 163.37 101.12
  Q 163.15 95.41 161.37 89.97
  Q 161.22 89.52 161.66 89.34
  Q 162.96 88.80 163.75 89.19
  Q 167.20 90.90 169.74 89.47
  L 173.48 89.85
  A 1.49 1.47 32.2 0 0 174.39 89.65
  L 176.00 88.70
  Z"
/>
<path fill="#353130" d="
  M 66.26 90.52
  Q 65.57 90.15 65.79 90.01
  Q 73.22 88.39 80.72 89.79
  Q 80.96 89.84 80.92 90.09
  L 80.87 90.34
  Q 80.86 90.39 80.81 90.38
  Q 73.51 88.99 66.26 90.52
  Z"
/>
<path fill="#353130" d="
  M 59.29 90.34
  Q 59.49 90.22 59.68 90.27
  Q 59.39 91.52 58.65 92.21
  Q 58.20 92.62 58.13 92.01
  Q 58.03 91.07 59.29 90.34
  Z"
/>
<path fill="#808086" d="
  M 65.79 90.01
  Q 65.57 90.15 66.26 90.52
  Q 65.72 91.13 65.79 91.76
  C 62.85 93.01 59.78 94.80 58.22 97.66
  Q 57.57 98.86 56.73 100.10
  Q 55.98 91.70 65.79 90.01
  Z"
/>
<path fill="#808086" d="
  M 88.61 93.21
  L 88.36 95.60
  Q 87.03 94.61 86.64 95.22
  L 84.91 90.75
  Q 84.66 90.11 85.27 90.41
  Q 86.94 91.23 88.61 93.21
  Z"
/>
<path fill="#353130" d="
  M 83.06 91.77
  Q 81.53 91.01 79.91 91.78
  Q 77.87 94.59 80.92 96.10
  C 83.36 97.06 84.14 95.46 84.59 93.47
  Q 86.59 98.10 84.73 103.02
  Q 84.33 104.07 85.47 104.60
  L 83.45 107.54
  C 81.69 109.30 73.11 108.84 70.25 108.60
  Q 68.37 108.44 68.02 107.64
  L 66.19 105.03
  Q 66.60 105.11 66.74 104.88
  Q 66.83 104.73 66.75 104.41
  C 66.17 102.12 64.93 90.46 69.36 91.17
  C 73.18 91.78 77.22 91.39 81.74 90.83
  Q 82.82 90.70 83.06 91.77
  Z
  M 68.09 104.89
  Q 67.92 104.88 67.72 104.88
  A 0.45 0.44 -11.1 0 0 67.30 105.50
  C 68.57 108.40 70.49 107.88 73.03 108.20
  C 76.03 108.59 84.23 108.41 84.24 104.61
  C 84.25 102.32 81.11 100.37 79.30 99.55
  A 1.39 1.39 0.0 0 0 77.62 99.97
  L 76.21 101.83
  A 1.43 1.43 0.0 0 1 74.02 101.93
  C 71.66 99.35 68.15 101.42 68.40 104.59
  Q 68.43 104.92 68.09 104.89
  Z"
/>
<path fill="#b4aa8a" d="
  M 83.06 91.77
  Q 83.92 92.10 84.59 93.47
  C 84.14 95.46 83.36 97.06 80.92 96.10
  Q 84.42 96.13 83.88 93.62
  Q 83.44 91.60 79.91 91.78
  Q 81.53 91.01 83.06 91.77
  Z"
/>
<path fill="#f4f8fc" d="
  M 65.79 91.76
  Q 63.09 98.75 66.19 105.03
  L 68.02 107.64
  Q 62.57 108.36 58.28 106.17
  L 56.73 100.10
  Q 57.57 98.86 58.22 97.66
  C 59.78 94.80 62.85 93.01 65.79 91.76
  Z"
/>
<path fill="#f4f8fc" d="
  M 79.91 91.78
  Q 83.44 91.60 83.88 93.62
  Q 84.42 96.13 80.92 96.10
  Q 77.87 94.59 79.91 91.78
  Z"
/>
<path fill="#808086" d="
  M 155.84 95.89
  Q 154.33 94.84 153.24 94.62
  L 152.43 92.65
  Q 152.18 92.04 152.76 92.34
  Q 154.89 93.45 155.84 95.89
  Z"
/>
<ellipse fill="#f4f8fc" cx="0.00" cy="0.00" transform="translate(148.57,94.95) rotate(42.2)" rx="2.51" ry="2.37"/>
<path fill="#f4f8fc" d="
  M 153.24 94.62
  Q 154.33 94.84 155.84 95.89
  Q 159.40 100.37 156.37 106.97
  C 154.13 108.98 152.81 108.13 150.00 108.62
  Q 151.33 106.37 152.29 104.27
  C 153.74 101.10 153.37 98.04 153.24 94.62
  Z"
/>
<path fill="#f4f8fc" d="
  M 88.36 95.60
  C 89.40 100.15 88.88 105.77 84.15 108.10
  Q 83.77 108.29 83.60 107.90
  L 83.45 107.54
  L 85.47 104.60
  Q 87.70 100.03 86.64 95.22
  Q 87.03 94.61 88.36 95.60
  Z"
/>
<path fill="#f4f8fc" d="
  M 133.62 96.05
  Q 132.97 100.40 134.51 104.03
  Q 134.82 105.38 135.50 105.65
  Q 135.54 106.29 136.04 106.78
  Q 136.20 107.22 136.08 107.51
  Q 135.86 108.07 135.30 107.87
  C 132.02 106.74 131.66 100.73 132.02 98.00
  Q 132.44 94.73 133.62 96.05
  Z"
/>
<path fill="#328049" d="
  M 68.40 104.59
  C 68.15 101.42 71.66 99.35 74.02 101.93
  A 1.43 1.43 0.0 0 0 76.21 101.83
  L 77.62 99.97
  A 1.39 1.39 0.0 0 1 79.30 99.55
  C 81.11 100.37 84.25 102.32 84.24 104.61
  C 84.23 108.41 76.03 108.59 73.03 108.20
  C 70.49 107.88 68.57 108.40 67.30 105.50
  A 0.45 0.44 -11.1 0 1 67.72 104.88
  Q 67.92 104.88 68.09 104.89
  Q 68.43 104.92 68.40 104.59
  Z"
/>
<path fill="#b4aa8a" d="
  M 56.35 103.42
  Q 55.41 106.54 55.72 110.94
  Q 54.47 109.85 53.82 110.02
  A 0.25 0.24 -32.0 0 0 53.72 110.44
  L 56.72 113.06
  Q 55.14 112.81 55.15 114.38
  Q 55.19 119.43 57.02 127.61
  C 52.06 121.95 51.94 107.89 55.16 101.00
  Q 55.46 100.34 55.76 101.00
  Q 56.36 102.34 56.35 103.42
  Z"
/>
<path fill="#328049" d="
  M 135.50 105.65
  Q 134.82 105.38 134.51 104.03
  L 134.72 104.22
  Q 134.85 104.34 134.98 104.23
  Q 135.27 103.98 135.56 103.68
  Q 135.61 103.64 135.65 103.69
  Q 136.05 104.18 136.72 104.24
  Q 137.08 104.28 137.10 103.92
  C 137.20 102.50 139.06 101.93 140.40 101.44
  Q 140.92 101.24 141.37 101.58
  L 142.84 102.68
  Q 143.43 103.12 144.08 102.76
  Q 145.29 102.08 146.20 101.03
  A 0.81 0.81 0.0 0 1 147.10 100.80
  L 149.45 101.70
  Q 149.91 101.88 150.04 102.36
  Q 150.47 103.95 149.55 105.21
  Q 149.21 105.67 149.74 105.88
  Q 149.90 105.95 150.06 106.03
  A 0.30 0.30 0.0 0 1 150.07 106.55
  Q 149.73 106.75 149.64 107.08
  Q 149.48 107.66 148.89 107.74
  Q 144.58 108.31 141.24 108.09
  Q 138.10 107.88 135.50 105.65
  Z"
/>
<path fill="#808086" d="
  M 166.89 100.96
  Q 167.29 103.94 166.14 105.48
  L 166.28 103.27
  L 166.89 100.96
  Z"
/>
<path fill="#060706" d="
  M 38.02 137.00
  Q 37.29 131.63 33.71 127.77
  C 29.70 123.43 26.95 117.92 26.99 112.06
  Q 27.00 110.69 26.81 109.61
  Q 26.62 108.50 25.73 109.18
  Q 22.99 111.23 21.90 114.03
  Q 21.39 115.33 21.83 117.23
  C 22.74 121.17 23.19 123.92 25.86 128.17
  Q 27.47 130.72 29.32 133.08
  Q 29.37 133.13 29.30 133.14
  Q 29.27 133.15 29.23 133.15
  Q 29.10 133.16 29.00 133.06
  C 22.83 127.11 14.62 112.74 26.55 108.05
  A 0.55 0.54 -5.6 0 0 26.87 107.67
  L 27.53 104.32
  A 0.20 0.19 88.2 0 0 27.29 104.09
  C 18.87 106.16 16.64 116.37 19.63 123.43
  C 21.74 128.43 27.79 140.08 34.80 138.44
  Q 36.42 138.06 38.32 137.24
  Q 37.43 139.11 35.12 139.71
  C 27.63 141.64 20.86 128.94 18.43 123.51
  C 14.81 115.44 18.80 106.32 26.78 102.99
  A 1.26 1.26 0.0 0 1 28.51 104.33
  C 27.67 110.35 27.79 116.79 31.02 122.30
  C 33.48 126.52 37.60 129.54 38.68 135.72
  Q 38.86 136.77 38.02 137.00
  Z"
/>
<path fill="#f2e7ba" d="
  M 38.02 137.00
  Q 38.17 137.12 38.32 137.24
  Q 36.42 138.06 34.80 138.44
  C 27.79 140.08 21.74 128.43 19.63 123.43
  C 16.64 116.37 18.87 106.16 27.29 104.09
  A 0.20 0.19 88.2 0 1 27.53 104.32
  L 26.87 107.67
  A 0.55 0.54 -5.6 0 1 26.55 108.05
  C 14.62 112.74 22.83 127.11 29.00 133.06
  Q 29.10 133.16 29.23 133.15
  Q 29.27 133.15 29.30 133.14
  Q 29.37 133.13 29.32 133.08
  Q 27.47 130.72 25.86 128.17
  C 23.19 123.92 22.74 121.17 21.83 117.23
  Q 21.39 115.33 21.90 114.03
  Q 22.99 111.23 25.73 109.18
  Q 26.62 108.50 26.81 109.61
  Q 27.00 110.69 26.99 112.06
  C 26.95 117.92 29.70 123.43 33.71 127.77
  Q 37.29 131.63 38.02 137.00
  Z"
/>
<rect fill="#060706" x="-0.48" y="-2.82" transform="translate(63.09,111.07) rotate(-43.1)" width="0.96" height="5.64" rx="0.45"/>
<path fill="#060706" d="
  M 67.07 113.31
  Q 66.29 111.70 64.95 110.49
  Q 64.73 110.29 64.86 110.01
  A 0.44 0.44 0.0 0 1 65.51 109.82
  Q 67.22 110.95 67.86 112.93
  Q 67.95 113.22 67.66 113.31
  L 67.33 113.42
  Q 67.15 113.48 67.07 113.31
  Z"
/>
<path fill="#060706" d="
  M 55.72 110.94
  Q 58.87 113.72 56.72 113.06
  L 53.72 110.44
  A 0.25 0.24 -32.0 0 1 53.82 110.02
  Q 54.47 109.85 55.72 110.94
  Z"
/>
<path fill="#060706" d="
  M 59.33 111.69
  C 59.04 111.24 58.58 111.06 58.26 110.60
  Q 58.06 110.31 58.20 110.14
  Q 58.28 110.05 58.42 110.00
  Q 58.72 109.92 58.97 110.11
  Q 60.37 111.19 60.85 111.88
  Q 62.76 114.65 60.01 112.71
  Q 59.95 112.66 59.33 111.69
  Z"
/>
<rect fill="#5f1d22" x="-2.99" y="-0.55" transform="translate(156.86,112.11) rotate(41.3)" width="5.98" height="1.10" rx="0.52"/>
<path fill="#5f1d22" d="
  M 158.46 110.32
  A 0.13 0.13 0.0 0 1 158.47 110.13
  L 158.52 110.09
  A 2.56 1.07 48.1 0 1 161.03 111.29
  L 161.37 111.67
  A 2.56 1.07 48.1 0 1 162.29 114.29
  L 162.24 114.33
  A 0.13 0.13 0.0 0 1 162.06 114.32
  L 158.46 110.32
  Z"
/>
<path fill="#353130" d="
  M 68.94 112.22
  L 68.12 110.66
  Q 67.74 109.93 68.50 110.25
  Q 70.02 110.89 70.07 111.91
  Q 70.19 114.63 68.94 112.22
  Z"
/>
<ellipse fill="#5f1d22" cx="0.00" cy="0.00" transform="translate(153.66,112.18) rotate(45.6)" rx="2.37" ry="0.61"/>
<ellipse fill="#352217" cx="0.00" cy="0.00" transform="translate(73.02,112.06) rotate(33.2)" rx="1.79" ry="0.50"/>
<ellipse fill="#5f1d22" cx="0.00" cy="0.00" transform="translate(149.99,112.43) rotate(41.5)" rx="2.27" ry="0.62"/>
<path fill="#808086" d="
  M 5.58 116.05
  L 3.56 111.91
  Q 4.82 112.91 5.54 114.23
  Q 6.07 115.20 5.58 116.05
  Z"
/>
<path fill="#808086" d="
  M 143.88 112.07
  A 0.81 0.67 53.4 0 1 143.80 113.55
  Q 142.95 113.37 142.56 112.82
  Q 142.11 112.18 142.88 112.03
  Q 143.38 111.93 143.88 112.07
  Z"
/>
<ellipse fill="#5f1d22" cx="0.00" cy="0.00" transform="translate(147.43,113.14) rotate(31.1)" rx="1.89" ry="0.54"/>
<path fill="#b4aa8a" d="
  M 49.42 123.33
  Q 51.21 132.16 55.70 141.83
  Q 46.67 132.13 46.74 118.32
  Q 46.74 117.88 47.00 118.24
  Q 49.01 121.00 49.42 123.33
  Z"
/>
<path fill="#060706" d="
  M 111.32 145.58
  C 106.88 148.52 100.75 148.12 96.99 144.21
  C 92.61 139.64 92.69 133.60 93.07 127.62
  A 1.17 1.17 0.0 0 1 94.41 126.54
  Q 109.48 128.72 124.71 128.44
  Q 125.04 128.43 124.91 128.74
  Q 120.40 139.58 111.32 145.58
  Z
  M 118.45 129.72
  L 94.61 128.35
  Q 94.24 128.33 94.15 128.69
  C 92.58 135.34 94.61 144.11 101.74 146.45
  C 108.67 148.72 115.61 142.31 119.51 136.73
  Q 121.84 133.39 118.89 129.94
  A 0.68 0.65 70.3 0 0 118.45 129.72
  Z"
/>
<path fill="#ce6550" d="
  M 94.61 128.35
  L 118.45 129.72
  A 0.68 0.65 70.3 0 1 118.89 129.94
  Q 121.84 133.39 119.51 136.73
  C 115.61 142.31 108.67 148.72 101.74 146.45
  C 94.61 144.11 92.58 135.34 94.15 128.69
  Q 94.24 128.33 94.61 128.35
  Z"
/>
<path fill="#b4aa8a" d="
  M 5.54 150.07
  L 5.00 134.21
  Q 5.15 134.06 5.31 134.11
  Q 5.64 134.20 5.63 134.54
  L 5.54 150.07
  Z"
/>
<path fill="#dcd2a9" d="
  M 47.51 148.42
  L 51.06 149.99
  Q 49.72 150.11 50.56 151.54
  A 3.11 3.05 86.4 0 0 51.95 152.79
  Q 53.24 153.37 54.61 154.62
  Q 66.78 165.81 81.74 168.74
  Q 97.75 171.88 109.00 170.51
  C 117.29 169.50 125.68 168.97 133.70 166.52
  C 137.11 165.47 140.16 163.66 143.40 162.08
  C 144.75 161.42 145.88 160.18 147.39 159.44
  Q 148.35 158.97 148.92 158.35
  Q 153.79 152.99 159.77 148.71
  C 148.84 168.54 127.88 172.72 107.24 174.55
  C 86.93 176.35 65.98 172.11 52.02 156.59
  C 51.25 155.73 50.84 154.27 49.61 153.42
  Q 49.18 153.12 49.01 152.64
  L 47.51 148.42
  Z"
/>
<path fill="#353130" d="
  M 6.20 156.32
  Q 7.58 157.81 6.63 159.07
  Q 5.93 157.91 6.20 156.32
  Z"
/>
<path fill="#808086" d="
  M 46.64 167.01
  Q 45.49 166.97 44.99 167.46
  Q 43.88 167.37 43.36 166.78
  Q 42.96 166.33 43.54 166.17
  Q 45.11 165.74 46.64 167.01
  Z"
/>
<path fill="#353130" d="
  M 16.14 167.50
  Q 17.01 168.68 16.94 170.08
  Q 15.47 169.07 16.14 167.50
  Z"
/>
<path fill="#353130" d="
  M 13.41 169.99
  Q 14.51 169.67 15.23 170.72
  Q 15.51 171.13 16.00 171.06
  L 16.98 170.92
  Q 17.03 171.18 16.97 171.36
  Q 16.81 171.87 16.31 171.70
  Q 14.71 171.14 13.41 169.99
  Z"
/>
<path fill="#808086" d="
  M 156.24 170.42
  Q 153.51 171.12 150.53 170.39
  L 156.24 170.42
  Z"
/>
</svg>
