<?xml version="1.0" standalone="no"?>
<!DOCTYPE svg PUBLIC "-//W3C//DTD SVG 20010904//EN"
 "http://www.w3.org/TR/2001/REC-SVG-20010904/DTD/svg10.dtd">
<svg version="1.0" xmlns="http://www.w3.org/2000/svg"
 width="2048.000000pt" height="2048.000000pt" viewBox="0 0 2048.000000 2048.000000"
 preserveAspectRatio="xMidYMid meet">
<metadata>
Created by potrace 1.14, written by Peter Selinger 2001-2017
</metadata>
<g transform="translate(0.000000,2048.000000) scale(0.100000,-0.100000)"
fill="#000000" stroke="none">
<path d="M8745 20449 c-82 -16 -241 -45 -352 -64 -111 -19 -228 -41 -260 -49
-32 -8 -114 -27 -183 -41 -201 -42 -613 -154 -870 -237 -1345 -435 -2536
-1106 -3610 -2031 -367 -317 -825 -781 -1126 -1142 -554 -664 -968 -1294
-1338 -2035 -157 -316 -228 -474 -353 -784 -225 -558 -464 -1379 -549 -1880
-14 -83 -30 -171 -35 -196 -6 -25 -23 -123 -40 -219 -29 -173 -29 -175 -27
-560 1 -262 3 -351 8 -276 23 363 22 346 38 340 12 -4 14 2 9 39 -6 39 19 287
54 554 10 73 16 92 27 87 11 -4 13 1 8 19 -3 14 10 118 29 233 19 114 35 212
35 217 0 4 7 5 16 2 12 -5 15 -2 10 11 -4 9 8 86 25 170 26 123 35 153 47 148
11 -4 13 0 9 17 -8 30 64 330 77 325 6 -3 11 8 12 23 1 15 16 82 34 149 25 91
37 121 47 117 8 -4 11 -1 7 5 -10 17 68 270 83 265 7 -3 10 1 7 9 -9 24 68
246 84 240 7 -2 10 0 7 5 -3 6 10 55 29 111 20 56 36 104 36 106 0 3 7 2 16
-1 12 -5 15 -2 10 10 -10 25 65 216 82 209 7 -3 10 0 7 5 -4 6 10 53 31 106
27 67 42 93 51 89 8 -2 12 -1 9 4 -3 4 3 30 13 57 45 116 54 135 68 130 8 -3
12 -2 8 3 -9 16 59 161 73 156 7 -3 11 -1 7 4 -6 10 65 174 78 179 4 2 24 38
43 79 27 55 40 73 51 69 11 -4 13 -2 9 9 -8 23 63 157 81 151 8 -3 11 -1 8 4
-7 11 58 144 81 167 7 8 28 41 45 74 20 37 37 58 45 55 7 -3 11 0 8 8 -7 18
67 138 82 132 7 -3 11 0 8 7 -7 19 68 138 84 132 7 -3 10 0 6 6 -3 6 8 30 25
54 17 24 31 48 31 54 0 5 6 14 13 18 8 4 31 35 52 68 21 33 43 64 50 70 6 5
24 29 39 53 17 27 33 42 41 38 9 -3 12 0 8 9 -3 8 8 32 24 52 16 21 33 46 36
56 4 9 11 17 16 17 5 0 25 25 46 55 20 30 39 55 44 55 4 0 19 20 35 44 15 24
37 53 49 64 12 11 37 41 56 67 19 26 40 44 47 41 8 -3 11 0 8 9 -3 7 11 31 30
53 20 22 36 42 36 46 0 4 16 20 35 37 19 17 35 37 35 43 0 7 18 27 40 45 22
17 40 37 40 43 0 7 21 33 48 59 26 26 89 91 141 145 170 180 297 308 411 414
62 58 142 133 178 168 37 34 69 62 72 62 3 0 21 16 40 35 19 19 38 35 42 35 5
0 22 16 39 35 17 19 37 35 44 35 7 0 25 16 39 35 15 19 33 35 40 35 7 0 21 9
31 20 10 12 24 19 31 16 8 -3 11 0 8 8 -3 8 16 28 45 50 28 20 51 40 51 46 0
5 5 10 11 10 6 0 30 16 53 35 24 19 48 35 53 35 6 0 13 6 16 14 3 7 28 28 56
46 28 19 51 37 51 41 0 4 29 25 65 48 36 22 65 45 65 51 0 5 5 10 12 10 6 0
19 6 27 14 27 23 92 57 101 51 4 -2 7 3 6 11 0 10 16 26 38 39 22 12 50 32 63
43 12 11 26 22 30 24 32 14 123 71 123 77 0 4 20 18 46 31 25 13 55 33 68 44
24 22 63 45 129 78 20 10 37 22 37 27 0 5 12 14 28 20 15 6 47 22 72 36 25 14
50 23 57 21 7 -3 10 1 7 9 -7 17 129 87 151 79 11 -4 13 -2 9 9 -4 11 17 26
83 59 48 23 90 46 93 49 12 16 154 80 166 75 8 -3 11 0 8 8 -6 15 159 92 175
81 7 -3 8 0 5 9 -3 9 -4 16 -2 16 2 0 41 15 87 34 45 19 89 32 97 29 9 -3 12
0 9 9 -4 10 6 20 32 30 118 49 146 59 158 54 9 -3 12 0 9 8 -3 9 10 19 38 29
24 9 68 25 98 36 30 12 60 19 67 17 7 -3 10 1 7 7 -5 15 209 93 225 82 6 -3 9
0 5 8 -4 10 28 25 126 56 71 23 135 39 140 36 5 -3 7 0 5 7 -4 10 30 24 125
51 72 21 135 35 140 32 6 -3 7 1 4 9 -3 9 -3 16 1 16 4 0 68 16 141 35 74 19
140 32 149 29 10 -4 13 -2 10 8 -4 11 30 23 154 52 88 21 165 35 171 31 5 -3
8 0 5 7 -4 10 40 23 177 50 101 21 193 35 206 32 17 -5 21 -3 17 8 -6 16 -3
17 293 64 85 13 165 21 178 18 19 -5 23 -3 19 8 -5 12 27 19 177 37 314 37
465 50 523 44 49 -5 55 -4 49 11 -5 14 3 16 52 17 33 1 109 5 169 9 70 4 -38
7 -300 7 l-410 1 -150 -29z"/>
<path d="M10958 20467 c149 -8 172 -12 167 -25 -5 -12 2 -14 44 -9 48 6 277
-14 559 -49 115 -14 142 -21 137 -32 -4 -11 1 -13 22 -9 16 4 128 -10 251 -30
182 -29 222 -39 217 -51 -4 -11 0 -13 18 -8 12 3 99 -10 192 -29 94 -19 174
-35 179 -35 4 0 5 -7 2 -16 -5 -12 -2 -15 11 -10 10 4 89 -10 176 -31 118 -28
156 -41 152 -51 -3 -9 1 -12 13 -8 9 3 58 -6 107 -19 50 -14 112 -30 138 -37
35 -8 46 -16 42 -26 -4 -10 0 -12 11 -8 10 4 38 0 63 -8 25 -8 79 -24 119 -36
53 -15 72 -25 68 -35 -3 -9 0 -12 9 -9 22 9 277 -77 271 -91 -2 -8 6 -12 22
-12 15 0 69 -15 120 -33 67 -24 91 -37 88 -47 -3 -8 -1 -11 4 -8 5 3 55 -11
110 -31 75 -28 99 -41 95 -52 -3 -10 0 -12 10 -8 15 5 194 -61 206 -76 7 -10
163 -78 178 -78 6 0 11 -4 11 -8 0 -5 39 -26 88 -48 48 -21 95 -45 104 -54 9
-8 47 -28 85 -45 37 -16 73 -34 79 -40 6 -6 48 -28 92 -50 53 -26 80 -45 77
-53 -3 -7 -1 -10 4 -7 16 9 153 -66 147 -81 -3 -8 0 -11 9 -8 7 3 30 -5 52
-18 21 -13 51 -29 66 -36 20 -8 27 -17 23 -28 -3 -9 -2 -12 4 -9 6 4 30 -3 53
-16 23 -12 55 -29 70 -37 18 -9 26 -19 23 -29 -3 -8 -2 -12 3 -9 8 5 65 -21
119 -55 12 -8 20 -20 17 -27 -3 -7 0 -10 6 -7 5 4 28 -5 49 -19 22 -14 43 -26
47 -26 5 0 26 -16 47 -35 22 -19 45 -35 51 -35 6 0 25 -13 42 -29 18 -16 36
-31 40 -33 44 -20 113 -74 109 -85 -3 -8 -2 -11 4 -8 9 6 105 -52 134 -80 9
-9 39 -32 67 -51 27 -19 59 -44 69 -54 11 -11 37 -31 60 -45 22 -14 40 -29 40
-33 0 -4 21 -21 46 -37 26 -16 53 -40 61 -52 9 -13 20 -23 27 -23 21 -1 88
-68 80 -81 -4 -8 -3 -10 5 -5 11 7 66 -32 125 -88 12 -12 51 -46 87 -76 35
-30 82 -74 104 -97 23 -24 44 -43 49 -43 4 0 130 -123 279 -274 246 -247 312
-317 434 -454 21 -24 54 -60 74 -81 20 -20 40 -45 45 -53 10 -19 82 -104 132
-156 17 -19 32 -36 32 -38 0 -6 64 -88 89 -115 12 -13 31 -39 42 -56 12 -18
24 -33 28 -33 4 0 24 -27 45 -60 21 -33 42 -60 46 -60 5 0 20 -21 35 -46 15
-25 34 -54 44 -63 24 -25 81 -110 81 -121 0 -5 6 -13 13 -17 8 -4 31 -35 52
-68 21 -33 44 -64 51 -68 8 -4 14 -13 14 -18 0 -6 14 -30 30 -54 17 -24 30
-48 30 -53 0 -6 6 -12 14 -15 7 -3 24 -27 36 -53 13 -26 31 -55 40 -64 10 -10
24 -30 32 -46 50 -94 59 -108 66 -113 19 -12 81 -141 76 -156 -5 -11 -2 -13 9
-9 12 4 24 -10 47 -56 17 -33 28 -65 25 -70 -3 -6 0 -7 8 -4 10 3 24 -16 46
-61 17 -36 31 -70 31 -75 0 -5 6 -13 14 -17 20 -11 86 -160 79 -178 -4 -11 -1
-13 11 -9 12 5 24 -12 51 -72 20 -43 33 -84 31 -90 -3 -7 0 -11 7 -8 14 5 92
-170 82 -186 -3 -5 0 -7 8 -4 10 3 23 -18 47 -77 18 -45 33 -92 34 -104 0 -12
6 -21 12 -18 6 2 17 -11 24 -29 6 -18 18 -49 25 -68 8 -19 17 -45 20 -57 4
-13 12 -29 19 -35 18 -19 89 -225 81 -238 -3 -5 0 -7 7 -5 10 4 25 -27 52
-109 21 -63 35 -119 32 -125 -4 -6 -1 -9 6 -6 16 6 82 -194 72 -219 -4 -11 -2
-15 8 -11 11 5 18 -7 28 -42 7 -26 23 -84 36 -128 13 -44 21 -91 17 -103 -4
-18 -2 -21 11 -16 9 3 16 4 16 0 0 -3 16 -69 36 -147 19 -78 33 -147 30 -155
-3 -7 0 -11 7 -8 15 5 91 -333 81 -359 -4 -12 -2 -16 8 -12 12 5 21 -31 48
-182 19 -103 34 -207 34 -230 -1 -28 3 -40 11 -37 13 5 21 -41 60 -348 13
-103 21 -205 18 -228 -5 -34 -3 -39 11 -34 13 5 16 -1 17 -32 0 -22 7 -100 14
-174 l12 -135 2 323 c0 180 -3 342 -9 365 -5 23 -32 161 -60 307 -124 651
-267 1168 -485 1755 -382 1027 -966 2044 -1657 2887 -386 470 -935 1024 -1407
1418 -821 686 -1808 1269 -2821 1667 -428 168 -995 345 -1405 438 -60 14 -168
38 -240 55 -71 16 -211 43 -310 60 -99 16 -252 44 -340 60 l-160 30 -400 -2
c-379 -1 -391 -2 -227 -11z"/>
<path d="M9532 19453 c-42 -3 -65 -9 -68 -18 -4 -9 -15 -12 -33 -9 -14 3 -94
-2 -176 -11 -83 -9 -179 -18 -215 -21 -99 -6 -233 -24 -255 -34 -20 -9 -216
-44 -305 -55 -86 -9 -122 -17 -148 -31 -15 -8 -35 -14 -44 -14 -10 0 -57 -9
-105 -21 -48 -11 -108 -23 -133 -26 -25 -2 -50 -9 -55 -13 -6 -5 -57 -20 -115
-35 -178 -44 -612 -175 -700 -212 -8 -3 -63 -22 -121 -42 -59 -20 -113 -41
-120 -47 -8 -6 -41 -18 -74 -28 -33 -10 -87 -31 -120 -47 -33 -15 -89 -39
-125 -53 -36 -14 -87 -37 -115 -50 -27 -14 -56 -26 -63 -26 -8 0 -48 -18 -90
-39 -42 -22 -160 -81 -262 -131 -102 -51 -215 -110 -252 -131 -36 -22 -71 -39
-76 -39 -5 0 -20 -9 -34 -19 -13 -11 -52 -33 -86 -51 -34 -17 -85 -47 -114
-67 -29 -19 -62 -39 -73 -45 -11 -5 -38 -20 -60 -33 -22 -13 -53 -32 -70 -41
-16 -9 -46 -30 -65 -45 -19 -16 -38 -29 -42 -29 -8 0 -168 -107 -208 -139 -14
-11 -30 -21 -36 -21 -5 0 -23 -13 -39 -30 -16 -16 -34 -30 -41 -30 -7 0 -37
-19 -66 -43 -29 -23 -66 -51 -83 -61 -16 -10 -39 -27 -50 -37 -28 -26 -193
-149 -200 -149 -3 0 -20 -14 -38 -30 -56 -53 -346 -300 -352 -300 -3 0 -24
-19 -48 -42 -23 -24 -94 -90 -157 -148 -118 -108 -249 -240 -392 -393 -46 -49
-102 -108 -125 -131 -24 -23 -43 -47 -43 -53 0 -6 -18 -26 -40 -43 -22 -17
-40 -38 -40 -46 0 -7 -13 -23 -30 -36 -16 -12 -30 -26 -30 -31 0 -4 -39 -53
-88 -109 -48 -55 -96 -113 -107 -128 -25 -35 -61 -80 -103 -129 -17 -21 -32
-42 -32 -47 0 -5 -26 -41 -58 -81 -31 -40 -73 -95 -92 -123 -19 -28 -47 -66
-62 -84 -16 -19 -28 -38 -28 -42 0 -5 -24 -41 -53 -80 -28 -39 -61 -86 -72
-104 -11 -19 -35 -58 -52 -88 -18 -30 -44 -67 -58 -84 -14 -16 -25 -36 -25
-43 0 -7 -11 -26 -24 -42 -13 -15 -38 -57 -56 -93 -18 -36 -36 -66 -41 -68 -5
-2 -23 -34 -41 -70 -17 -37 -38 -74 -45 -83 -17 -20 -50 -82 -137 -259 -37
-74 -75 -146 -84 -160 -9 -14 -29 -56 -44 -94 -16 -37 -37 -80 -48 -94 -11
-13 -20 -32 -20 -42 0 -9 -18 -53 -40 -97 -22 -44 -51 -113 -66 -154 -15 -41
-32 -83 -39 -94 -7 -11 -23 -51 -34 -89 -12 -38 -30 -83 -40 -100 -11 -17 -31
-71 -47 -121 -15 -49 -30 -94 -35 -100 -7 -10 -69 -204 -73 -228 -1 -7 -5 -17
-8 -23 -11 -17 -35 -91 -57 -177 -11 -43 -22 -81 -25 -86 -7 -11 -90 -328
-121 -466 -15 -66 -31 -125 -36 -130 -4 -6 -12 -44 -18 -85 -15 -122 -52 -324
-61 -335 -4 -5 -13 -59 -20 -120 -6 -60 -21 -185 -32 -277 -10 -92 -18 -176
-16 -186 2 -10 -2 -25 -8 -33 -24 -29 -34 -314 -34 -919 0 -571 10 -877 30
-925 4 -11 18 -108 29 -215 35 -317 44 -384 52 -395 4 -6 12 -38 18 -70 6 -33
15 -87 21 -120 6 -33 15 -93 20 -134 5 -41 14 -79 18 -85 5 -6 14 -38 22 -71
26 -121 113 -463 142 -560 53 -178 69 -230 78 -250 4 -11 18 -56 30 -100 13
-44 26 -87 30 -95 22 -44 41 -92 58 -150 11 -36 31 -87 45 -115 14 -27 28 -66
32 -85 4 -19 22 -66 40 -105 18 -38 40 -90 48 -115 9 -25 31 -78 51 -117 20
-40 36 -76 36 -81 0 -5 23 -55 50 -110 28 -56 50 -108 50 -116 0 -8 5 -18 11
-21 6 -4 39 -64 73 -134 82 -164 145 -282 160 -301 7 -8 26 -42 41 -75 16 -33
38 -71 48 -85 25 -33 83 -132 119 -200 16 -30 35 -59 42 -65 7 -5 28 -38 46
-72 17 -35 35 -63 39 -63 4 0 20 -24 36 -52 15 -29 34 -60 42 -68 20 -23 83
-110 112 -155 14 -22 46 -66 71 -99 25 -32 54 -71 65 -87 11 -15 62 -83 113
-151 87 -117 125 -163 182 -227 14 -15 48 -54 75 -87 192 -226 643 -705 675
-716 5 -2 42 -34 82 -71 87 -82 68 -65 203 -185 154 -137 330 -282 344 -282 6
0 14 -7 17 -15 3 -8 25 -27 49 -43 42 -28 60 -41 156 -121 26 -21 63 -48 84
-61 20 -13 49 -34 63 -46 14 -13 30 -24 36 -24 10 0 135 -88 184 -129 12 -11
42 -30 67 -42 25 -12 45 -26 45 -31 0 -5 11 -13 24 -17 13 -5 49 -27 81 -48
32 -21 76 -49 99 -62 23 -12 59 -35 81 -49 22 -15 51 -33 65 -40 14 -7 84 -46
155 -86 165 -93 192 -108 290 -156 44 -22 87 -44 95 -50 8 -6 44 -24 80 -40
36 -17 85 -42 110 -55 25 -13 52 -24 61 -24 9 -1 31 -11 50 -24 19 -12 70 -36
114 -52 44 -15 91 -37 104 -47 13 -10 49 -26 80 -34 31 -9 85 -30 121 -47 36
-16 92 -38 125 -47 33 -10 83 -29 110 -43 28 -14 82 -33 120 -43 39 -9 84 -24
100 -34 17 -9 68 -27 115 -39 47 -12 99 -28 115 -36 73 -32 585 -166 830 -215
83 -17 157 -34 165 -37 8 -3 26 -7 40 -8 14 -1 97 -14 185 -29 878 -143 1806
-162 2685 -55 91 11 190 24 220 29 107 19 325 53 346 55 11 1 24 4 30 7 5 4
38 11 74 17 71 13 143 27 205 41 211 49 353 84 420 104 44 13 124 36 178 50
53 15 109 34 125 42 15 7 35 14 44 14 20 0 160 44 203 64 17 8 44 17 60 21 51
11 149 48 166 62 8 7 20 13 25 13 21 0 180 54 195 67 9 7 47 24 85 37 38 13
92 35 119 49 47 24 115 51 160 64 11 3 27 11 35 18 8 7 40 23 70 35 30 12 66
28 80 35 14 8 54 28 90 44 36 17 72 35 80 41 8 5 47 26 85 45 39 20 105 55
148 78 42 23 105 57 140 75 34 19 69 40 77 46 8 7 29 20 45 28 61 30 125 66
153 87 17 11 35 21 41 21 6 0 25 12 43 27 33 28 59 45 109 70 15 7 33 20 40
29 7 8 27 21 45 29 18 7 41 22 51 32 22 21 99 73 110 73 4 0 19 12 34 26 14
14 40 33 57 42 17 9 79 54 139 99 59 45 124 93 143 107 74 55 242 188 294 233
30 27 76 66 102 88 26 22 64 54 83 71 20 18 68 60 106 94 87 76 232 213 322
303 162 162 273 278 273 286 0 4 17 24 38 43 20 20 57 59 82 88 25 28 60 68
77 88 49 55 222 264 268 323 22 28 47 58 55 67 9 10 28 35 43 57 31 45 53 75
117 159 25 32 53 73 64 90 10 17 27 37 37 44 10 7 19 19 19 25 0 12 105 172
139 212 9 11 27 39 39 62 26 48 82 135 110 173 11 14 36 58 56 97 21 40 41 75
46 78 5 3 15 18 23 33 8 15 38 70 67 122 29 52 68 127 87 165 19 39 41 77 48
85 7 8 25 44 40 80 16 36 34 72 41 80 8 9 25 47 39 85 15 39 33 77 40 85 7 8
25 47 39 85 15 39 35 82 46 96 10 15 26 51 35 82 9 31 24 66 34 79 9 13 30 64
46 113 16 50 35 97 41 105 13 17 64 161 64 182 0 7 9 31 21 52 11 21 29 68 40
105 11 36 26 80 34 96 7 17 19 50 25 75 7 25 27 92 45 150 18 58 45 150 59
205 15 55 31 108 36 117 6 10 10 27 10 38 0 28 59 271 71 293 5 10 14 48 19
85 14 108 51 296 60 307 4 6 13 55 20 110 6 55 18 152 26 215 8 63 17 135 20
160 3 25 9 54 14 65 23 53 30 296 30 1085 0 791 -7 1033 -30 1085 -5 11 -18
99 -30 195 -33 275 -41 331 -50 349 -10 17 -54 251 -65 341 -3 30 -10 59 -14
65 -11 14 -71 266 -71 298 0 14 -4 28 -8 31 -5 3 -17 36 -26 73 -42 159 -183
604 -216 678 -10 22 -30 78 -45 125 -15 47 -31 90 -36 96 -4 5 -21 49 -38 97
-16 47 -38 99 -48 114 -11 15 -28 55 -38 88 -10 33 -26 69 -36 81 -11 11 -19
25 -19 32 0 20 -71 174 -169 367 -28 55 -69 136 -91 180 -23 44 -61 116 -85
160 -25 44 -56 101 -70 127 -13 26 -29 49 -35 53 -6 4 -26 39 -46 78 -19 40
-40 77 -47 82 -14 12 -32 42 -59 98 -10 20 -22 37 -27 37 -5 0 -19 21 -31 46
-12 26 -39 70 -61 99 -21 28 -39 56 -39 62 0 5 -10 18 -21 29 -12 10 -35 43
-51 72 -17 28 -33 52 -38 52 -4 0 -10 8 -14 18 -3 9 -21 37 -41 62 -19 25 -51
68 -70 95 -91 129 -253 332 -355 445 -22 25 -40 48 -40 53 0 4 -20 29 -45 55
-25 26 -59 63 -75 82 -117 136 -629 660 -646 660 -4 0 -23 17 -43 38 -20 20
-63 60 -95 87 -32 28 -66 57 -75 66 -36 34 -316 266 -355 293 -22 16 -42 32
-44 37 -2 4 -27 23 -55 41 -29 18 -59 40 -69 50 -9 9 -40 32 -70 52 -29 20
-66 46 -83 58 -104 79 -143 106 -162 112 -13 4 -23 11 -23 16 0 5 -28 25 -62
46 -35 21 -76 48 -92 61 -15 13 -42 30 -60 37 -17 7 -37 20 -45 29 -7 10 -18
17 -23 17 -5 0 -24 10 -41 23 -44 30 -68 45 -97 59 -14 7 -59 34 -101 60 -42
26 -79 48 -83 48 -5 0 -21 9 -37 21 -16 11 -59 36 -95 54 -37 19 -74 40 -83
48 -9 7 -38 22 -64 31 -26 10 -60 28 -75 40 -15 13 -53 33 -85 44 -31 12 -74
33 -95 46 -20 13 -59 32 -87 42 -27 10 -62 25 -76 35 -14 10 -61 32 -105 49
-43 18 -84 36 -89 40 -6 5 -49 23 -95 40 -46 17 -90 36 -96 41 -7 5 -25 14
-41 19 -15 5 -64 23 -108 40 -75 30 -240 90 -380 138 -86 29 -299 96 -375 117
-36 10 -71 23 -77 28 -9 6 -13 5 -13 -4 0 -10 -3 -10 -8 -3 -4 7 -63 26 -132
43 -69 17 -134 36 -145 41 -11 6 -36 12 -55 15 -19 2 -66 11 -105 20 -38 8
-95 20 -125 26 -30 6 -60 15 -66 20 -6 5 -33 11 -60 15 -93 10 -359 55 -379
64 -24 10 -149 27 -255 35 -41 3 -137 12 -212 21 -76 8 -148 14 -160 12 -13
-2 -28 4 -35 12 -10 13 -102 15 -730 16 -395 1 -746 -1 -781 -3z m-302 -298
c132 -41 185 -44 368 -16 70 11 217 29 327 41 188 20 241 21 900 18 l700 -4
145 -27 c80 -15 208 -45 285 -67 77 -22 226 -58 330 -80 262 -56 382 -91 564
-167 86 -36 201 -83 255 -105 120 -47 531 -234 640 -291 43 -22 122 -70 175
-106 53 -35 179 -117 281 -181 244 -153 501 -339 680 -492 188 -162 240 -212
402 -393 75 -82 162 -175 194 -205 32 -30 68 -67 79 -82 39 -51 161 -202 237
-294 121 -145 179 -239 323 -529 128 -257 177 -378 276 -680 41 -124 55 -200
78 -415 56 -524 24 -968 -96 -1345 -46 -143 -53 -226 -25 -282 20 -38 79 -86
157 -126 45 -22 123 -95 141 -130 l16 -30 -43 34 c-69 55 -124 89 -142 89 -9
0 -38 14 -64 30 -26 17 -57 30 -70 30 -12 0 -28 9 -35 20 -7 11 -19 20 -26 20
-7 0 -22 5 -32 10 -19 10 -19 11 0 60 11 27 22 80 26 117 4 37 13 77 19 88 7
11 18 38 25 60 7 22 16 45 20 50 10 13 66 288 79 390 26 196 43 392 42 477 0
51 -1 154 -1 228 -1 74 -3 129 -6 123 -14 -32 -24 -7 -24 60 -1 119 -32 316
-60 379 -11 26 -25 70 -30 100 -5 29 -32 97 -59 150 -27 54 -45 100 -40 103
19 12 7 52 -41 140 -53 99 -85 162 -168 335 -52 107 -74 143 -159 261 -18 26
-33 52 -33 59 0 8 -28 43 -62 80 -72 75 -123 140 -123 155 0 20 -51 79 -199
229 -82 83 -150 160 -151 170 -1 12 -24 35 -56 56 -30 19 -54 43 -54 52 0 23
-181 196 -345 328 -30 25 -58 50 -62 56 -18 28 -273 208 -333 236 -14 6 -25
16 -25 23 0 9 -107 87 -178 130 -81 48 -161 102 -182 120 -28 27 -138 85 -158
85 -7 0 -11 4 -8 9 9 13 -6 22 -174 106 -85 42 -211 105 -280 140 -108 54
-353 157 -430 180 -14 4 -41 15 -60 25 -51 26 -112 50 -138 55 -12 2 -29 11
-38 19 -8 9 -27 19 -42 22 -15 3 -38 10 -52 15 -50 18 -199 58 -370 99 -96 23
-184 45 -196 50 -11 4 -32 6 -46 3 -16 -3 -50 5 -85 21 -59 26 -189 55 -368
82 -55 8 -122 19 -150 24 -27 5 -351 9 -720 9 -619 1 -680 -1 -805 -19 -74
-11 -157 -20 -183 -20 -27 0 -92 -9 -145 -19 -84 -16 -164 -29 -314 -48 -34
-5 -38 -3 -44 22 -5 21 -20 33 -63 52 -70 32 -145 38 -286 24 -60 -6 -168 -16
-240 -21 -145 -11 -164 -14 -252 -40 -102 -31 -205 -84 -239 -122 -28 -32 -30
-39 -24 -84 4 -27 11 -57 15 -66 5 -13 0 -20 -20 -28 -14 -5 -37 -10 -50 -10
-14 0 -53 -11 -87 -24 -35 -13 -142 -50 -238 -81 -247 -81 -262 -87 -389 -144
-63 -28 -118 -51 -123 -51 -13 0 -231 -107 -348 -170 -58 -32 -121 -66 -140
-77 -42 -22 -70 -40 -175 -110 -44 -29 -88 -53 -97 -53 -21 0 -103 -55 -258
-172 -169 -128 -217 -167 -275 -223 -28 -27 -78 -72 -111 -100 -112 -94 -331
-345 -456 -524 -120 -171 -133 -191 -206 -331 -38 -74 -83 -158 -100 -186 -51
-88 -152 -294 -193 -399 -22 -55 -46 -113 -53 -130 -8 -16 -17 -41 -21 -55 -4
-14 -13 -32 -20 -40 -12 -14 -61 -143 -70 -185 -3 -11 -9 -29 -14 -40 -13 -28
-60 -176 -64 -200 -2 -11 -8 -29 -14 -40 -5 -11 -13 -42 -17 -69 -3 -27 -10
-54 -16 -61 -9 -11 -31 -83 -56 -190 -8 -33 -18 -67 -21 -75 -10 -22 -29 -101
-57 -235 -15 -66 -30 -127 -35 -135 -4 -8 -13 -37 -20 -65 -57 -246 -62 -287
-82 -575 -6 -101 -22 -222 -40 -310 -35 -174 -46 -272 -54 -490 -7 -191 8
-582 29 -720 8 -52 17 -131 21 -175 4 -44 18 -123 31 -175 13 -52 24 -117 24
-145 0 -78 74 -339 106 -376 8 -8 14 -23 14 -31 0 -18 112 -243 133 -267 8 -9
26 -38 40 -64 14 -27 32 -54 41 -60 10 -7 20 -40 26 -85 5 -40 17 -84 26 -97
11 -16 15 -38 11 -62 -2 -21 0 -64 5 -97 5 -35 5 -63 -1 -70 -5 -6 -11 -124
-13 -263 -3 -220 -6 -254 -21 -271 -17 -19 -23 -67 -9 -75 4 -2 2 -3 -4 -1
-13 3 -34 -38 -34 -66 0 -16 7 -20 36 -20 19 0 45 -5 56 -11 55 -30 75 -28
130 7 29 19 85 44 123 55 39 12 133 41 210 66 197 63 243 65 377 19 120 -41
148 -44 172 -17 38 42 38 78 -1 170 -20 47 -41 93 -48 101 -7 8 -18 32 -24 52
-7 21 -16 40 -21 43 -4 3 -11 22 -15 42 -4 21 -11 43 -16 49 -8 10 -28 97 -51
224 -28 155 18 408 104 569 13 24 30 57 38 73 21 38 143 180 176 204 14 10 47
35 73 54 89 69 213 115 225 84 3 -8 -1 -60 -10 -117 -16 -111 -26 -128 -93
-146 -48 -14 -161 -93 -206 -143 -20 -24 -47 -54 -59 -68 -25 -28 -66 -111
-91 -185 -22 -66 -23 -280 -2 -345 8 -25 18 -58 21 -75 15 -67 103 -279 150
-362 23 -41 49 -63 74 -63 22 0 24 3 18 30 -3 17 -17 54 -31 84 -14 29 -25 59
-25 67 0 8 -7 23 -15 33 -8 11 -15 30 -15 43 0 13 -6 34 -14 46 -8 12 -17 38
-21 57 -4 19 -14 44 -21 55 -8 11 -14 31 -14 45 0 14 -9 57 -20 95 -11 38 -20
99 -20 135 0 40 8 88 20 123 11 31 20 61 20 67 0 9 37 77 73 134 49 79 230
214 247 186 4 -7 8 -86 9 -177 1 -90 6 -186 12 -211 5 -26 14 -76 20 -112 5
-36 16 -81 24 -100 8 -19 17 -51 21 -70 3 -19 13 -44 20 -55 8 -11 14 -25 14
-33 0 -39 125 -259 209 -370 31 -40 73 -95 94 -122 21 -28 42 -48 47 -45 6 4
10 0 10 -8 0 -8 9 -22 20 -32 28 -26 42 -9 70 85 63 214 116 248 360 229 238
-18 276 -40 364 -209 63 -124 126 -221 137 -214 14 8 11 59 -16 239 -24 160
-25 171 -10 241 18 88 19 136 3 221 -9 49 -9 66 0 75 9 9 12 6 12 -14 0 -14 9
-37 20 -51 11 -14 20 -30 20 -36 0 -5 8 -15 18 -20 9 -6 13 -11 9 -11 -5 0 2
-14 14 -31 24 -34 17 -34 159 -9 36 7 99 15 140 19 l75 6 6 44 c3 24 0 80 -7
125 -19 118 -28 299 -19 408 l7 96 33 -11 c18 -7 47 -24 64 -39 17 -16 34 -28
39 -28 4 0 24 -16 43 -36 18 -20 45 -42 59 -49 23 -12 29 -11 50 6 l25 18
-105 106 c-101 101 -107 105 -149 105 l-44 0 6 113 c3 65 12 128 22 149 8 21
15 55 15 76 0 21 9 63 20 95 11 31 20 70 20 85 0 30 36 86 49 77 5 -2 11 -23
15 -45 4 -27 25 -66 59 -113 30 -40 56 -80 60 -89 3 -10 11 -18 17 -18 16 0
12 46 -5 60 -8 7 -15 24 -15 39 0 14 -8 40 -17 56 -13 23 -17 58 -17 150 -1
108 1 124 22 160 13 22 38 65 55 95 18 30 44 74 60 97 15 24 27 46 27 50 0 5
9 14 21 21 11 7 18 19 15 27 -3 8 -1 17 4 20 6 4 10 14 10 24 0 10 7 24 15 31
9 7 14 22 13 34 -2 16 3 22 23 24 16 2 29 11 32 21 3 11 18 21 40 25 20 4 37
11 39 16 3 11 112 35 192 43 37 4 45 2 32 -5 -15 -8 -17 -18 -11 -55 5 -32 1
-58 -13 -96 -11 -29 -25 -68 -32 -87 -8 -22 -15 -107 -18 -228 -3 -174 -2
-198 17 -259 12 -36 21 -72 21 -79 0 -13 31 -81 51 -114 5 -8 13 -25 19 -37
12 -29 76 -121 107 -154 13 -14 27 -39 32 -55 6 -24 14 -30 52 -37 109 -20
240 -30 441 -34 179 -3 223 -1 254 12 21 9 66 15 109 15 39 0 107 3 149 7 75
6 77 7 71 30 -4 17 3 36 26 68 18 25 36 45 40 45 4 0 11 9 14 21 4 11 19 40
35 62 103 155 142 351 120 607 -18 209 -28 282 -38 289 -14 9 -25 51 -13 51 6
0 11 -5 11 -10 0 -6 15 -24 34 -40 18 -17 36 -43 39 -60 4 -18 13 -30 22 -30
11 0 15 -12 15 -47 0 -27 7 -56 14 -66 12 -16 14 -15 20 14 9 47 7 104 -4 135
-6 15 -8 30 -4 33 4 3 9 0 11 -6 5 -15 29 -17 37 -4 3 5 -17 32 -44 61 -62 66
-68 83 -35 104 34 22 26 32 -32 41 -82 12 -137 41 -279 147 -156 117 -270 195
-337 233 -20 11 -27 23 -25 38 3 20 12 23 93 33 92 12 235 34 385 60 47 8 157
17 245 20 l160 6 60 -32 c33 -18 83 -47 110 -65 45 -29 80 -48 245 -129 25
-13 54 -27 65 -33 52 -28 114 -53 128 -53 9 0 18 -4 21 -9 3 -4 37 -19 76 -31
62 -20 78 -22 123 -12 29 6 79 14 112 17 114 12 145 31 145 89 0 46 8 39 158
-134 30 -34 30 -34 78 -23 102 24 150 35 171 39 24 4 73 78 73 108 0 20 37 76
50 76 4 0 24 -24 44 -52 64 -94 74 -105 80 -85 3 9 9 25 12 35 4 9 11 69 15
132 10 140 18 198 30 205 13 9 80 -29 114 -64 17 -17 36 -31 43 -31 6 0 12 -4
12 -9 0 -13 109 -94 198 -147 46 -27 99 -58 118 -69 73 -43 115 -65 127 -65 7
0 26 -7 42 -16 51 -27 175 -54 244 -54 96 1 191 38 250 98 18 18 22 29 14 40
-10 16 -14 19 -78 49 -42 21 -105 108 -105 146 0 17 5 19 38 13 20 -3 70 -11
110 -16 40 -5 80 -14 90 -18 9 -5 41 -15 71 -22 29 -7 76 -28 104 -46 28 -19
57 -34 64 -34 8 0 19 -11 25 -25 13 -30 -7 -62 -108 -170 -36 -38 -71 -82 -79
-96 -21 -39 -95 -88 -178 -119 -36 -13 -26 -30 19 -30 41 0 53 -19 30 -52 -9
-13 -16 -43 -16 -70 0 -26 -4 -50 -10 -53 -5 -3 -10 -15 -10 -26 0 -10 5 -19
10 -19 6 0 10 6 10 14 0 8 9 22 21 30 12 8 25 29 29 48 l8 33 1 -42 c1 -38 -2
-43 -20 -43 -21 0 -21 -3 -14 -57 11 -78 11 -93 -4 -205 -9 -68 -9 -108 -2
-135 6 -21 13 -69 17 -108 4 -38 15 -89 25 -112 11 -23 19 -47 19 -52 0 -6 9
-28 20 -48 11 -21 20 -43 20 -50 0 -10 72 -125 90 -143 3 -3 16 -17 29 -32
l23 -27 -31 -19 -31 -19 76 -7 c42 -3 97 -6 121 -6 24 0 55 -7 69 -17 22 -14
67 -17 317 -21 304 -4 501 3 491 19 -3 5 -21 9 -40 9 -36 0 -74 15 -74 28 0 4
12 21 28 38 15 17 40 50 57 75 16 24 33 46 37 49 4 3 12 17 17 30 6 14 15 32
20 40 20 32 60 126 64 150 3 14 12 52 21 85 21 77 22 308 1 423 -8 46 -12 96
-8 113 l5 29 37 -32 c20 -17 39 -40 43 -50 4 -11 12 -17 17 -14 9 6 81 -74
116 -129 39 -61 63 -113 73 -156 6 -24 15 -62 21 -84 23 -89 -2 -290 -47 -372
-14 -26 -16 -63 -3 -63 14 0 68 87 87 139 9 25 23 60 30 78 10 21 14 73 14
165 0 107 -4 146 -21 203 -28 93 -91 221 -131 268 -57 68 -102 113 -122 124
-28 15 -10 33 32 33 20 0 43 4 51 9 14 9 -25 31 -154 84 l-60 24 -3 69 c-4 99
1 114 43 114 19 0 54 -6 77 -14 24 -7 64 -19 90 -25 26 -6 62 -20 81 -31 32
-19 35 -25 41 -84 3 -36 13 -80 21 -100 8 -19 15 -51 15 -70 0 -20 9 -58 20
-85 10 -27 22 -72 26 -100 4 -29 11 -54 17 -58 19 -11 44 35 51 94 7 59 47
207 59 219 7 8 9 -3 36 -186 11 -80 25 -176 31 -215 6 -38 15 -113 21 -165 5
-52 16 -133 24 -180 8 -47 17 -121 20 -165 4 -44 12 -111 20 -150 8 -38 17
-127 20 -198 7 -135 2 -157 -36 -157 -30 0 -23 -36 9 -49 42 -18 62 -59 62
-129 0 -33 7 -97 15 -143 8 -46 17 -140 20 -209 4 -69 13 -171 21 -228 8 -56
14 -143 14 -192 0 -75 3 -93 19 -109 23 -23 22 -87 -8 -356 -25 -232 -66 -439
-121 -620 -66 -218 -80 -256 -131 -357 -11 -20 -19 -44 -19 -53 0 -9 -9 -28
-20 -42 -11 -14 -20 -34 -20 -44 0 -10 -5 -21 -10 -24 -6 -4 -17 -21 -25 -38
-46 -99 -161 -275 -279 -426 -136 -175 -423 -449 -564 -538 -15 -10 -45 -32
-68 -50 -23 -18 -46 -33 -51 -33 -5 0 -18 -9 -28 -20 -10 -11 -24 -20 -30 -20
-7 0 -23 -8 -36 -19 -51 -40 -381 -209 -519 -265 -36 -15 -77 -34 -92 -42 -14
-8 -35 -14 -45 -14 -10 0 -28 -7 -39 -15 -12 -8 -39 -19 -60 -24 -41 -10 -115
-34 -174 -55 -19 -8 -66 -23 -105 -34 -38 -11 -101 -30 -140 -41 -38 -12 -80
-21 -91 -21 -12 0 -37 -6 -55 -14 -19 -8 -61 -17 -94 -21 -33 -4 -71 -12 -85
-17 -14 -5 -61 -16 -105 -23 -44 -8 -105 -18 -135 -24 -115 -21 -318 -50 -390
-56 -41 -3 -92 -10 -114 -16 l-38 -10 33 -25 c31 -23 40 -24 94 -18 33 4 97 7
141 8 56 1 89 7 106 18 14 9 47 20 74 23 27 4 60 12 74 17 14 6 70 12 125 14
55 3 123 11 150 19 28 7 70 16 95 20 25 4 68 13 95 21 28 8 118 32 200 54 83
22 193 56 245 76 52 19 149 55 215 79 182 66 304 117 369 154 50 28 67 32 103
28 24 -2 52 -12 62 -21 10 -9 26 -16 36 -16 11 0 78 33 150 74 71 41 146 77
165 80 31 5 320 36 625 66 55 5 188 19 295 30 107 11 248 25 313 32 113 11
118 13 112 32 -3 12 -11 53 -16 91 -6 39 -17 106 -24 150 -8 44 -17 136 -21
205 -3 69 -10 130 -14 135 -4 6 -10 21 -13 35 -9 38 -12 484 -3 498 4 7 22 12
39 12 66 0 222 37 257 61 59 41 191 164 228 214 l23 30 -16 -40 c-44 -110
-119 -177 -301 -270 -181 -92 -179 -89 -179 -310 0 -111 9 -228 27 -380 26
-209 61 -422 73 -433 2 -3 62 -1 132 5 71 6 138 7 149 2 30 -10 546 -533 561
-567 6 -15 28 -121 48 -237 20 -115 45 -257 56 -314 10 -56 19 -114 19 -126 0
-13 -27 -93 -60 -177 -33 -84 -59 -159 -58 -166 2 -9 58 -31 138 -56 74 -23
144 -47 156 -54 12 -6 77 -102 145 -214 67 -112 155 -255 195 -318 39 -64 74
-125 78 -137 4 -13 -13 -132 -39 -280 -95 -533 -78 -479 -175 -541 -350 -227
-461 -291 -532 -307 -719 -165 -1996 -443 -2013 -439 -63 16 -52 -21 -411
1407 -116 461 -154 601 -138 507 3 -19 51 -237 106 -485 55 -247 100 -464 100
-480 0 -27 -157 -318 -598 -1111 -25 -44 -54 -85 -64 -92 -11 -6 -354 -86
-762 -178 -409 -91 -812 -181 -895 -199 -112 -25 -159 -32 -177 -25 -27 10
-852 654 -902 704 -30 30 -36 49 -167 641 -75 336 -190 851 -256 1145 -65 294
-127 570 -136 612 -20 90 -10 86 -145 63 -74 -13 -93 -14 -113 -3 -14 7 -169
155 -346 328 -177 173 -327 317 -332 318 -11 4 -12 31 6 -426 9 -232 11 -390
6 -400 -21 -39 -50 -52 -162 -72 -270 -47 -343 -60 -347 -65 -2 -2 5 -66 17
-142 12 -76 31 -192 41 -258 10 -66 26 -165 35 -220 10 -55 21 -127 25 -160 8
-56 46 -303 89 -580 11 -66 29 -181 40 -255 28 -179 43 -264 47 -271 3 -6 141
40 309 101 76 28 494 176 545 193 25 8 128 45 228 81 101 36 199 66 219 66 69
0 84 -20 144 -195 20 -60 58 -168 84 -240 26 -71 62 -173 80 -225 19 -52 59
-167 90 -255 31 -88 61 -175 66 -193 20 -66 -16 -113 -105 -142 -34 -10 -119
-40 -191 -65 -71 -26 -218 -77 -325 -115 -253 -89 -525 -184 -725 -255 -88
-31 -205 -72 -260 -91 -55 -20 -156 -55 -225 -79 -138 -48 -408 -143 -599
-211 -69 -24 -142 -47 -163 -50 -47 -8 -84 14 -104 62 -8 19 -16 34 -17 34 -2
0 -43 -13 -92 -29 -423 -135 -553 -177 -710 -226 -99 -31 -198 -62 -220 -70
-22 -7 -101 -32 -175 -55 -74 -23 -160 -50 -190 -60 -225 -75 -443 -140 -468
-140 -34 0 -1110 582 -1152 623 -14 13 -46 67 -72 118 -26 52 -103 200 -171
329 -251 477 -277 529 -277 552 0 28 177 1183 185 1209 4 10 133 130 288 266
l281 246 -209 -6 c-663 -21 -608 -22 -632 2 -13 12 -26 34 -29 48 -5 20 65
244 285 902 160 482 294 891 297 909 6 30 5 32 -22 32 -71 1 -196 73 -301 174
l-63 59 0 -56 c0 -48 -4 -62 -28 -88 -24 -27 -37 -32 -109 -41 l-82 -11 24
-19 c31 -24 33 -36 45 -333 6 -137 12 -286 15 -330 18 -324 18 -374 1 -400
-10 -14 -28 -30 -41 -35 -14 -5 -183 -23 -377 -41 -194 -17 -355 -33 -357 -35
-3 -3 40 -124 65 -179 7 -16 61 -154 119 -305 58 -151 110 -284 115 -295 30
-64 70 -179 70 -203 0 -30 -22 -67 -48 -81 -37 -19 -1141 -253 -1166 -247 -41
10 -63 43 -85 129 -12 45 -42 161 -67 257 -25 96 -65 252 -89 345 -24 94 -71
274 -104 400 -33 127 -78 302 -101 390 -23 88 -60 228 -81 310 -22 83 -58 222
-80 310 l-40 160 7 449 c8 498 7 479 14 486 3 3 13 15 24 27 18 22 18 23 -3
40 -12 10 -36 41 -54 68 -20 32 -41 51 -55 53 -15 2 -88 -38 -227 -128 -113
-72 -229 -142 -258 -155 -64 -30 -138 -33 -189 -7 -47 25 -388 266 -443 314
-51 45 -79 106 -106 231 -26 117 -89 544 -89 600 0 94 24 134 191 324 127 145
139 150 396 169 237 17 283 12 363 -44 30 -21 63 -41 73 -45 19 -7 26 5 46 81
15 55 60 106 114 127 23 9 123 35 222 56 99 22 251 56 338 75 87 19 218 44
290 55 128 19 271 49 597 123 85 20 202 43 260 52 258 41 488 117 465 154 -3
4 3 10 13 12 21 6 54 96 71 193 6 33 12 177 13 320 3 346 -7 390 -147 640 -93
167 -158 311 -191 423 -35 121 -83 429 -95 602 -5 80 -14 197 -20 260 -7 63
-12 264 -12 445 1 285 4 363 26 570 15 132 31 301 37 375 26 340 43 448 94
630 14 47 40 148 60 225 104 417 243 870 321 1040 15 33 56 128 92 210 59 137
96 213 283 570 122 233 336 532 538 753 162 178 575 518 750 619 46 26 134 78
195 114 178 105 335 193 432 241 177 89 503 222 707 289 283 93 295 100 370
219 58 91 114 133 238 175 86 29 165 43 390 65 237 24 317 20 460 -25z m2755
-2806 c11 0 58 2 105 5 57 4 102 2 140 -8 30 -8 89 -17 130 -21 41 -4 87 -14
102 -21 15 -8 41 -14 58 -14 17 0 48 -9 70 -20 22 -11 49 -20 61 -20 11 0 32
-9 46 -20 14 -11 34 -20 43 -20 10 0 23 -7 30 -15 7 -8 18 -15 24 -15 6 0 37
-18 69 -40 31 -22 60 -40 63 -40 28 0 234 -219 234 -249 0 -6 4 -11 9 -11 10
0 27 -27 60 -96 11 -23 24 -45 30 -48 6 -4 11 -17 11 -29 0 -12 9 -35 20 -52
11 -16 20 -43 20 -60 0 -16 8 -43 17 -60 15 -26 17 -63 17 -265 1 -202 -2
-240 -17 -274 -9 -21 -17 -50 -17 -63 0 -14 -23 -72 -51 -130 -41 -84 -64
-118 -120 -174 -38 -38 -79 -74 -92 -79 -12 -6 -29 -14 -37 -19 -53 -31 -129
-43 -240 -38 -113 5 -245 25 -305 45 -16 6 -84 20 -150 33 -139 26 -372 29
-460 4 -27 -7 -79 -16 -115 -20 -35 -4 -82 -14 -104 -21 -63 -23 -283 -19
-375 7 -121 32 -142 45 -231 133 -69 68 -70 69 -104 141 -15 33 -34 73 -42 89
-8 16 -17 50 -21 75 -3 25 -13 54 -22 65 -14 16 -16 55 -16 305 0 249 2 291
18 329 9 23 17 52 17 64 0 11 10 42 21 67 57 123 72 151 80 151 5 0 9 5 9 11
0 6 10 24 23 40 29 39 158 169 167 169 4 0 17 9 30 20 13 11 29 20 36 20 7 0
14 4 16 8 4 11 112 62 130 62 8 0 23 7 35 15 11 8 40 17 64 21 24 4 56 13 70
20 15 7 64 16 110 20 45 4 101 13 123 20 26 9 68 12 116 9 41 -3 84 -6 95 -6z
m-7640 -2749 c-16 -108 -33 -156 -21 -60 11 86 30 184 33 173 2 -6 -3 -57 -12
-113z m-28 -172 c-3 -8 -6 -5 -6 6 -1 11 2 17 5 13 3 -3 4 -12 1 -19z m5350
-121 c28 -17 90 -59 138 -92 47 -33 112 -77 143 -98 122 -80 115 -74 98 -84
-9 -5 -44 -5 -78 -1 -201 25 -295 29 -553 25 -164 -2 -292 -9 -310 -15 -16 -6
-75 -15 -130 -21 -120 -11 -258 -37 -303 -57 -18 -8 -54 -14 -80 -14 -27 0
-57 -7 -68 -15 -24 -18 -74 -20 -74 -2 0 7 6 22 14 33 8 11 17 37 21 57 4 20
17 47 30 59 22 22 186 79 265 93 19 3 58 12 85 20 51 14 100 25 235 51 41 8
82 17 90 20 8 4 47 12 85 19 196 36 250 47 254 51 2 2 23 4 45 4 29 0 56 -10
93 -33z m-5360 -109 c-2 -24 -4 -7 -4 37 0 44 2 63 4 43 2 -21 2 -57 0 -80z
m57 -118 c-3 -80 -7 -152 -10 -160 -10 -28 -23 11 -17 54 2 23 5 93 5 156 0
63 3 119 6 124 14 24 20 -41 16 -174z m9764 86 c173 -73 296 -101 444 -101 69
0 130 3 134 7 4 5 1 16 -7 25 -23 30 -38 60 -32 67 13 13 76 5 113 -14 22 -11
48 -20 58 -20 28 0 55 -36 69 -89 6 -25 14 -56 18 -68 10 -31 -24 -37 -105
-18 -108 26 -276 45 -450 51 -131 5 -200 2 -335 -14 -93 -11 -177 -22 -185
-23 -19 -5 -15 26 8 55 30 40 185 166 204 166 5 0 34 -11 66 -24z m-9821 -53
c-3 -10 -5 -4 -5 12 0 17 2 24 5 18 2 -7 2 -21 0 -30z m12300 -25 c-3 -8 -6
-5 -6 6 -1 11 2 17 5 13 3 -3 4 -12 1 -19z m-37 -13 c0 -8 -4 -15 -10 -15 -5
0 -10 7 -10 15 0 8 5 15 10 15 6 0 10 -7 10 -15z m30 -34 c-11 -21 -30 -37
-30 -25 0 8 30 44 37 44 2 0 -1 -9 -7 -19z m67 -3 c-3 -8 -6 -5 -6 6 -1 11 2
17 5 13 3 -3 4 -12 1 -19z m-12360 -45 c-3 -10 -5 -4 -5 12 0 17 2 24 5 18 2
-7 2 -21 0 -30z m12343 2 c0 -3 -17 -23 -37 -46 -65 -71 -125 -93 -308 -109
-224 -20 -260 -62 -305 -356 -35 -232 -58 -1285 -31 -1432 31 -163 152 -453
275 -655 43 -71 82 -141 86 -157 l9 -30 -36 28 c-19 15 -59 65 -90 111 -67
102 -197 368 -214 436 -7 28 -18 62 -25 76 -16 32 -42 102 -55 149 -28 100 0
1290 36 1500 8 47 19 118 26 157 6 40 14 75 19 78 4 2 13 25 20 50 7 25 23 56
35 69 22 23 24 24 176 20 187 -4 339 18 339 49 0 7 14 24 32 39 31 26 48 34
48 23z m-12343 -132 c-3 -10 -5 -4 -5 12 0 17 2 24 5 18 2 -7 2 -21 0 -30z
m46 -52 c4 -42 2 -70 -3 -65 -9 9 -13 52 -11 113 2 54 8 33 14 -48z m5719 -20
c60 -25 105 -79 113 -135 13 -85 -17 -136 -99 -170 -53 -22 -86 -20 -150 8
-66 29 -104 82 -113 156 -7 64 30 135 80 149 53 15 123 12 169 -8z m-5755
-113 c-2 -18 -4 -4 -4 32 0 36 2 50 4 33 2 -18 2 -48 0 -65z m10433 43 c19
-10 48 -36 63 -58 24 -34 28 -49 28 -106 0 -83 -21 -118 -86 -143 -50 -19
-106 -15 -167 11 -90 37 -129 190 -68 264 42 50 165 67 230 32z m-10405 -165
c5 -23 8 -27 16 -15 7 12 9 12 10 -1 2 -33 -2 -118 -8 -170 -6 -51 -8 -44 -24
95 -23 196 -22 212 6 91z m4914 -496 c9 -28 8 -31 -19 -45 -21 -11 -36 -12
-54 -5 -32 12 -32 17 1 52 35 36 58 36 72 -2z m4834 -56 c-5 -15 -22 -37 -37
-48 l-28 -21 -19 24 c-27 33 -24 44 17 81 37 32 37 32 57 12 16 -16 18 -25 10
-48z m564 34 c34 -31 30 -72 -8 -100 -17 -13 -35 -33 -40 -46 -18 -48 -88 -41
-104 9 -6 19 12 58 42 87 7 7 13 20 13 29 0 20 29 42 54 43 11 0 30 -10 43
-22z m-4716 -18 c45 -13 74 -52 59 -79 -12 -24 -26 -28 -120 -37 -41 -3 -82
-12 -90 -19 -33 -28 -56 -26 -83 5 -32 36 -34 68 -7 103 17 21 31 27 73 30
106 7 133 7 168 -3z m-544 -36 c8 -22 -16 -72 -50 -100 -66 -55 -119 1 -63 67
14 17 26 35 26 40 0 5 10 13 23 18 25 10 55 -2 64 -25z m4811 -20 c28 -19 28
-44 1 -78 -22 -28 -69 -36 -87 -13 -16 19 -2 65 26 87 30 24 32 24 60 4z
m-4609 -27 c17 -15 7 -94 -16 -119 -43 -47 -99 -2 -87 71 10 64 56 85 103 48z
m4755 -19 c19 -26 20 -67 5 -102 -15 -32 -32 -38 -56 -21 -25 19 -23 113 3
132 24 18 30 17 48 -9z m-309 -119 c28 -21 161 -57 231 -63 76 -6 256 5 300
19 27 8 43 -22 16 -32 -9 -4 -22 -14 -29 -23 -22 -30 -90 -41 -233 -37 -166 6
-220 16 -272 53 -48 34 -83 78 -74 92 6 10 43 5 61 -9z m-4762 -31 c21 -11 72
-24 127 -33 14 -2 43 -9 65 -14 51 -13 226 -14 274 -1 140 37 204 51 208 47
12 -12 -19 -44 -64 -67 l-48 -25 -260 5 -261 5 -42 33 c-57 46 -56 81 1 50z
m-1256 -914 c-3 -3 -12 -4 -19 -1 -8 3 -5 6 6 6 11 1 17 -2 13 -5z m-64 -11
c-13 -2 -33 -2 -45 0 -13 2 -3 4 22 4 25 0 35 -2 23 -4z m-86 -9 c-3 -3 -12
-4 -19 -1 -8 3 -5 6 6 6 11 1 17 -2 13 -5z m-84 -11 c-7 -2 -19 -2 -25 0 -7 3
-2 5 12 5 14 0 19 -2 13 -5z m-56 -9 c-3 -3 -12 -4 -19 -1 -8 3 -5 6 6 6 11 1
17 -2 13 -5z m-137 -37 c0 -2 -17 -19 -37 -38 l-38 -34 34 38 c33 34 41 42 41
34z m-667 -124 c-7 -2 -19 -2 -25 0 -7 3 -2 5 12 5 14 0 19 -2 13 -5z m125 0
c-10 -2 -28 -2 -40 0 -13 2 -5 4 17 4 22 1 32 -1 23 -4z m-171 -9 c-3 -3 -12
-4 -19 -1 -8 3 -5 6 6 6 11 1 17 -2 13 -5z m311 -1 c-10 -2 -28 -2 -40 0 -13
2 -5 4 17 4 22 1 32 -1 23 -4z m304 -25 c-8 -8 -9 -4 -5 13 4 13 8 18 11 10 2
-7 -1 -18 -6 -23z m-174 15 c-10 -2 -26 -2 -35 0 -10 3 -2 5 17 5 19 0 27 -2
18 -5z m-498 -6 c0 -2 -17 -19 -37 -38 l-38 -34 34 38 c33 34 41 42 41 34z
m550 -7 c8 -5 11 -10 5 -10 -5 0 -17 5 -25 10 -8 5 -10 10 -5 10 6 0 17 -5 25
-10z m71 -47 c13 -16 12 -17 -3 -4 -10 7 -18 15 -18 17 0 8 8 3 21 -13z m46
-5 c-3 -8 -6 -5 -6 6 -1 11 2 17 5 13 3 -3 4 -12 1 -19z m16 -71 c4 3 7 4 7 0
0 -18 -21 -14 -30 5 -10 21 -10 21 3 6 8 -10 17 -15 20 -11z m-1530 -34 c-7
-2 -19 -2 -25 0 -7 3 -2 5 12 5 14 0 19 -2 13 -5z m-546 -99 c-3 -3 -12 -4
-19 -1 -8 3 -5 6 6 6 11 1 17 -2 13 -5z m90 0 c-3 -3 -12 -4 -19 -1 -8 3 -5 6
6 6 11 1 17 -2 13 -5z m-194 -31 c-7 -2 -19 -2 -25 0 -7 3 -2 5 12 5 14 0 19
-2 13 -5z m-53 -13 c-8 -5 -19 -10 -25 -10 -5 0 -3 5 5 10 8 5 20 10 25 10 6
0 3 -5 -5 -10z m-53 -16 c-3 -3 -12 -4 -19 -1 -8 3 -5 6 6 6 11 1 17 -2 13 -5z
m-57 -14 c-8 -5 -19 -10 -25 -10 -5 0 -3 5 5 10 8 5 20 10 25 10 6 0 3 -5 -5
-10z m-43 -16 c-3 -3 -12 -4 -19 -1 -8 3 -5 6 6 6 11 1 17 -2 13 -5z m-104
-31 c-7 -2 -19 -2 -25 0 -7 3 -2 5 12 5 14 0 19 -2 13 -5z m-58 -13 c-27 -12
-43 -12 -25 0 8 5 22 9 30 9 10 0 8 -3 -5 -9z m-45 -14 c0 -2 -9 -6 -20 -9
-11 -3 -18 -1 -14 4 5 9 34 13 34 5z m-153 -12 c-3 -3 -12 -4 -19 -1 -8 3 -5
6 6 6 11 1 17 -2 13 -5z m11225 -20 c33 -17 86 -31 152 -40 55 -8 109 -17 120
-20 43 -14 -14 -24 -135 -24 -111 0 -129 -2 -152 -20 -36 -29 -51 -82 -52
-180 0 -75 4 -93 33 -154 47 -100 191 -239 334 -324 58 -34 111 -69 118 -77
11 -13 7 -15 -23 -15 -45 0 -157 56 -227 114 -30 25 -70 58 -89 73 -19 15 -57
55 -84 88 -28 33 -58 63 -67 67 -11 4 -24 33 -38 85 -25 93 -27 113 -18 134 4
8 8 71 9 138 2 102 5 124 19 132 10 5 14 17 11 29 -8 28 25 26 89 -6z m-11132
1 c-14 -17 -36 -20 -44 -6 -4 5 2 7 13 4 10 -3 22 0 25 6 4 6 10 11 13 11 3 0
0 -7 -7 -15z m-283 -1 c-3 -3 -12 -4 -19 -1 -8 3 -5 6 6 6 11 1 17 -2 13 -5z
m-50 -10 c-3 -3 -12 -4 -19 -1 -8 3 -5 6 6 6 11 1 17 -2 13 -5z m-50 -10 c-3
-3 -12 -4 -19 -1 -8 3 -5 6 6 6 11 1 17 -2 13 -5z m-50 -10 c-3 -3 -12 -4 -19
-1 -8 3 -5 6 6 6 11 1 17 -2 13 -5z m-54 -11 c-7 -2 -19 -2 -25 0 -7 3 -2 5
12 5 14 0 19 -2 13 -5z m-98 -23 c-3 -5 -12 -10 -18 -10 -7 0 -6 4 3 10 19 12
23 12 15 0z m-42 -7 c-7 -2 -19 -2 -25 0 -7 3 -2 5 12 5 14 0 19 -2 13 -5z
m-106 -19 c-3 -3 -12 -4 -19 -1 -8 3 -5 6 6 6 11 1 17 -2 13 -5z m-50 -10 c-3
-3 -12 -4 -19 -1 -8 3 -5 6 6 6 11 1 17 -2 13 -5z m-50 -10 c-3 -3 -12 -4 -19
-1 -8 3 -5 6 6 6 11 1 17 -2 13 -5z m-50 -10 c-3 -3 -12 -4 -19 -1 -8 3 -5 6
6 6 11 1 17 -2 13 -5z m-50 -10 c-3 -3 -12 -4 -19 -1 -8 3 -5 6 6 6 11 1 17
-2 13 -5z m-50 -10 c-3 -3 -12 -4 -19 -1 -8 3 -5 6 6 6 11 1 17 -2 13 -5z
m-40 -10 c-3 -3 -12 -4 -19 -1 -8 3 -5 6 6 6 11 1 17 -2 13 -5z m-40 -10 c-3
-3 -12 -4 -19 -1 -8 3 -5 6 6 6 11 1 17 -2 13 -5z m-40 -10 c-3 -3 -12 -4 -19
-1 -8 3 -5 6 6 6 11 1 17 -2 13 -5z m-40 -10 c-3 -3 -12 -4 -19 -1 -8 3 -5 6
6 6 11 1 17 -2 13 -5z m-40 -10 c-3 -3 -12 -4 -19 -1 -8 3 -5 6 6 6 11 1 17
-2 13 -5z m-50 -10 c-3 -3 -12 -4 -19 -1 -8 3 -5 6 6 6 11 1 17 -2 13 -5z
m-50 -10 c-3 -3 -12 -4 -19 -1 -8 3 -5 6 6 6 11 1 17 -2 13 -5z m-50 -10 c-3
-3 -12 -4 -19 -1 -8 3 -5 6 6 6 11 1 17 -2 13 -5z m-50 -10 c-3 -3 -12 -4 -19
-1 -8 3 -5 6 6 6 11 1 17 -2 13 -5z m-50 -10 c-3 -3 -12 -4 -19 -1 -8 3 -5 6
6 6 11 1 17 -2 13 -5z m-62 -14 c-11 -5 -31 -8 -45 -8 -23 0 -22 1 5 8 42 11
65 11 40 0z m-92 -7 c-7 -2 -19 -2 -25 0 -7 3 -2 5 12 5 14 0 19 -2 13 -5z
m-96 -19 c-3 -3 -12 -4 -19 -1 -8 3 -5 6 6 6 11 1 17 -2 13 -5z m-50 -10 c-3
-3 -12 -4 -19 -1 -8 3 -5 6 6 6 11 1 17 -2 13 -5z m-50 -10 c-3 -3 -12 -4 -19
-1 -8 3 -5 6 6 6 11 1 17 -2 13 -5z m-50 -10 c-3 -3 -12 -4 -19 -1 -8 3 -5 6
6 6 11 1 17 -2 13 -5z m-50 -10 c-3 -3 -12 -4 -19 -1 -8 3 -5 6 6 6 11 1 17
-2 13 -5z m-50 -10 c-3 -3 -12 -4 -19 -1 -8 3 -5 6 6 6 11 1 17 -2 13 -5z
m-40 -10 c-3 -3 -12 -4 -19 -1 -8 3 -5 6 6 6 11 1 17 -2 13 -5z m-40 -10 c-3
-3 -12 -4 -19 -1 -8 3 -5 6 6 6 11 1 17 -2 13 -5z m-40 -10 c-3 -3 -12 -4 -19
-1 -8 3 -5 6 6 6 11 1 17 -2 13 -5z m-40 -10 c-3 -3 -12 -4 -19 -1 -8 3 -5 6
6 6 11 1 17 -2 13 -5z m-40 -10 c-3 -3 -12 -4 -19 -1 -8 3 -5 6 6 6 11 1 17
-2 13 -5z m-50 -10 c-3 -3 -12 -4 -19 -1 -8 3 -5 6 6 6 11 1 17 -2 13 -5z
m-50 -10 c-3 -3 -12 -4 -19 -1 -8 3 -5 6 6 6 11 1 17 -2 13 -5z m-50 -10 c-3
-3 -12 -4 -19 -1 -8 3 -5 6 6 6 11 1 17 -2 13 -5z m-50 -10 c-3 -3 -12 -4 -19
-1 -8 3 -5 6 6 6 11 1 17 -2 13 -5z m-50 -10 c-3 -3 -12 -4 -19 -1 -8 3 -5 6
6 6 11 1 17 -2 13 -5z m-107 -29 c0 -2 -10 -9 -22 -15 -22 -11 -22 -10 -4 4
21 17 26 19 26 11z m-307 -92 c-7 -2 -19 -2 -25 0 -7 3 -2 5 12 5 14 0 19 -2
13 -5z m44 1 c-3 -3 -12 -4 -19 -1 -8 3 -5 6 6 6 11 1 17 -2 13 -5z m-159 -11
c-10 -2 -28 -2 -40 0 -13 2 -5 4 17 4 22 1 32 -1 23 -4z m315 -8 c-3 -9 -8
-14 -10 -11 -3 3 -2 9 2 15 9 16 15 13 8 -4z m-455 -2 c-10 -2 -28 -2 -40 0
-13 2 -5 4 17 4 22 1 32 -1 23 -4z m-145 -10 c-13 -2 -33 -2 -45 0 -13 2 -3 4
22 4 25 0 35 -2 23 -4z m-88 -13 c-3 -5 -12 -10 -18 -10 -7 0 -6 4 3 10 19 12
23 12 15 0z m675 -10 c0 -5 -5 -10 -11 -10 -5 0 -7 5 -4 10 3 6 8 10 11 10 2
0 4 -4 4 -10z m-730 -13 c0 -2 -15 -16 -32 -33 l-33 -29 29 33 c28 30 36 37
36 29z m-90 -100 c0 -2 -10 -12 -22 -23 l-23 -19 19 23 c18 21 26 27 26 19z
m-40 -50 c0 -2 -17 -19 -37 -38 l-38 -34 34 38 c33 34 41 42 41 34z m-70 -80
c0 -2 -15 -16 -32 -33 l-33 -29 29 33 c28 30 36 37 36 29z m-70 -80 c0 -2 -10
-12 -22 -23 l-23 -19 19 23 c18 21 26 27 26 19z m-49 -74 c-12 -20 -14 -14 -5
12 4 9 9 14 11 11 3 -2 0 -13 -6 -23z m-14 -45 c-3 -8 -6 -5 -6 6 -1 11 2 17
5 13 3 -3 4 -12 1 -19z m0 -130 c-2 -13 -4 -3 -4 22 0 25 2 35 4 23 2 -13 2
-33 0 -45z m10 -60 c-3 -8 -6 -5 -6 6 -1 11 2 17 5 13 3 -3 4 -12 1 -19z m10
-50 c-3 -8 -6 -5 -6 6 -1 11 2 17 5 13 3 -3 4 -12 1 -19z m10 -90 c-2 -13 -4
-3 -4 22 0 25 2 35 4 23 2 -13 2 -33 0 -45z m10 -60 c-3 -8 -6 -5 -6 6 -1 11
2 17 5 13 3 -3 4 -12 1 -19z m10 -50 c-3 -8 -6 -5 -6 6 -1 11 2 17 5 13 3 -3
4 -12 1 -19z m10 -80 c-2 -13 -4 -5 -4 17 -1 22 1 32 4 23 2 -10 2 -28 0 -40z
m10 -60 c-3 -8 -6 -5 -6 6 -1 11 2 17 5 13 3 -3 4 -12 1 -19z m10 -50 c-3 -8
-6 -5 -6 6 -1 11 2 17 5 13 3 -3 4 -12 1 -19z m73 -263 c14 -19 14 -19 -2 -6
-10 7 -18 18 -18 24 0 6 1 8 3 6 1 -2 9 -13 17 -24z m61 -62 c13 -16 12 -17
-3 -4 -10 7 -18 15 -18 17 0 8 8 3 21 -13z m40 -30 c13 -16 12 -17 -3 -4 -10
7 -18 15 -18 17 0 8 8 3 21 -13z m1113 -21 c2 -4 -4 -8 -14 -8 -10 0 -16 4
-14 8 3 4 9 8 14 8 5 0 11 -4 14 -8z m51 -82 l30 -35 -28 25 c-16 14 -33 34
-39 45 -11 21 -10 20 37 -35z m-994 -17 c13 -16 12 -17 -3 -4 -10 7 -18 15
-18 17 0 8 8 3 21 -13z m789 12 c0 -2 -10 -9 -22 -15 -22 -11 -22 -10 -4 4 21
17 26 19 26 11z m-749 -42 c13 -16 12 -17 -3 -4 -10 7 -18 15 -18 17 0 8 8 3
21 -13z m689 2 c-7 -8 -18 -15 -24 -15 -6 0 -2 7 8 15 25 19 32 19 16 0z m-50
-30 c0 -2 -10 -9 -22 -15 -22 -11 -22 -10 -4 4 21 17 26 19 26 11z m-55 -35
c-3 -5 -16 -15 -28 -21 -21 -10 -21 -9 2 10 25 23 36 27 26 11z m-454 -27 c13
-16 12 -17 -3 -4 -17 13 -22 21 -14 21 2 0 10 -8 17 -17z m399 -8 c0 -2 -10
-9 -22 -15 -22 -11 -22 -10 -4 4 21 17 26 19 26 11z m-359 -22 c13 -16 12 -17
-3 -4 -10 7 -18 15 -18 17 0 8 8 3 21 -13z m136 -59 c-3 -3 -12 -4 -19 -1 -8
3 -5 6 6 6 11 1 17 -2 13 -5z m66 -1 c-7 -2 -21 -2 -30 0 -10 3 -4 5 12 5 17
0 24 -2 18 -5z m10443 -782 c-7 -11 -56 -21 -56 -11 0 13 13 20 37 20 13 0 22
-4 19 -9z"/>
<path d="M10508 12893 c6 -2 18 -2 25 0 6 3 1 5 -13 5 -14 0 -19 -2 -12 -5z"/>
<path d="M8600 12740 c0 -5 4 -10 9 -10 6 0 13 5 16 10 3 6 -1 10 -9 10 -9 0
-16 -4 -16 -10z"/>
<path d="M8581 11591 c-18 -11 -6 -31 68 -111 28 -30 51 -58 51 -62 0 -3 20
-31 46 -62 35 -43 51 -56 72 -56 46 0 56 13 39 46 -8 16 -26 40 -38 55 -13 14
-36 41 -52 61 -85 113 -145 155 -186 129z"/>
<path d="M8850 11526 c-14 -18 -4 -39 44 -85 20 -19 36 -40 36 -47 0 -6 6 -14
14 -17 8 -3 17 -19 21 -36 3 -16 17 -37 31 -45 22 -15 26 -15 49 0 28 19 32
36 10 54 -8 7 -15 17 -15 22 0 13 -39 65 -85 114 -44 46 -86 62 -105 40z"/>
<path d="M8377 11514 c-11 -11 6 -39 53 -84 25 -25 57 -62 71 -82 27 -42 67
-63 98 -53 42 13 18 56 -98 178 -38 39 -51 47 -81 47 -20 0 -39 -3 -43 -6z"/>
<path d="M15097 11513 c-24 -23 20 -80 133 -172 24 -20 62 -53 82 -74 31 -31
44 -38 71 -35 22 2 32 8 32 20 0 19 -50 75 -131 143 -32 28 -75 67 -96 88 -34
34 -74 48 -91 30z"/>
<path d="M15392 11498 c-18 -18 -14 -36 11 -49 26 -14 48 -37 136 -142 52 -62
70 -77 92 -77 56 0 48 25 -39 135 -103 129 -163 170 -200 133z"/>
<path d="M9082 11483 c-10 -19 0 -57 17 -67 5 -3 12 -19 15 -34 8 -35 59 -66
87 -52 25 14 24 31 -3 73 -13 19 -31 49 -40 66 -19 35 -61 43 -76 14z"/>
<path d="M14891 11481 c-12 -8 5 -29 77 -101 51 -50 92 -95 92 -101 0 -5 12
-14 26 -20 20 -7 32 -6 51 6 l24 16 -23 32 c-12 18 -56 65 -96 105 -61 59 -80
72 -106 72 -17 0 -37 -4 -45 -9z"/>
<path d="M14673 11452 c-13 -2 -23 -10 -23 -17 0 -17 153 -167 181 -177 21 -8
69 6 69 21 0 16 -158 165 -182 171 -13 3 -33 4 -45 2z"/>
<path d="M9314 11425 c-9 -24 2 -42 31 -49 14 -4 49 -23 76 -42 56 -39 92 -42
97 -8 8 54 -186 147 -204 99z"/>
<path d="M14478 11379 c-10 -5 -18 -14 -18 -19 0 -5 41 -36 92 -70 91 -59 147
-76 163 -49 7 11 -32 59 -48 59 -5 0 -28 15 -51 34 -62 52 -104 65 -138 45z"/>
<path d="M14282 11348 c-20 -20 -14 -35 19 -47 44 -15 74 -14 89 4 15 19 15
19 -34 39 -46 19 -58 20 -74 4z"/>
<path d="M7960 10710 c-30 -4 -91 -13 -135 -19 -160 -21 -192 -44 -182 -124
11 -86 29 -197 68 -409 22 -119 43 -238 45 -265 3 -26 14 -90 25 -142 24 -117
24 -135 0 -91 -10 19 -46 89 -81 155 -35 66 -83 158 -108 205 -91 175 -176
337 -204 393 -43 85 -44 85 -353 103 -156 9 -144 23 -254 -301 -81 -238 -169
-493 -203 -588 -8 -21 -18 -39 -23 -40 -5 -1 -15 26 -22 61 -7 34 -16 70 -21
80 -5 9 -15 49 -22 87 -7 39 -16 75 -20 80 -4 6 -13 42 -20 80 -7 39 -17 81
-23 95 -5 14 -17 59 -27 100 -35 144 -42 165 -67 188 -13 12 -36 22 -51 22
-46 0 -384 -69 -399 -82 -30 -24 -43 -64 -33 -99 6 -19 10 -49 10 -68 0 -28
-3 -32 -17 -26 -10 4 -54 20 -98 35 -44 15 -118 42 -165 60 -100 37 -106 37
-285 -15 -71 -20 -143 -41 -160 -45 -190 -51 -216 -65 -236 -129 -6 -20 -20
-62 -32 -94 -19 -56 -21 -58 -33 -35 -6 12 -15 39 -19 58 -14 75 -27 100 -57
116 -36 18 -47 17 -258 -24 -179 -35 -187 -38 -201 -63 -9 -17 -12 -18 -38 -5
-25 13 -44 11 -212 -24 -101 -21 -202 -43 -224 -48 -22 -6 -128 -29 -235 -52
-107 -22 -209 -47 -226 -54 -21 -10 -36 -11 -48 -4 -19 11 -92 -2 -381 -67
-82 -19 -226 -51 -320 -70 -93 -20 -182 -44 -197 -53 -46 -27 -49 -62 -18
-218 16 -77 26 -141 24 -143 -2 -3 -17 7 -32 21 -132 120 -266 230 -289 237
-31 9 -468 -21 -495 -33 -16 -7 -210 -227 -265 -300 -27 -36 -29 -83 -9 -206
8 -47 22 -132 31 -190 27 -180 67 -394 79 -422 7 -19 84 -79 241 -191 127 -90
241 -170 254 -176 32 -18 72 -8 134 32 29 19 122 78 207 132 300 190 320 204
330 231 6 14 14 23 19 20 5 -3 16 -47 26 -98 22 -115 37 -146 79 -163 30 -13
49 -11 212 26 199 44 222 53 243 91 14 24 13 38 -7 145 -13 65 -34 149 -48
186 l-24 68 23 8 c12 5 55 14 95 21 60 11 77 19 98 43 25 29 25 34 19 129 -4
55 -10 132 -14 171 -7 59 -5 78 9 107 10 19 23 72 30 118 7 45 15 81 17 78 7
-7 30 -97 63 -247 15 -69 30 -131 34 -137 3 -6 17 -64 30 -129 14 -65 29 -129
34 -143 6 -14 19 -73 31 -130 34 -169 55 -213 105 -226 29 -7 379 71 414 93
41 25 43 52 16 190 -14 71 -34 152 -45 181 -10 29 -19 56 -19 61 0 4 43 15 95
25 83 16 98 22 121 49 23 27 25 37 20 86 -7 72 -18 216 -21 261 -1 19 5 44 12
56 7 11 20 63 29 115 9 52 20 100 24 108 8 15 27 -57 36 -139 3 -25 16 -108
29 -185 13 -77 34 -198 45 -270 32 -198 60 -346 71 -382 13 -41 44 -63 89 -63
41 0 432 76 474 92 49 20 58 58 35 168 -11 52 -18 100 -17 107 2 7 86 -26 213
-84 241 -108 223 -106 379 -43 79 31 130 62 230 136 71 52 132 92 135 87 4 -4
13 -30 19 -58 14 -58 50 -95 91 -95 37 0 466 87 489 99 41 22 47 55 29 148 -9
48 -14 89 -11 92 2 3 76 -8 163 -25 162 -30 205 -30 231 1 7 8 22 55 34 103
12 48 26 86 31 86 6 -1 56 -16 111 -33 l101 -31 36 -74 c57 -120 50 -118 301
-68 193 38 213 44 237 70 22 25 36 29 125 41 54 7 153 21 219 31 66 10 158 24
205 30 101 14 256 38 287 45 34 8 53 45 60 116 3 35 11 114 17 174 11 100 10
119 -10 217 -23 116 -41 154 -78 164 -22 5 -268 -39 -400 -72 -32 -9 -62 -12
-67 -7 -7 7 -21 101 -34 228 -2 17 -9 75 -15 130 -7 55 -14 114 -16 132 -2 18
-15 88 -29 155 -36 172 -48 181 -215 158z m109 -162 c23 -172 60 -459 77 -605
16 -128 22 -153 35 -153 9 0 128 25 265 55 136 30 249 54 250 52 4 -5 -29
-292 -35 -299 -7 -8 -709 -110 -730 -106 -11 2 -38 132 -112 543 -53 297 -95
542 -92 545 4 4 266 45 314 49 14 1 19 -15 28 -81z m-790 -154 c5 -5 39 -67
76 -139 37 -71 87 -166 110 -210 82 -154 143 -272 234 -446 l91 -176 -174 -35
-173 -34 -41 81 -40 81 -171 52 c-94 29 -177 52 -185 52 -9 0 -20 -35 -36
-115 -13 -64 -26 -118 -30 -120 -4 -3 -80 9 -168 26 l-160 31 93 271 c51 150
127 371 169 491 42 121 76 220 76 220 0 6 323 -24 329 -30z m-1643 -314 c92
-33 169 -62 171 -64 6 -6 -107 -356 -115 -356 -4 0 -70 18 -147 40 -76 22
-142 36 -147 32 -7 -8 -98 -217 -98 -227 0 -15 136 -155 150 -155 41 0 143 42
194 79 l57 42 37 -32 c103 -90 212 -195 210 -201 -2 -4 -61 -50 -132 -102
-103 -76 -147 -101 -226 -131 l-99 -37 -223 101 -223 100 -37 158 c-21 87 -51
219 -68 293 l-31 135 43 125 43 124 235 68 c129 37 236 67 237 67 1 1 77 -26
169 -59z m-792 -660 c76 -303 137 -553 134 -555 -7 -7 -409 -87 -413 -83 -9 8
-187 1097 -183 1117 2 12 38 22 143 42 77 15 149 27 160 28 18 1 32 -48 159
-549z m1102 185 c3 -33 14 -102 25 -154 10 -51 19 -95 19 -97 0 -13 -23 3 -83
59 l-68 62 41 120 c22 66 40 122 41 125 3 15 20 -63 25 -115z m-2676 73 c0
-23 -49 -298 -54 -306 -3 -5 -77 -19 -166 -32 -88 -14 -164 -27 -169 -30 -13
-8 -21 -130 -9 -130 6 0 74 20 152 45 79 25 147 45 153 45 10 0 14 -31 29
-226 l7 -81 -144 -28 c-79 -15 -145 -29 -146 -30 -1 0 29 -95 67 -210 38 -116
66 -213 62 -216 -4 -3 -72 -21 -152 -38 -80 -18 -152 -34 -161 -37 -13 -3 -26
42 -78 258 -125 529 -200 853 -198 854 5 5 765 172 785 173 12 1 22 -5 22 -11z
m3000 -175 c7 -32 18 -78 25 -103 25 -82 27 -100 11 -100 -18 0 -26 21 -26 68
-1 20 -7 64 -15 97 -8 33 -15 68 -15 78 0 34 9 16 20 -40z m-4025 -254 c155
-137 160 -143 166 -188 16 -112 31 -221 39 -286 5 -38 13 -94 18 -123 l9 -53
-66 -40 c-36 -22 -136 -85 -221 -139 -200 -128 -242 -153 -255 -153 -16 0
-424 293 -434 311 -4 10 -14 53 -20 97 -13 87 -34 222 -51 326 -5 37 -10 73
-10 81 0 11 167 215 229 280 3 3 58 9 121 13 63 4 116 8 117 8 1 1 46 3 100 5
l98 2 160 -141z"/>
<path d="M7891 10539 c-35 -5 -66 -11 -69 -14 -6 -5 146 -896 158 -931 l8 -20
289 33 c158 17 293 32 299 33 11 0 39 148 30 157 -2 2 -95 -17 -207 -42 -272
-61 -309 -69 -314 -64 -2 3 -18 106 -35 229 -17 124 -40 290 -51 370 -11 80
-23 169 -26 198 -3 29 -9 54 -12 55 -3 2 -35 0 -70 -4z"/>
<path d="M6871 9924 c-78 -224 -139 -410 -135 -413 3 -3 32 -11 65 -17 l59
-11 37 116 c21 64 39 118 40 120 2 3 133 -29 444 -110 33 -8 39 -16 69 -87 19
-42 36 -80 39 -84 7 -7 152 20 164 31 4 4 -10 41 -31 82 -22 41 -117 227 -212
414 -95 187 -175 343 -179 346 -3 4 -54 9 -112 13 l-106 6 -142 -406z m308
246 c21 -5 32 -29 88 -194 35 -104 62 -190 61 -191 -5 -3 -293 25 -334 32
l-41 8 63 160 c35 88 68 170 74 183 10 23 10 23 89 2z"/>
<path d="M7107 10006 c-56 -120 -57 -113 15 -118 74 -6 92 -1 83 21 -4 9 -16
48 -28 86 -11 39 -24 74 -28 79 -4 4 -23 -26 -42 -68z"/>
<path d="M5267 9985 c-98 -29 -181 -56 -185 -59 -3 -4 -21 -45 -39 -93 l-34
-86 52 -258 c29 -142 55 -262 58 -267 3 -5 89 -43 190 -85 l183 -77 80 35 c75
32 238 139 238 156 0 12 -93 89 -108 89 -7 0 -31 -12 -54 -26 -23 -15 -80 -37
-127 -49 -82 -22 -87 -23 -106 -6 -11 10 -71 62 -132 115 -62 54 -113 100
-113 103 0 8 171 387 179 395 3 4 69 -20 146 -53 77 -32 145 -57 151 -55 6 2
21 42 33 87 13 46 26 92 28 101 4 14 -16 23 -109 52 -63 20 -123 36 -134 35
-10 0 -99 -25 -197 -54z"/>
<path d="M4565 9863 c-38 -8 -73 -18 -78 -22 -4 -4 -3 -32 3 -62 5 -29 19
-115 30 -189 11 -74 27 -175 35 -225 8 -49 29 -180 46 -290 17 -110 32 -201
34 -203 1 -2 55 7 119 19 85 17 116 27 116 38 0 14 -171 741 -206 879 -9 34
-19 64 -23 65 -3 2 -37 -3 -76 -10z m150 -703 c40 -180 39 -170 22 -170 -12 0
-17 15 -22 58 -3 31 -12 93 -20 137 -14 75 -18 123 -9 100 2 -5 15 -62 29
-125z"/>
<path d="M2853 9522 c-149 -37 -275 -70 -278 -74 -4 -3 5 -57 19 -120 60 -267
195 -830 200 -835 5 -5 93 13 133 28 19 7 21 12 13 31 -16 38 -140 400 -140
408 0 4 64 20 143 34 194 37 177 28 177 95 0 32 -2 60 -5 63 -3 2 -76 -14
-163 -37 -86 -23 -160 -40 -164 -36 -4 3 -10 76 -14 162 l-7 157 39 6 c21 3
105 13 186 22 164 19 152 11 163 107 6 51 5 57 -12 56 -10 0 -140 -31 -290
-67z"/>
<path d="M1949 9376 c-2 -2 -67 -7 -144 -11 -82 -4 -146 -11 -154 -18 -8 -7
-61 -67 -118 -135 l-105 -122 11 -73 c64 -420 68 -440 93 -459 13 -9 109 -78
213 -152 l190 -135 35 22 c19 11 73 45 120 75 149 96 183 117 278 176 65 41
92 63 92 77 0 19 -12 105 -30 219 -5 30 -14 102 -22 159 l-12 103 -160 139
-159 139 -62 0 c-34 0 -64 -2 -66 -4z m254 -179 l138 -132 23 -217 c12 -120
20 -218 16 -218 -3 0 -15 96 -27 213 l-22 212 -133 133 -133 133 -90 -6 c-49
-2 -134 -8 -188 -11 l-98 -7 -95 -116 c-51 -63 -94 -123 -94 -132 0 -10 13
-88 29 -176 16 -87 32 -180 36 -207 4 -27 9 -55 13 -64 3 -9 1 -13 -5 -9 -6 4
-14 33 -18 64 -4 32 -20 127 -36 212 -16 84 -29 164 -29 177 0 18 94 145 189
256 4 4 63 11 131 14 69 4 126 7 127 8 1 1 30 3 65 4 l63 2 138 -133z m-222
-249 c124 -71 113 -49 86 -177 l-12 -54 -100 -32 c-71 -24 -102 -30 -107 -22
-3 7 -35 55 -70 107 l-64 95 75 72 c42 40 77 72 79 73 1 0 52 -28 113 -62z
m275 -150 c9 -82 12 -128 9 -128 -2 0 -11 -3 -21 -7 -10 -4 -15 -2 -11 3 5 9
-16 152 -29 199 -5 17 -2 16 21 -7 17 -16 29 -40 31 -60z m124 -182 c0 -3 -48
-35 -107 -71 -60 -36 -157 -98 -218 -136 -60 -38 -114 -69 -119 -69 -10 0
-346 238 -346 246 0 8 9 1 182 -123 86 -62 159 -113 163 -113 6 0 197 118 357
222 70 44 88 53 88 44z"/>
<path d="M1799 8931 l-72 -67 64 -97 c73 -110 60 -106 189 -63 l64 21 17 75
c10 41 15 78 11 82 -4 3 -51 31 -104 61 l-97 55 -72 -67z m153 -21 c73 -40 78
-47 62 -90 l-13 -35 6 41 5 41 -66 34 -65 34 -38 -35 -38 -35 34 38 c19 20 40
37 46 37 6 0 37 -14 67 -30z m-113 -115 c19 -31 32 -58 29 -61 -3 -2 -21 23
-41 56 -20 33 -33 60 -29 60 4 0 23 -25 41 -55z m151 -40 c0 -2 -18 -9 -41
-15 -22 -6 -48 -13 -57 -16 -12 -4 -11 -2 3 7 10 7 33 16 50 20 40 9 45 10 45
4z"/>
<path d="M10846 10429 c-2 -8 -7 -32 -11 -53 -4 -22 -13 -49 -21 -60 -21 -30
-21 -598 1 -649 8 -19 19 -59 24 -88 12 -70 47 -166 83 -229 4 -8 14 -26 20
-40 44 -90 201 -260 264 -286 18 -8 35 -18 38 -23 8 -12 84 -48 121 -57 17 -4
39 -13 50 -20 28 -20 392 -20 420 0 11 7 39 17 62 21 23 3 47 13 54 21 6 8 19
14 29 14 9 0 28 8 41 18 13 10 35 23 49 30 32 15 62 34 75 48 5 5 30 23 54 40
104 69 302 265 424 419 26 33 53 66 59 74 7 8 31 42 53 75 23 34 57 84 76 111
19 28 38 58 42 67 3 9 18 36 34 60 36 57 51 83 111 206 29 56 57 102 64 102 8
0 9 3 2 10 -7 7 -170 12 -460 14 -288 2 -521 9 -649 19 -110 9 -265 21 -345
27 -155 11 -286 24 -415 41 -44 6 -125 17 -180 25 -55 7 -106 13 -113 14 -7 0
-21 14 -32 32 -13 22 -21 27 -24 17z m1804 -714 c0 -8 -7 -15 -15 -15 -16 0
-20 12 -8 23 11 12 23 8 23 -8z m-442 -459 c2 -10 0 -22 -5 -26 -11 -12 -56
27 -48 40 11 17 49 7 53 -14z m-742 -254 c-22 -5 -30 3 -21 18 5 8 11 7 22 -2
15 -12 14 -13 -1 -16z"/>
<path d="M13187 10288 c-16 -17 -16 -19 -2 -25 21 -8 40 11 29 29 -8 12 -12
11 -27 -4z"/>
<path d="M8285 10281 c-7 -12 4 -89 16 -113 12 -23 67 -49 73 -34 2 6 5 3 5
-6 2 -40 202 -34 210 6 4 26 -25 46 -68 46 -20 0 -47 6 -61 13 -51 27 -89 36
-93 24 -2 -7 -3 -5 -2 4 3 17 -45 69 -64 69 -5 0 -12 -4 -16 -9z m92 -123 c-3
-8 -6 -5 -6 6 -1 11 2 17 5 13 3 -3 4 -12 1 -19z"/>
<path d="M10355 9435 c-110 -7 -245 -16 -300 -19 -55 -4 -128 -9 -163 -12
l-64 -6 7 -52 c4 -28 36 -224 71 -435 35 -211 64 -395 64 -408 0 -36 -51 -83
-90 -83 -39 0 -42 3 -491 475 l-324 340 -50 -2 c-27 -2 -84 -12 -125 -24 -41
-11 -85 -21 -97 -21 -13 0 -20 -5 -16 -11 4 -6 -3 -8 -20 -3 -14 3 -29 2 -32
-4 -3 -5 -16 -10 -28 -9 -19 0 -138 -21 -145 -26 -2 -2 22 -767 33 -1030 3
-71 10 -265 15 -430 21 -639 30 -915 36 -1032 l6 -121 84 -114 c89 -120 98
-147 67 -194 -16 -25 -16 -25 8 -20 13 3 132 24 264 46 273 46 383 67 396 76
5 3 7 15 5 27 -3 12 -7 114 -11 227 -3 113 -10 318 -16 457 -11 282 -8 301 51
322 60 21 40 38 642 -558 l236 -234 109 17 c59 9 167 26 238 37 221 34 318 50
325 54 3 2 0 43 -7 92 -7 48 -31 214 -53 368 -23 154 -61 417 -86 585 -24 168
-51 350 -59 405 -8 55 -30 208 -50 340 -20 132 -40 272 -45 310 -5 39 -18 129
-29 200 -11 72 -29 195 -40 275 -33 233 -25 210 -74 209 -23 -1 -132 -7 -242
-14z"/>
<path d="M7165 9184 c-8 -9 -23 -30 -31 -47 -47 -92 -104 -111 -279 -93 -38 3
-76 3 -83 -2 -10 -7 -46 -110 -39 -113 1 0 21 -1 45 -3 30 -2 50 -10 66 -27
25 -25 77 -95 663 -874 198 -264 370 -488 381 -498 11 -10 46 -23 79 -28 98
-16 394 -27 430 -16 l33 10 -5 136 c-9 207 -11 220 -42 244 -108 84 -307 271
-424 399 -76 82 -79 87 -67 113 10 22 9 28 -3 35 -43 25 -93 73 -115 112 -30
52 -65 135 -74 172 -4 21 -13 43 -19 49 -12 12 -15 71 -3 65 4 -2 32 -15 62
-29 85 -39 147 -59 255 -81 89 -19 107 -20 165 -9 36 7 78 15 94 18 17 3 50
18 75 33 l46 26 3 75 c2 41 1 115 -3 166 -5 74 -10 93 -23 96 -15 4 -14 5 1 6
13 1 17 8 15 24 -5 39 -55 43 -221 14 -110 -20 -168 -36 -227 -62 -79 -35
-249 -75 -386 -90 -91 -11 -138 14 -203 102 -27 38 -62 75 -76 81 -36 17 -71
15 -90 -4z m85 -74 c6 -11 8 -20 6 -20 -3 0 -10 9 -16 20 -6 11 -8 20 -6 20 3
0 10 -9 16 -20z m1063 -7 c-7 -2 -21 -2 -30 0 -10 3 -4 5 12 5 17 0 24 -2 18
-5z m-90 -10 c-7 -2 -19 -2 -25 0 -7 3 -2 5 12 5 14 0 19 -2 13 -5z m-56 -9
c-3 -3 -12 -4 -19 -1 -8 3 -5 6 6 6 11 1 17 -2 13 -5z m-888 -34 c11 -24 11
-24 -3 -6 -9 11 -16 24 -16 30 0 12 5 7 19 -24z m829 23 c-10 -2 -28 -2 -40 0
-13 2 -5 4 17 4 22 1 32 -1 23 -4z m-88 -10 c-8 -3 -24 -13 -35 -22 -20 -16
-20 -16 -1 7 11 12 26 22 35 21 14 0 14 -1 1 -6z m-850 -36 c0 -2 -10 -12 -22
-23 l-23 -19 19 23 c18 21 26 27 26 19z m785 -7 c-3 -5 -12 -10 -18 -10 -7 0
-6 4 3 10 19 12 23 12 15 0z m-629 -32 l29 -33 -32 29 c-31 28 -38 36 -30 36
2 0 16 -15 33 -32z m557 5 c-7 -2 -19 -2 -25 0 -7 3 -2 5 12 5 14 0 19 -2 13
-5z m-777 -18 c-11 -8 -25 -15 -30 -15 -6 1 0 7 14 15 32 19 40 18 16 0z m727
8 c-7 -2 -19 -2 -25 0 -7 3 -2 5 12 5 14 0 19 -2 13 -5z m-996 -28 c-7 -13
-14 -20 -15 -14 -2 5 2 16 8 24 18 21 20 18 7 -10z m946 18 c-7 -2 -19 -2 -25
0 -7 3 -2 5 12 5 14 0 19 -2 13 -5z m-890 -10 c-7 -2 -19 -2 -25 0 -7 3 -2 5
12 5 14 0 19 -2 13 -5z m840 0 c-7 -2 -19 -2 -25 0 -7 3 -2 5 12 5 14 0 19 -2
13 -5z m-786 -9 c-3 -3 -12 -4 -19 -1 -8 3 -5 6 6 6 11 1 17 -2 13 -5z m100 0
c-3 -3 -12 -4 -19 -1 -8 3 -5 6 6 6 11 1 17 -2 13 -5z m338 -12 c-3 -3 -11 0
-18 7 -9 10 -8 11 6 5 10 -3 15 -9 12 -12z m298 11 c-7 -2 -19 -2 -25 0 -7 3
-2 5 12 5 14 0 19 -2 13 -5z m-50 -10 c-7 -2 -19 -2 -25 0 -7 3 -2 5 12 5 14
0 19 -2 13 -5z m-50 -10 c-7 -2 -19 -2 -25 0 -7 3 -2 5 12 5 14 0 19 -2 13 -5z
m-120 -10 c-7 -2 -19 -2 -25 0 -7 3 -2 5 12 5 14 0 19 -2 13 -5z m65 0 c-10
-2 -26 -2 -35 0 -10 3 -2 5 17 5 19 0 27 -2 18 -5z"/>
<path d="M4309 8854 c-13 -14 -50 -39 -81 -55 -38 -19 -60 -37 -63 -52 -3 -12
3 -66 15 -121 23 -114 24 -156 5 -209 l-13 -38 41 6 c23 4 43 11 45 16 2 4 9
6 16 3 12 -5 202 33 219 43 4 2 -2 16 -14 31 -39 50 -62 127 -89 292 -19 116
-35 133 -81 84z m-42 -120 c-3 -3 -12 -4 -19 -1 -8 3 -5 6 6 6 11 1 17 -2 13
-5z m70 -26 c-3 -8 -6 -5 -6 6 -1 11 2 17 5 13 3 -3 4 -12 1 -19z m10 -50 c-3
-8 -6 -5 -6 6 -1 11 2 17 5 13 3 -3 4 -12 1 -19z m10 -50 c-3 -8 -6 -5 -6 6
-1 11 2 17 5 13 3 -3 4 -12 1 -19z m10 -50 c-3 -8 -6 -5 -6 6 -1 11 2 17 5 13
3 -3 4 -12 1 -19z m-90 -115 c-3 -10 -5 -2 -5 17 0 19 2 27 5 18 2 -10 2 -26
0 -35z m133 12 c14 -19 14 -19 -2 -6 -10 7 -18 18 -18 24 0 6 1 8 3 6 1 -2 9
-13 17 -24z"/>
<path d="M5963 8820 c-11 -5 -42 -25 -68 -45 -27 -20 -96 -59 -154 -88 -104
-51 -108 -52 -196 -52 -86 0 -95 2 -195 48 -145 65 -162 63 -174 -23 -13 -93
-79 -151 -195 -172 -60 -11 -61 -12 -61 -45 0 -28 3 -33 18 -29 9 2 44 10 77
16 33 6 69 14 80 16 16 4 17 3 5 -4 -8 -5 -48 -16 -88 -23 -43 -7 -76 -18 -79
-26 -5 -12 4 -117 53 -613 17 -183 28 -210 117 -300 98 -98 307 -231 332 -210
7 5 20 37 30 70 14 46 16 65 7 83 -36 74 -41 318 -7 331 8 3 37 -13 64 -34
l50 -39 156 468 c152 458 174 511 212 511 6 0 28 7 48 16 l38 16 -25 25 -26
26 -36 -28 c-20 -15 -36 -25 -36 -22 0 2 16 17 36 32 l36 27 31 -30 32 -30 53
20 c47 18 62 38 27 38 -7 0 -33 15 -58 34 -52 40 -74 48 -104 36z m-63 -134
c0 -3 -15 -14 -32 -26 l-33 -22 30 26 c31 27 35 29 35 22z m-70 -50 c0 -2 -9
-6 -20 -9 -11 -3 -18 -1 -14 4 5 9 34 13 34 5z m-510 -16 c8 -5 11 -10 5 -10
-5 0 -17 5 -25 10 -8 5 -10 10 -5 10 6 0 17 -5 25 -10z m-63 -22 c-3 -8 -6 -5
-6 6 -1 11 2 17 5 13 3 -3 4 -12 1 -19z m513 18 c0 -2 -7 -7 -16 -10 -8 -3
-12 -2 -9 4 6 10 25 14 25 6z m-385 -26 c3 -6 -1 -7 -9 -4 -18 7 -21 14 -7 14
6 0 13 -4 16 -10z m325 0 c-8 -5 -19 -10 -25 -10 -5 0 -3 5 5 10 8 5 20 10 25
10 6 0 3 -5 -5 -10z m-280 -20 c8 -5 11 -10 5 -10 -5 0 -17 5 -25 10 -8 5 -10
10 -5 10 6 0 17 -5 25 -10z m230 0 c-8 -5 -19 -10 -25 -10 -5 0 -3 5 5 10 8 5
20 10 25 10 6 0 3 -5 -5 -10z m-147 -27 c-7 -2 -19 -2 -25 0 -7 3 -2 5 12 5
14 0 19 -2 13 -5z m65 0 c-10 -2 -26 -2 -35 0 -10 3 -2 5 17 5 19 0 27 -2 18
-5z m-408 -68 c0 -2 -10 -9 -22 -15 -22 -11 -22 -10 -4 4 21 17 26 19 26 11z"/>
<path d="M3387 8686 c-21 -25 -60 -55 -94 -72 -71 -35 -72 -41 -43 -189 21
-111 20 -156 -7 -207 -13 -28 -13 -28 21 -28 19 0 41 7 49 15 9 8 17 10 19 5
3 -9 264 43 276 54 2 3 -7 19 -22 37 -37 44 -52 83 -85 228 -31 134 -54 201
-69 201 -5 0 -26 -20 -45 -44z m23 -90 c0 -2 -8 -10 -17 -17 -16 -13 -17 -12
-4 4 13 16 21 21 21 13z m27 -58 c-3 -8 -6 -5 -6 6 -1 11 2 17 5 13 3 -3 4
-12 1 -19z m-123 4 c-6 -4 -14 -14 -17 -22 -4 -10 -6 -8 -6 8 -1 15 5 22 17
22 10 0 13 -3 6 -8z m133 -54 c-3 -8 -6 -5 -6 6 -1 11 2 17 5 13 3 -3 4 -12 1
-19z m10 -50 c-3 -8 -6 -5 -6 6 -1 11 2 17 5 13 3 -3 4 -12 1 -19z m10 -50
c-3 -8 -6 -5 -6 6 -1 11 2 17 5 13 3 -3 4 -12 1 -19z m42 -108 c11 -24 11 -24
-3 -6 -9 11 -16 24 -16 30 0 12 5 7 19 -24z m-172 -37 c-3 -10 -5 -2 -5 17 0
19 2 27 5 18 2 -10 2 -26 0 -35z"/>
<path d="M4680 8285 c-88 -20 -550 -116 -1025 -215 -242 -50 -526 -109 -632
-132 l-191 -42 -1 -210 c-1 -116 -4 -292 -7 -391 l-5 -180 35 -135 c19 -74 62
-241 96 -370 76 -290 120 -461 170 -655 172 -671 247 -955 252 -960 2 -3 179
34 394 81 214 47 414 90 446 96 47 9 55 14 48 27 -5 9 -20 45 -34 81 -38 100
-92 242 -151 390 -29 74 -64 164 -78 200 -14 36 -46 118 -71 184 -47 120 -49
137 -19 184 19 31 48 40 140 47 43 3 202 17 354 30 152 14 285 25 295 25 18 0
19 7 13 113 -8 138 -22 470 -23 554 -1 51 -4 62 -16 58 -8 -2 -64 -17 -125
-34 -60 -16 -162 -44 -225 -61 -549 -151 -525 -146 -569 -102 -24 24 -30 45
-56 197 -32 189 -34 224 -16 258 21 39 51 49 186 63 71 7 153 16 180 19 140
15 450 47 607 62 97 9 175 19 173 23 -2 3 -7 35 -10 71 -3 35 -13 132 -21 214
-8 83 -15 157 -15 165 -1 14 -16 162 -24 241 -2 19 -6 54 -7 77 -2 23 -5 42
-8 41 -3 -1 -30 -7 -60 -14z"/>
<path d="M6557 7551 c-38 -9 -72 -23 -76 -31 -12 -23 -44 -230 -37 -238 8 -7
274 33 334 51 l42 12 -67 113 c-77 127 -69 124 -196 93z"/>
<path d="M7960 7441 c0 -16 459 -633 482 -647 7 -5 9 39 4 152 -3 88 -9 218
-11 289 -3 72 -8 146 -11 165 l-5 35 -167 0 c-92 0 -195 3 -229 7 -35 4 -63 4
-63 -1z"/>
<path d="M14175 7440 c-16 -4 -181 -63 -365 -132 -440 -165 -668 -230 -921
-264 -68 -9 -231 -34 -362 -55 -132 -21 -255 -39 -274 -39 l-36 0 6 -67 c3
-38 19 -138 36 -223 17 -85 53 -272 80 -415 66 -343 152 -786 206 -1065 23
-124 49 -258 56 -297 7 -40 15 -73 19 -73 4 0 75 77 159 171 109 123 150 176
146 188 -40 97 -525 1574 -525 1598 0 22 9 43 28 62 25 28 49 35 407 115 820
184 1071 237 1103 234 30 -4 32 -2 32 28 0 47 28 74 159 153 67 39 121 76 121
81 0 11 -31 11 -75 0z"/>
<path d="M4505 7259 c-132 -14 -480 -51 -555 -57 -83 -8 -79 -1 -65 -94 4 -34
11 -48 22 -48 9 0 91 21 182 46 91 26 213 59 271 74 252 67 305 82 309 86 6 6
-85 2 -164 -7z"/>
<path d="M11850 7024 c-74 -7 -256 -16 -403 -20 -264 -7 -268 -8 -265 -28 3
-21 6 -21 283 -20 l280 0 145 33 c223 51 214 60 -40 35z"/>
<path d="M13235 6823 c-330 -74 -601 -135 -602 -137 -2 -1 112 -346 252 -767
140 -420 255 -778 255 -795 0 -17 -10 -44 -22 -60 -65 -84 -504 -567 -524
-576 -32 -15 -90 -1 -112 27 -18 23 -29 72 -162 765 -27 140 -72 372 -99 515
-63 326 -143 744 -173 898 -15 80 -26 117 -35 117 -20 0 -735 -160 -759 -169
-16 -7 -19 -16 -16 -43 5 -44 -27 -84 -76 -97 -20 -6 -84 -17 -142 -26 -250
-37 -265 -40 -267 -55 -2 -8 115 -544 260 -1190 l263 -1175 394 -312 c243
-191 404 -312 418 -312 12 -1 365 76 785 170 419 93 785 175 813 181 l51 10
291 525 291 524 -225 1007 c-124 554 -230 1028 -235 1054 -6 26 -14 49 -17 52
-4 2 -277 -57 -607 -131z"/>
<path d="M11204 6886 c-3 -14 -3 -29 0 -34 5 -9 233 42 245 54 2 2 -50 4 -117
4 -121 0 -122 0 -128 -24z"/>
<path d="M15448 6815 c-6 -6 61 -317 71 -327 3 -4 58 16 121 45 136 62 140 64
135 80 -2 7 -13 56 -25 110 l-22 97 -137 0 c-76 0 -140 -2 -143 -5z"/>
<path d="M6970 6360 c-107 -21 -294 -58 -415 -81 -121 -23 -223 -45 -228 -49
-8 -7 -43 -458 -35 -465 2 -3 42 2 89 9 46 8 147 24 224 35 77 12 163 26 190
31 28 5 100 17 160 26 61 9 153 22 205 30 52 8 117 17 143 21 26 3 50 9 52 13
3 4 -16 63 -41 131 -25 68 -58 160 -73 204 -45 124 -50 135 -63 134 -7 -1
-101 -18 -208 -39z"/>
<path d="M7622 5739 c-25 -9 -25 -17 3 -169 37 -204 57 -312 90 -495 19 -110
47 -262 61 -337 13 -75 22 -149 18 -163 -8 -32 -58 -75 -88 -75 -13 0 -146 27
-297 61 -151 33 -344 76 -430 95 -86 19 -163 34 -171 34 -9 0 -65 -37 -124
-83 -304 -231 -445 -340 -449 -346 -2 -4 2 -39 10 -77 8 -38 23 -123 35 -189
11 -66 29 -167 40 -225 11 -58 22 -122 26 -142 3 -21 11 -41 18 -46 24 -19
600 -243 616 -240 16 3 172 131 649 535 169 143 196 157 251 128 29 -15 56
-64 241 -438 115 -232 209 -414 209 -404 0 10 -25 109 -55 220 -30 111 -122
461 -205 777 -83 316 -165 627 -182 690 -16 63 -34 129 -38 145 -4 17 -22 82
-38 145 -17 63 -58 221 -92 350 -34 129 -65 240 -69 246 -4 8 -14 9 -29 3z"/>
<path d="M15830 5365 c0 -19 64 -292 70 -298 9 -11 260 103 260 117 -1 6 -9
45 -18 86 l-18 75 -109 12 c-120 13 -185 16 -185 8z"/>
<path d="M11449 16091 c-26 -14 -36 -27 -43 -57 -5 -21 -17 -65 -27 -97 -11
-31 -19 -71 -19 -88 0 -17 -5 -40 -12 -52 -6 -12 -17 -49 -24 -82 -14 -65 -14
-66 -83 -325 -7 -25 -17 -65 -22 -90 -6 -25 -15 -61 -21 -80 -6 -19 -17 -60
-24 -90 -31 -134 -46 -187 -58 -215 -8 -16 -17 -57 -21 -90 -5 -52 -4 -63 14
-82 12 -12 38 -25 58 -28 69 -11 78 -13 142 -30 76 -20 101 -13 127 37 20 38
53 161 64 233 8 56 31 147 91 355 32 113 36 121 56 113 26 -9 96 -67 186 -153
259 -249 268 -256 303 -227 14 12 51 49 169 174 32 35 65 63 71 63 7 0 15 9
19 20 6 20 51 60 66 60 16 0 41 -49 59 -117 10 -37 28 -102 40 -143 26 -87 44
-154 70 -260 51 -210 60 -223 137 -209 26 5 68 16 93 24 25 8 61 17 80 20 19
4 47 17 63 30 23 20 27 32 27 73 0 28 -9 69 -20 93 -11 24 -20 57 -20 72 0 15
-6 40 -14 55 -7 15 -16 45 -20 67 -4 22 -13 58 -20 80 -16 48 -47 151 -76 255
-11 41 -26 89 -31 105 -6 17 -15 53 -20 80 -5 28 -15 66 -22 85 -8 19 -20 55
-26 80 -7 25 -21 79 -33 120 -11 41 -25 96 -32 122 -6 25 -14 50 -18 53 -17
18 -62 -11 -136 -87 -431 -445 -405 -420 -436 -408 -28 10 -109 77 -198 163
-37 35 -192 182 -348 327 -81 76 -72 72 -111 51z"/>
<path d="M1 9303 l-1 -382 35 -198 c99 -560 106 -595 217 -1033 240 -948 630
-1876 1149 -2736 560 -929 1283 -1784 2104 -2489 370 -318 851 -672 1264 -930
317 -198 845 -482 1179 -634 426 -194 1020 -412 1462 -537 201 -56 536 -140
645 -160 44 -8 130 -27 190 -40 61 -14 245 -45 410 -69 165 -25 361 -54 435
-67 132 -21 157 -22 1100 -26 1031 -3 1051 -3 1360 48 63 10 214 33 335 50
121 17 267 42 325 55 58 13 146 31 195 40 137 25 475 110 720 180 463 134 870
283 1370 501 187 81 649 317 885 452 1568 893 2885 2195 3792 3747 301 516
586 1114 753 1585 13 36 46 127 74 204 141 384 294 950 391 1446 96 491 90
436 89 782 0 172 -2 309 -4 303 -2 -5 -9 -83 -16 -173 -10 -137 -14 -162 -27
-157 -12 4 -14 -1 -9 -32 4 -21 -4 -121 -18 -223 -45 -349 -47 -361 -63 -355
-11 4 -13 0 -8 -19 5 -20 -6 -91 -55 -364 -9 -50 -15 -62 -26 -57 -12 4 -14 0
-9 -17 3 -13 -11 -99 -31 -191 -29 -131 -40 -166 -51 -162 -11 4 -13 0 -9 -17
4 -13 -10 -87 -30 -166 -28 -107 -40 -141 -51 -137 -9 3 -12 -1 -7 -13 3 -11
-3 -48 -14 -83 -10 -35 -27 -95 -37 -132 -10 -39 -22 -66 -28 -64 -6 3 -11 -7
-12 -22 -1 -14 -14 -66 -29 -114 -21 -66 -32 -87 -43 -82 -10 4 -12 0 -8 -11
9 -24 -66 -245 -82 -239 -7 3 -10 1 -7 -5 3 -5 -9 -48 -26 -97 -17 -48 -34
-97 -37 -108 -3 -11 -11 -25 -17 -31 -6 -7 -26 -53 -44 -104 -25 -68 -37 -90
-48 -86 -8 3 -11 1 -8 -4 4 -6 -10 -53 -31 -106 -27 -67 -42 -93 -51 -89 -8 2
-12 1 -9 -4 6 -10 -59 -182 -72 -190 -5 -3 -25 -43 -45 -88 -20 -45 -43 -90
-53 -101 -9 -11 -30 -50 -47 -88 -16 -37 -36 -74 -44 -82 -8 -8 -28 -46 -45
-84 -22 -48 -35 -67 -45 -64 -8 3 -11 2 -8 -3 9 -16 -55 -133 -70 -127 -8 3
-12 0 -9 -7 5 -13 -59 -142 -82 -164 -7 -8 -28 -41 -45 -74 -20 -37 -37 -58
-45 -55 -7 3 -11 0 -8 -7 2 -7 -8 -33 -24 -57 -15 -25 -31 -53 -35 -64 -5 -11
-13 -16 -23 -12 -8 3 -12 2 -9 -3 3 -5 -11 -37 -31 -71 -25 -44 -40 -60 -51
-56 -11 5 -13 2 -9 -10 3 -9 -7 -34 -24 -59 -17 -24 -30 -48 -30 -54 0 -6 -8
-15 -19 -20 -10 -6 -26 -25 -34 -44 -9 -18 -26 -44 -39 -58 -13 -14 -41 -52
-63 -84 -22 -33 -52 -72 -67 -88 -14 -16 -34 -45 -44 -63 -10 -19 -22 -34 -26
-34 -4 0 -22 -21 -39 -47 -18 -27 -41 -54 -52 -62 -10 -7 -21 -21 -25 -31 -7
-18 -51 -72 -119 -147 -18 -19 -33 -37 -33 -40 0 -5 -20 -29 -103 -124 -18
-20 -54 -62 -82 -94 -27 -31 -69 -75 -92 -98 -24 -22 -43 -43 -43 -48 0 -8
-224 -241 -316 -329 -31 -30 -103 -99 -158 -152 -134 -128 -173 -161 -186
-153 -5 3 -7 0 -4 -8 3 -8 -8 -25 -28 -41 -50 -40 -126 -107 -162 -141 -17
-17 -47 -43 -67 -58 -20 -14 -51 -39 -68 -54 -108 -98 -188 -156 -202 -147 -8
5 -9 3 -5 -5 9 -14 -5 -26 -76 -72 -27 -17 -48 -34 -48 -38 0 -12 -111 -82
-120 -76 -6 3 -8 0 -5 -7 6 -16 -103 -91 -122 -84 -7 3 -10 -1 -7 -8 5 -13
-44 -56 -63 -56 -5 0 -23 -13 -39 -30 -16 -16 -33 -30 -37 -30 -5 0 -28 -13
-52 -30 -25 -17 -50 -27 -59 -24 -12 4 -15 2 -10 -9 4 -11 -12 -26 -56 -51
-34 -20 -66 -34 -71 -31 -5 3 -6 0 -3 -8 3 -10 -6 -21 -28 -32 -18 -10 -50
-27 -70 -38 -21 -10 -38 -22 -38 -27 0 -4 -28 -21 -62 -39 -35 -18 -67 -38
-73 -44 -17 -20 -175 -98 -185 -92 -5 3 -7 0 -5 -7 6 -16 -139 -93 -155 -83
-5 3 -7 0 -4 -8 3 -10 -20 -25 -76 -51 -44 -20 -85 -34 -89 -31 -5 2 -8 -2 -7
-11 1 -10 -27 -27 -79 -50 -44 -20 -82 -39 -85 -44 -3 -4 -43 -24 -90 -45 -47
-20 -87 -40 -90 -44 -3 -5 -45 -25 -94 -44 -49 -20 -92 -40 -95 -44 -3 -5 -22
-14 -41 -21 -19 -8 -57 -23 -85 -34 -27 -12 -62 -21 -77 -21 -16 0 -25 -4 -22
-12 3 -7 -8 -17 -23 -23 -15 -6 -58 -22 -95 -36 -36 -14 -71 -26 -76 -26 -6 0
-17 -6 -24 -13 -17 -17 -236 -89 -248 -82 -6 3 -7 0 -5 -7 4 -10 -29 -24 -116
-52 -66 -20 -127 -35 -134 -32 -8 3 -12 0 -9 -8 5 -14 -249 -92 -266 -81 -5 3
-7 0 -5 -7 4 -10 -34 -24 -144 -52 -83 -20 -155 -35 -161 -31 -5 3 -7 0 -4 -8
3 -10 -4 -16 -23 -19 -15 -3 -91 -20 -167 -37 -77 -18 -145 -30 -152 -27 -7 3
-11 0 -8 -7 3 -9 -16 -17 -58 -24 -35 -7 -124 -23 -199 -37 -75 -14 -146 -22
-158 -19 -16 4 -20 2 -16 -9 5 -11 -4 -17 -32 -21 -329 -50 -542 -76 -570 -71
-27 5 -32 3 -28 -8 5 -12 -17 -17 -122 -27 -824 -77 -1558 -79 -2326 -5 -147
15 -177 20 -172 32 4 12 -2 13 -32 9 -35 -6 -201 14 -506 60 -90 13 -116 21
-112 31 3 9 -1 12 -13 7 -11 -3 -63 3 -118 14 -54 10 -141 27 -192 37 -73 13
-92 20 -87 32 4 11 0 13 -16 9 -12 -3 -90 10 -175 29 -84 19 -156 34 -160 34
-3 0 -3 7 0 16 5 13 2 15 -15 11 -34 -9 -311 65 -304 81 2 7 0 10 -5 7 -6 -4
-50 5 -98 19 -48 14 -107 30 -130 36 -27 7 -42 16 -39 23 3 7 -6 12 -22 13
-14 1 -74 16 -134 35 -75 24 -106 38 -102 47 3 7 0 10 -5 7 -5 -3 -59 11 -120
31 -83 28 -109 41 -105 52 3 9 0 12 -9 9 -8 -3 -59 10 -113 30 -54 19 -106 37
-115 40 -10 3 -18 9 -18 12 0 4 -46 25 -102 46 -57 22 -108 44 -115 50 -6 7
-26 18 -45 25 -100 37 -137 56 -134 66 3 6 -1 11 -7 10 -7 0 -49 15 -94 34
-55 23 -81 39 -78 48 3 7 1 11 -4 7 -9 -5 -172 63 -181 77 -7 9 -147 78 -160
78 -5 0 -10 5 -10 10 0 6 -34 27 -75 47 -49 25 -74 42 -70 51 2 7 1 10 -5 7
-9 -6 -139 56 -163 78 -7 7 -22 17 -32 23 -11 6 -42 23 -70 39 -27 15 -52 31
-55 35 -5 7 -27 21 -109 66 -18 11 -44 29 -58 41 -13 11 -38 28 -56 36 -18 9
-44 25 -57 37 -14 12 -47 35 -73 51 -35 21 -47 34 -43 45 5 12 2 15 -10 10 -9
-3 -28 3 -44 14 -15 11 -32 20 -37 20 -5 0 -22 12 -39 28 -16 15 -53 43 -82
62 -31 21 -50 40 -47 48 3 7 0 10 -5 7 -9 -6 -94 48 -125 79 -9 9 -39 31 -68
50 -29 19 -58 44 -65 55 -7 12 -18 21 -25 21 -20 1 -80 57 -73 69 4 6 1 9 -6
6 -8 -3 -32 10 -55 30 -23 19 -43 35 -46 35 -3 0 -22 16 -43 35 -22 20 -55 49
-74 65 -71 60 -134 116 -180 163 -26 26 -52 47 -56 47 -5 0 -42 34 -83 75 -41
41 -78 75 -81 75 -9 0 -312 305 -340 342 -12 15 -19 32 -16 37 3 5 0 8 -7 7
-29 -3 -174 154 -162 174 3 5 0 7 -8 4 -17 -6 -92 80 -82 95 3 6 0 8 -8 5 -9
-3 -27 11 -48 38 -19 24 -47 56 -63 73 -16 16 -37 42 -46 57 -9 15 -28 37 -43
48 -15 12 -27 27 -27 35 0 7 -12 24 -27 37 -38 32 -105 127 -98 138 3 6 0 8
-7 5 -12 -4 -65 59 -80 97 -4 10 -12 18 -17 18 -14 0 -83 109 -76 120 3 5 0 7
-9 4 -10 -4 -24 9 -41 38 -15 24 -33 48 -39 53 -26 21 -85 125 -80 140 5 11 2
13 -10 9 -11 -4 -24 8 -45 43 -16 26 -39 59 -51 73 -12 13 -28 39 -37 57 -8
18 -25 43 -36 56 -23 25 -26 31 -70 110 -15 26 -36 58 -47 69 -11 12 -20 26
-20 30 0 5 -12 27 -26 49 -14 23 -23 47 -20 54 3 9 0 12 -8 9 -15 -6 -91 130
-81 146 3 5 0 7 -8 4 -11 -4 -25 16 -51 71 -21 41 -34 80 -31 85 3 5 0 7 -8 4
-11 -4 -26 17 -52 73 -21 43 -41 80 -46 83 -15 10 -78 161 -72 175 3 10 1 13
-9 10 -11 -4 -24 15 -46 66 -18 39 -29 75 -26 80 3 5 -1 7 -8 4 -16 -6 -91
166 -82 189 4 11 2 15 -8 11 -10 -4 -20 8 -32 37 -10 24 -27 63 -37 87 -11 23
-17 52 -14 62 5 14 2 17 -8 13 -9 -3 -18 5 -25 23 -6 15 -22 59 -37 96 -14 38
-24 75 -21 82 3 9 0 12 -8 9 -15 -6 -79 164 -79 208 0 16 -5 24 -12 22 -14 -6
-91 219 -81 235 4 6 2 9 -6 6 -15 -6 -81 189 -82 241 0 20 -4 30 -12 27 -6 -2
-14 6 -16 19 -3 13 -20 74 -37 137 -18 63 -30 120 -27 127 3 7 0 11 -7 8 -14
-5 -80 253 -81 312 0 20 -4 30 -12 27 -6 -2 -14 10 -17 29 -3 18 -17 86 -31
152 -14 65 -23 129 -20 142 5 19 3 23 -10 18 -9 -3 -16 -4 -16 -1 0 3 -16 99
-35 212 -19 114 -32 218 -29 231 5 18 3 23 -8 19 -11 -4 -17 22 -31 122 -35
261 -55 469 -50 516 5 39 3 46 -9 42 -13 -5 -17 25 -27 202 -7 114 -14 215
-16 223 -1 8 -3 -157 -4 -367z"/>
</g>
</svg>
