<svg version="1.1" xmlns="http://www.w3.org/2000/svg" xmlns:xlink="http://www.w3.org/1999/xlink" width="216.71471" height="216.71471" viewBox="0,0,216.71471,216.71471"><g transform="translate(-131.64264,-71.64265)"><g data-paper-data="{&quot;isPaintingLayer&quot;:true}" fill-rule="nonzero" stroke-linecap="butt" stroke-linejoin="miter" stroke-miterlimit="10" stroke-dasharray="" stroke-dashoffset="0" style="mix-blend-mode: normal"><path d="M132.64264,287.35736v-214.71471h214.71471v214.71471z" fill="#000000" stroke="#000000" stroke-width="2"/><path d="M223.99304,140.96548c0.45201,0 0.51588,-0.15476 0.19161,-0.46429c-4.09753,-3.89609 -8.74778,-8.27366 -13.95076,-13.13273c-2.15931,-2.01192 -2.91101,-4.65762 -1.17914,-7.35492c1.69502,-2.64571 5.60094,-3.02893 7.84131,-0.92121c7.62022,7.1977 15.20114,14.34626 22.74276,21.4457c0.17443,0.16189 0.44261,0.16189 0.61168,0c7.36965,-6.96187 14.94566,-14.10798 22.72802,-21.43833c2.7931,-2.63097 7.10435,-1.36339 8.40878,2.08561c1.04649,2.76362 -0.15476,4.65025 -2.24774,6.62532c-4.48075,4.24001 -8.93693,8.43089 -13.36855,12.57263c-0.39305,0.36848 -0.32181,0.55272 0.21372,0.55272c11.49666,0.05405 22.97367,0.04176 34.43103,-0.03685c2.25511,-0.01474 4.17859,0.32181 5.77044,1.00964c4.53971,1.96524 6.8071,5.88098 6.80219,11.74723c-0.00983,19.73594 0.00737,40.64365 0.05159,62.72313c0.01474,6.25684 -1.05386,11.28294 -7.10435,13.92865c-1.75889,0.76644 -4.65516,1.09071 -8.68882,0.97279c-3.07069,-0.09335 -6.28632,-0.09089 -9.64688,0.00737c-0.21618,0.00491 -0.39305,0.08844 -0.53062,0.25057c-2.56464,2.95277 -5.23245,6.06768 -8.00345,9.34472c-1.57711,1.86452 -3.89118,1.93822 -5.5862,-0.02211c-2.80538,-3.23282 -5.47811,-6.34773 -8.01818,-9.34472c-0.14524,-0.17262 -0.35827,-0.27239 -0.5822,-0.27268h-29.80288c-0.2604,0 -0.47412,0.09826 -0.64116,0.29479c-2.51551,2.88399 -5.14156,5.94731 -7.87816,9.18996c-1.68765,2.00455 -4.02383,2.15194 -5.77781,0.10318c-2.79064,-3.25248 -5.44863,-6.35018 -7.97397,-9.29313c-0.13265,-0.15722 -0.2997,-0.23829 -0.50114,-0.2432c-3.00682,-0.10318 -6.13401,-0.10563 -9.38157,-0.00737c-4.07788,0.12774 -7.11909,-0.23583 -9.12363,-1.09071c-3.98698,-1.70239 -6.8243,-5.73359 -6.8243,-10.11854c0,-22.93437 -0.00491,-45.41918 -0.01474,-67.45445c-0.00737,-6.46319 4.67973,-11.70301 11.31242,-11.69564c12.29258,0.01965 24.19949,0.03194 35.72072,0.03685z" fill="#ffffff" stroke="none" stroke-width="1"/></g></g></svg>