<svg version="1.1" xmlns="http://www.w3.org/2000/svg" xmlns:xlink="http://www.w3.org/1999/xlink" width="216.71471" height="216.71471" viewBox="0,0,216.71471,216.71471"><g transform="translate(-131.64264,-71.64265)"><g data-paper-data="{&quot;isPaintingLayer&quot;:true}" fill-rule="nonzero" stroke-linecap="butt" stroke-linejoin="miter" stroke-miterlimit="10" stroke-dasharray="" stroke-dashoffset="0" style="mix-blend-mode: normal"><path d="M132.64264,287.35736v-214.71471h214.71471v214.71471z" fill="#000000" stroke="#000000" stroke-width="2"/><path d="M236.99915,254.49684c-40.37025,-1.49579 -72.22358,-35.22283 -71.56351,-75.60373c0.49505,-30.59708 19.14713,-57.15393 47.61497,-68.44419c0.20228,-0.07807 0.38326,-0.04258 0.54295,0.10646l25.19415,24.17744c0.0545,0.05489 0.07182,0.1366 0.04429,0.20888c-0.02754,0.07228 -0.09483,0.12175 -0.17204,0.12647c-9.51412,0.35132 -18.02218,3.32693 -25.52418,8.92681c-17.90152,13.36626 -23.43221,37.92696 -12.54118,57.57446c14.87269,26.81769 51.34113,31.62975 72.39392,8.88422c15.07497,-16.28863 16.05442,-41.26453 2.20376,-58.46341c-8.65888,-10.74908 -20.28449,-16.43058 -34.87683,-17.04451c-0.20938,-0.01065 -0.31406,-0.12066 -0.31406,-0.33003v-28.78723c0,-0.23067 0.11533,-0.34955 0.346,-0.35665c2.83188,-0.08162 5.75425,0.07098 8.76712,0.45779c36.24487,4.65237 63.67471,34.15822 65.37277,70.52019c0.50392,10.74908 -1.1764,21.02972 -5.04096,30.84194c-11.65755,29.58569 -40.51398,48.38682 -72.44715,47.20509z" fill="#ffffff" stroke="none" stroke-width="1"/><path d="M228.99803,161.57387l26.29603,15.63922c1.14915,0.68321 1.84499,1.92898 1.8241,3.26573c-0.02089,1.33674 -0.75531,2.56017 -1.92524,3.20714l-26.7751,14.79817c-1.16459,0.64362 -2.58379,0.6184 -3.72477,-0.06619c-1.14098,-0.68459 -1.83109,-1.92496 -1.81123,-3.25542l0.47908,-30.43738c0.02021,-1.33121 0.74816,-2.55081 1.91027,-3.20045c1.16211,-0.64964 2.58231,-0.6309 3.72687,0.04918z" fill="#ffffff" stroke="none" stroke-width="1"/></g></g></svg>