<?xml version="1.0" standalone="no"?>
<!DOCTYPE svg PUBLIC "-//W3C//DTD SVG 20010904//EN"
 "http://www.w3.org/TR/2001/REC-SVG-20010904/DTD/svg10.dtd">
<svg version="1.0" xmlns="http://www.w3.org/2000/svg"
 width="328.000000pt" height="328.000000pt" viewBox="0 0 328.000000 328.000000"
 preserveAspectRatio="xMidYMid meet">
<metadata>
Created by potrace 1.14, written by Peter Selinger 2001-2017
</metadata>
<g transform="translate(0.000000,328.000000) scale(0.100000,-0.100000)"
fill="#000000" stroke="none">
<path d="M1486 3265 c-60 -8 -119 -16 -133 -20 -14 -3 -33 1 -46 10 -28 20
-115 20 -192 0 -65 -17 -97 -40 -93 -64 3 -12 -18 -23 -77 -42 -244 -81 -396
-171 -550 -324 -161 -161 -235 -298 -320 -590 -74 -259 -76 -276 -73 -612 l3
-298 53 -107 52 -108 0 -102 c0 -93 -3 -109 -30 -166 l-29 -62 23 0 23 0 6
-192 c6 -213 17 -287 54 -365 26 -56 87 -115 135 -132 29 -10 30 -10 23 12 -4
12 -10 47 -12 77 l-5 54 42 -38 c56 -50 135 -86 220 -99 56 -8 89 -7 175 7 59
9 116 21 128 26 20 7 18 10 -23 28 -37 17 -40 21 -20 21 14 0 54 -6 90 -14 74
-16 197 -19 232 -6 19 7 42 0 113 -35 182 -90 327 -118 600 -118 293 0 493 34
704 118 l93 38 58 -26 c32 -14 78 -29 103 -32 57 -8 132 3 151 22 13 12 22 12
72 -1 32 -8 80 -15 106 -15 l47 0 -23 24 c-32 31 -66 209 -66 347 0 46 0 47
43 58 49 13 63 23 102 74 l28 38 -24 -6 c-17 -4 -38 3 -72 25 -64 43 -87 78
-87 133 0 61 8 79 28 68 23 -11 112 -24 112 -16 0 4 -16 25 -35 48 -19 22 -49
77 -66 121 l-31 81 5 180 c3 99 11 208 17 242 l12 62 71 3 72 3 3 47 c3 46 2
47 -40 69 -24 12 -44 22 -45 23 -2 2 8 46 22 100 69 271 28 499 -131 738 -70
105 -206 251 -309 329 -387 297 -824 420 -1289 364z m689 -759 c159 -42 235
-135 235 -290 0 -66 -4 -86 -27 -128 -44 -81 -80 -91 -229 -61 -71 14 -95 14
-148 5 -119 -22 -171 -15 -217 32 -35 35 -51 95 -51 187 1 108 28 166 103 220
63 45 232 63 334 35z m55 -777 c105 -79 166 -99 225 -75 33 14 41 36 12 36
-13 0 -41 39 -34 47 6 6 85 -14 115 -29 12 -6 22 -16 22 -21 0 -13 -59 -80
-84 -94 -12 -7 -16 -12 -9 -13 6 0 9 -9 6 -22 -5 -23 -5 -23 11 -3 15 19 16
19 6 -8 -14 -39 -13 -160 2 -194 7 -15 20 -40 30 -54 9 -14 14 -30 10 -34 -4
-4 8 -5 26 -3 18 3 35 1 38 -4 3 -4 51 -8 107 -8 61 0 97 4 88 9 -10 6 -10 10
-1 16 9 6 9 10 -1 16 -11 7 -10 9 3 9 41 0 70 130 50 219 l-10 43 30 -28 c58
-54 83 -144 58 -208 -14 -39 -1 -31 16 9 28 68 11 151 -43 208 -24 24 -25 27
-7 28 13 0 10 5 -13 15 -25 11 -33 20 -33 40 0 25 2 26 37 19 21 -4 41 -9 44
-11 4 -2 13 -33 20 -68 7 -36 16 -63 19 -61 4 3 11 24 15 47 4 24 9 38 11 32
13 -34 51 -379 42 -383 -7 -2 -7 -6 1 -10 13 -8 35 -219 34 -326 -2 -197 -97
-413 -241 -547 -194 -181 -502 -281 -907 -295 -384 -13 -646 64 -872 256 -83
71 -163 179 -163 221 0 5 12 5 28 -1 53 -22 93 -27 127 -18 35 10 86 54 106
91 9 17 8 19 -10 13 -49 -15 -143 75 -197 189 -33 69 -74 229 -74 286 1 20 7
13 32 -32 36 -68 110 -146 155 -165 38 -15 83 -17 83 -3 0 6 -9 10 -21 10 -33
0 -85 60 -104 121 -19 63 -33 229 -18 229 5 0 20 -11 33 -25 13 -14 30 -25 39
-25 10 0 6 9 -14 30 -16 16 -36 30 -46 30 -15 0 -16 6 -3 73 20 105 22 108 44
59 21 -45 36 -58 20 -16 -17 44 -11 89 21 153 32 64 66 91 114 91 14 0 25 -1
25 -3 0 -2 -7 -25 -16 -51 -19 -56 -15 -147 9 -192 23 -43 70 -95 63 -69 -5
17 -4 18 7 5 15 -19 29 -23 96 -28 29 -2 57 0 63 6 6 6 -6 8 -35 5 -66 -8
-110 10 -129 52 -20 45 -3 75 42 72 17 -1 30 -5 30 -10 0 -4 12 -12 26 -17 23
-9 30 -7 51 16 14 16 28 23 31 17 4 -5 19 -13 33 -16 27 -7 49 -39 31 -45 -6
-2 -8 -11 -5 -20 2 -11 -6 -23 -24 -34 l-28 -17 29 -1 c33 0 68 34 97 95 22
47 24 111 6 182 -15 56 -7 59 25 9 16 -25 18 -26 13 -7 -6 18 -4 22 6 16 8 -5
4 3 -9 17 -17 19 -20 27 -10 31 8 3 5 6 -7 6 -11 1 -52 24 -90 51 -38 28 -73
50 -77 50 -5 0 -8 4 -8 9 0 7 116 26 205 33 19 1 67 -16 135 -49 87 -43 111
-50 143 -46 21 3 41 12 44 20 4 11 11 9 32 -11 35 -34 83 -27 101 12 l12 27
19 -24 19 -23 2 43 c0 24 1 50 1 57 -1 19 9 15 67 -29z m-757 -51 l66 -43
-152 0 c-106 -1 -172 -6 -217 -17 -36 -9 -66 -15 -67 -14 -1 1 0 12 4 24 3 14
18 25 42 32 31 9 235 57 252 59 3 1 35 -18 72 -41z m1271 -38 c33 0 37 2 26
15 -10 12 -9 15 7 15 25 0 49 -20 57 -47 7 -21 5 -21 -31 -11 -44 12 -192 15
-243 4 l-35 -7 38 34 39 33 51 -17 c29 -10 69 -18 91 -19z m-1196 -76 c41 -29
23 -84 -28 -84 -33 0 -50 17 -50 52 0 43 39 60 78 32z m1252 -22 c47 -38 -4
-102 -58 -73 -29 15 -34 49 -11 72 24 24 41 24 69 1z m-166 -167 c28 -29 62
-35 80 -16 9 10 13 21 9 26 -13 12 41 -6 55 -19 16 -16 -1 -62 -32 -88 -27
-23 -101 -23 -146 0 -43 21 -51 66 -16 94 26 22 31 22 50 3z m-2128 -67 c-3
-18 -13 -37 -22 -43 -70 -42 -104 -95 -104 -158 0 -66 54 -183 123 -269 26
-32 28 -19 3 15 -31 41 -81 148 -97 207 -17 64 -5 116 36 157 45 45 55 42 55
-15 0 -61 25 -155 52 -201 12 -20 43 -63 68 -96 57 -73 67 -90 79 -144 l9 -41
-38 -11 c-22 -7 -54 -9 -76 -5 -94 18 -243 243 -252 381 -4 53 0 72 21 117 32
66 42 79 91 112 51 34 60 33 52 -6z"/>
<path d="M1895 2438 c-23 -70 -85 -342 -78 -348 4 -4 23 -10 40 -13 38 -7 43
0 62 78 7 28 17 67 22 88 l10 38 65 -57 65 -57 49 48 c35 35 51 44 54 34 3 -8
16 -52 29 -99 l23 -85 35 3 c62 5 62 11 10 194 -26 92 -50 170 -53 173 -2 3
-35 -26 -72 -65 -37 -38 -70 -70 -73 -70 -3 0 -42 34 -88 75 -45 41 -85 75
-89 75 -4 0 -9 -6 -11 -12z"/>
<path d="M1335 1310 c-3 -5 -1 -10 4 -10 6 0 11 5 11 10 0 6 -2 10 -4 10 -3 0
-8 -4 -11 -10z"/>
<path d="M1140 1243 c1 -15 59 -78 65 -71 8 8 -43 78 -56 78 -5 0 -9 -3 -9 -7z"/>
<path d="M1102 1201 c13 -17 29 -30 37 -30 11 -1 11 2 0 17 -18 22 -42 41 -52
42 -5 0 2 -13 15 -29z"/>
<path d="M1227 1200 c9 -16 23 -30 31 -30 14 0 9 13 -16 43 -24 28 -35 20 -15
-13z"/>
<path d="M2880 1221 c0 -10 73 -71 86 -71 4 0 -10 18 -31 40 -39 39 -55 49
-55 31z"/>
<path d="M1270 1212 c0 -11 22 -32 32 -32 5 0 4 9 -2 20 -11 20 -30 28 -30 12z"/>
<path d="M2850 1189 c17 -17 34 -29 37 -25 9 9 -37 56 -55 56 -8 0 -1 -13 18
-31z"/>
<path d="M2986 1188 c16 -18 30 -35 32 -37 1 -2 5 -2 8 2 10 10 -36 67 -54 67
-12 0 -9 -8 14 -32z"/>
<path d="M2780 1185 c13 -14 30 -25 38 -25 12 0 9 7 -8 25 -13 14 -30 25 -38
25 -12 0 -9 -7 8 -25z"/>
<path d="M1354 1185 c36 -19 42 -19 26 0 -7 8 -22 15 -34 15 -18 0 -17 -2 8
-15z"/>
<path d="M2735 1170 c17 -11 35 -20 40 -20 17 1 -36 40 -54 40 -10 0 -6 -7 14
-20z"/>
<path d="M2668 1173 c7 -3 16 -2 19 1 4 3 -2 6 -13 5 -11 0 -14 -3 -6 -6z"/>
<path d="M1735 896 c-17 -112 13 -244 68 -305 56 -61 161 -78 245 -39 67 31
180 148 235 243 26 44 47 82 47 86 0 3 -89 9 -197 12 -211 6 -374 23 -385 40
-3 6 -9 -11 -13 -37z m315 -48 c81 -10 140 -32 140 -52 0 -5 3 -7 6 -3 3 3 15
-3 27 -13 l20 -19 -28 -41 c-39 -57 -116 -124 -172 -151 -144 -70 -279 27
-291 208 -4 69 -3 73 19 83 26 10 139 6 279 -12z"/>
</g>
</svg>
