<svg version="1.1" xmlns="http://www.w3.org/2000/svg" xmlns:xlink="http://www.w3.org/1999/xlink" width="287.78529" height="287.78529" viewBox="0,0,287.78529,287.78529"><g transform="translate(-96.10735,-36.10737)"><g data-paper-data="{&quot;isPaintingLayer&quot;:true}" fill-rule="nonzero" stroke-linecap="butt" stroke-linejoin="miter" stroke-miterlimit="10" stroke-dasharray="" stroke-dashoffset="0" style="mix-blend-mode: normal"><path d="M97.35735,322.64266v-285.28529h285.28529v285.28529z" fill="#ffffff" stroke="#ffffff" stroke-width="2.5"/><g><g fill="none" stroke="#c8a3ff" stroke-width="2"><path d="M219.68273,101.66604c0,0.00681 0.0034,0.01022 0.01022,0.01022c0.86394,0.09196 1.72562,0.21173 2.58503,0.35932c0.34059,0.0579 0.72204,0.09139 1.14437,0.10047c0.77142,0.01532 1.54455,0.02554 2.28191,-0.21116c1.07795,-0.3474 2.10822,-0.4053 3.28153,-0.27417c0.72999,0.0806 1.53603,0.08741 2.41815,0.02043c0.04087,-0.0034 0.04144,-0.01022 0.0017,-0.02043c-0.0193,-0.00454 -0.0403,-0.00738 -0.06301,-0.00851c-0.00188,0 -0.0034,-0.00152 -0.0034,-0.0034c0,-0.00188 0.00152,-0.0034 0.0034,-0.0034c0.19641,-0.00454 0.39394,-0.02043 0.59261,-0.04768c1.93452,-0.26679 3.84804,-0.57786 5.74055,-0.9332c0.91787,-0.17199 2.02989,-0.18562 2.96819,-0.05279c0.98656,0.14078 1.99525,0.14872 3.02609,0.02384c1.41342,-0.17029 2.78768,-0.34059 4.23176,-0.31674c2.06395,0.0352 4.24425,0.02839 6.54092,-0.02043c0.11694,-0.00226 0.22819,-0.03065 0.33377,-0.08515c1.09895,-0.57105 2.22458,-0.84295 3.3769,-0.8157c1.55194,0.03747 3.15381,0.11183 4.80565,0.22308c1.86981,0.12715 3.72883,0.03916 5.57707,-0.26395c0.19584,-0.03235 0.45128,0 0.67947,-0.04257c2.07302,-0.37918 3.90763,-0.66357 5.50384,-0.85317c2.59525,-0.30994 5.28757,-0.16177 7.97989,-0.05109c1.37936,0.05563 2.78143,0.00625 4.20621,-0.14815c1.91068,-0.20662 3.88436,-0.42005 5.92106,-0.6403c0.24182,-0.02611 0.47455,-0.01248 0.6982,0.04087c0.92525,0.22479 1.89194,0.32469 2.90008,0.29972c2.14738,-0.05279 4.35948,-0.16348 6.34509,0.46149c0.30312,0.09536 0.66073,0.07152 0.96896,0.03065c2.36479,-0.30653 4.66089,-0.56253 6.88832,-0.76802c0.37124,-0.03406 0.72374,-0.01305 1.05751,0.06301c1.39072,0.31788 2.77235,0.43311 4.14491,0.34569c0.63519,-0.04087 1.72847,-0.12771 2.22912,0.34569c1.06262,1.00927 2.09289,1.91238 3.0908,2.70935c0.48931,0.39054 0.86225,0.76291 1.11882,1.11712c1.15968,1.59564 0.7544,3.93716 0.70842,5.75247c-0.00681,0.28609 -0.01589,0.5631 -0.02725,0.83103c-0.04654,1.12393 0.08288,2.23991 0.38827,3.34794c0.1737,0.63519 0.22989,1.44919 0.14134,2.00264c-0.12148,0.75496 -0.23614,1.50027 -0.34399,2.23594c-0.08174,0.55686 0.09196,1.09157 0.21967,1.62289c0.08174,0.33604 0.12488,0.68741 0.12943,1.0541c0.02725,2.5067 0.08003,5.18199 -0.07833,7.76362c-0.06471,1.05013 -0.06301,2.01739 0.00511,2.90178c0.07493,0.97748 0.16802,1.94984 0.27928,2.9171c0.19073,1.65865 -0.25714,3.42118 -0.71693,5.03214c-0.04428,0.1544 -0.0772,0.31107 -0.09877,0.47c-0.00795,0.05563 -0.00057,0.10899 0.02213,0.16008c0.67606,1.54115 0.65903,3.06186 0.50406,4.69836c-0.09536,1.00473 -0.06925,2.09629 0.07833,3.27472c0.10104,0.81173 0.15724,1.61153 0.16859,2.39942c0.03576,2.58163 -0.05279,5.36931 0.18733,8.11272c0.12715,1.44862 0.13283,2.8751 0.01703,4.27944c-0.0386,0.46206 -0.11637,0.92298 -0.2333,1.38277c-0.12261,0.48363 0.18221,0.88211 0.50747,1.19205c0.02423,0.02314 0.03707,0.05577 0.0351,0.08921c-0.00197,0.03345 -0.01854,0.06435 -0.04531,0.08448c-0.31334,0.24295 -0.59318,0.49782 -0.83955,0.76462c-0.56367,0.60964 0.39508,0.71522 0.18902,1.17331c-0.12771,0.28269 -0.24352,0.59602 -0.18221,0.91787c0.14078,0.73225 0.14815,1.3453 0.02213,1.83916c-0.27757,1.09497 -1.00983,1.691 -1.863,2.35174c-0.28041,0.21684 -0.54778,0.48476 -0.80208,0.80378c-0.92412,1.15459 -1.79204,2.43177 -2.60377,3.83158c-0.19641,0.33831 -0.34626,0.69479 -0.44957,1.06944c-0.09991,0.35875 -0.26906,0.75212 -0.50747,1.18012c-0.14531,0.25884 -0.34285,0.44163 -0.59261,0.54834c-1.55647,0.66073 -3.0329,1.71314 -3.90139,3.10783c-0.25033,0.40189 -0.45638,0.84635 -0.83103,1.15118c-0.98656,0.79583 -1.97993,1.59224 -2.98011,2.3892c-1.01835,0.81059 -2.0997,1.82042 -2.79279,2.89326c-0.52337,0.80832 -1.01664,1.4787 -1.47984,2.01115c-1.51219,1.73868 -3.69023,3.38541 -5.97555,4.00357c-1.08306,0.29403 -2.27454,0.3877 -3.57443,0.28098c-1.20227,-0.09763 -2.42383,-0.20038 -3.66469,-0.30823c-1.25676,-0.10899 -2.46072,0.00851 -3.69193,0.09366c-0.05109,0.0034 -0.09763,-0.01022 -0.13964,-0.04087c-0.10218,-0.07379 -0.19981,-0.14986 -0.29291,-0.22819c-1.04729,-0.87871 -2.17974,-0.51428 -3.21851,0.08855c-1.01324,0.58921 -2.12354,0.79186 -3.41776,0.83614c-0.29631,0.01022 -0.59716,-0.04428 -0.90255,-0.16348c-0.61873,-0.23954 -1.17161,-0.35591 -1.65865,-0.3491c-0.92639,0.01248 -1.86641,0.05733 -2.82004,0.13453c-0.89688,0.07267 -1.66376,0.20776 -2.30065,0.4053c-0.22932,0.07038 -0.45411,0.22251 -0.67435,0.45638c-0.40075,0.42233 -0.80435,0.86282 -1.21078,1.32147c-0.05109,0.05563 -0.0982,0.05279 -0.14134,-0.00851c-0.29291,-0.41552 -0.63349,-0.75099 -1.18524,-0.7561c-1.90387,-0.01703 -3.56421,0.60113 -5.33866,1.13074c-2.80471,0.83955 -7.08585,1.57009 -6.69588,5.37952c0.00795,0.07379 -0.02213,0.12601 -0.09025,0.15667c-1.73924,0.76632 -3.17481,1.884 -4.30669,3.35306c-0.51996,0.67435 -1.04559,1.3629 -1.5769,2.06564c-0.31674,0.41892 -0.65789,0.82535 -1.02345,1.2193c-1.26186,1.35893 -2.71446,2.67869 -3.92183,4.024c-1.78466,1.98902 -3.68115,4.18068 -5.68946,6.57498c-0.04768,0.05676 -0.05619,0.11921 -0.02554,0.18733l0.45638,0.99451c0.01492,0.03338 0.00983,0.07232 -0.01319,0.10073c-0.02302,0.02841 -0.06005,0.04148 -0.0958,0.0338l-1.70633,-0.35421c-0.14811,-0.03043 -0.3001,0.03032 -0.38643,0.15445c-0.08633,0.12413 -0.0904,0.28775 -0.01035,0.41603l0.59261,0.94852c0.06471,0.10558 0.0386,0.1385 -0.07833,0.09877c-0.26566,-0.08855 -0.51428,-0.19924 -0.74588,-0.33207c-0.06585,-0.0386 -0.12261,-0.02782 -0.17029,0.03235l-3.6187,4.55021c-0.05676,0.07152 -0.12829,0.09196 -0.21457,0.06131l-0.34399,-0.12261c-0.08855,-0.03179 -0.13283,-0.0948 -0.13283,-0.18902c0.00795,-1.6314 0.00568,-3.19922 -0.00681,-4.70347c-0.00454,-0.48136 -0.10047,-0.93547 -0.28779,-1.36234c-0.34399,-0.78675 -0.42233,-1.53944 -0.29801,-2.38068c0.17824,-1.21021 0.19299,-2.42269 0.04428,-3.63744c-0.3088,-2.51578 -0.67833,-4.99751 -1.1086,-7.44518c-0.15156,-0.86849 -0.51769,-1.66205 -0.63008,-2.53735c-0.13453,-1.05751 -0.10047,-2.09629 -0.26906,-3.15892c-0.10728,-0.67606 -0.39337,-1.26868 -0.80549,-1.80851c-1.14323,-1.49857 -2.505,-2.73375 -4.08531,-3.70556c-0.19186,-0.11807 -0.42062,-0.17654 -0.68628,-0.1754c-1.04219,0.0034 -2.05202,0.18392 -3.08229,0.16689c-2.57822,-0.03916 -5.2433,-0.12431 -7.86069,-0.03406c-1.80509,0.06131 -3.73621,0.34229 -5.46127,0.38487c-0.44957,0.01022 -0.91276,-0.09025 -1.29082,-0.33718c-0.76462,-0.49896 -1.87492,-0.38656 -2.62931,-0.73225c-0.24749,-0.11353 -0.51201,-0.3349 -0.79356,-0.66414c-0.03633,-0.04314 -0.08288,-0.06471 -0.13964,-0.06471c-0.19413,-0.0034 -0.37975,0.02441 -0.55686,0.08344c-0.65732,0.2157 -1.33906,0.43311 -2.04521,0.65222c-0.63689,0.19867 -1.2454,0.16518 -1.82553,-0.10047c-0.09612,-0.04396 -0.20847,-0.03083 -0.2912,0.03406l-1.46281,1.1665c-0.01187,0.0101 -0.02854,0.01186 -0.04254,0.00449c-0.01399,-0.00737 -0.02268,-0.02247 -0.02217,-0.03855c0.05279,-0.94171 -0.26054,-1.66546 -1.29422,-1.67057c-0.63179,-0.0017 -1.21589,0.00511 -1.83745,-0.19584c-0.53358,-0.17029 -1.0541,-0.29972 -1.56158,-0.38827c-0.40359,-0.06981 -0.72034,-0.43935 -0.71522,-0.85657c0.01135,-1.23064 -0.21798,-2.57312 -0.68798,-4.02741c-0.28779,-0.88893 -0.88041,-1.54965 -0.83614,-2.57822c0.03747,-0.84976 0.10728,-1.691 -0.13112,-2.51011c-0.1124,-0.3894 -0.18676,-0.79186 -0.22308,-1.20737c-0.1385,-1.59053 -0.1124,-3.26053 0.07833,-5.00999c0.05279,-0.48703 0.06641,-1.16139 -0.18902,-1.60927c-0.21798,-0.38258 -0.48136,-0.74815 -0.79015,-1.09669c-0.45638,-0.51769 -0.1754,-1.10179 0.36613,-1.37255c0.08951,-0.0436 0.1585,-0.11991 0.19242,-0.21286c0.25033,-0.67606 0.09366,-1.70122 -0.01703,-2.3858c-0.1737,-1.06035 -0.3667,-2.17747 -0.57899,-3.35134c-0.24522,-1.36063 -0.02213,-2.69062 0.03916,-4.04614c0.03576,-0.77824 -0.18221,-1.56668 -0.37465,-2.31767c-0.03633,-0.1385 -0.0948,-0.14872 -0.1754,-0.03065c-0.29403,0.43141 -0.57729,0.8157 -0.84976,1.15288c-0.23614,0.29177 -0.386,0.25317 -0.44957,-0.1158c-0.03973,-0.2316 -0.06925,-0.47511 -0.08855,-0.73056c-0.02498,-0.34512 0.06188,-0.6596 0.26054,-0.94342c0.77653,-1.112 1.60415,-2.26659 0.41892,-3.4961c-0.15213,-0.15667 -0.19697,-0.33888 -0.13453,-0.54664c0.33831,-1.13755 0.63405,-2.62647 0.88722,-4.46676c0.07493,-0.5438 0.08684,-1.04105 0.03576,-1.49175c-0.08855,-0.76632 -0.71012,-1.7506 -1.06092,-2.49819c-0.16008,-0.34172 -0.11864,-0.67095 0.12431,-0.98769c0.39849,-0.51769 0.82762,-1.13244 0.37124,-1.77104c-0.2157,-0.30199 -0.36784,-0.59489 -0.45638,-0.87871c-0.1737,-0.55856 -0.31845,-1.24767 -0.43425,-2.06735c-0.01135,-0.08628 0.00454,-0.16689 0.04768,-0.24182c0.23387,-0.40302 0.43595,-0.79242 0.60624,-1.16821c0.1124,-0.24749 0.15156,-0.65335 0.1175,-1.21759c-0.13283,-2.26488 -0.2543,-4.52296 -0.36443,-6.77422c-0.00681,-0.15326 0.02157,-0.29915 0.08515,-0.43765l0.50577,-1.09838c0.08515,-0.18619 0.03235,-0.24295 -0.15837,-0.17029l-1.01324,0.38656c-0.11665,0.0446 -0.24853,0.01808 -0.33888,-0.06812c-0.42403,-0.39849 -0.58239,-0.9298 -0.67606,-1.47132c-0.19299,-1.11031 0.10332,-2.03101 0.88893,-2.76214c0.34172,-0.31788 0.66811,-0.65619 0.97917,-1.01494c0.74247,-0.85657 -0.37294,-1.36063 -0.98429,-1.59053c-0.06925,-0.02611 -0.12091,-0.07209 -0.15496,-0.13793c-0.18733,-0.35421 -0.21967,-0.72204 -0.01873,-1.09838c1.36574,-2.55779 1.06262,-5.2433 0.65903,-7.99692c-0.03939,-0.27116 -0.02725,-0.54733 0.03576,-0.814c0.2912,-1.2278 0.68798,-2.49819 0.85146,-3.76856c0.13453,-1.0541 -0.42743,-1.69611 -0.87019,-2.57482c-0.03187,-0.06501 -0.02182,-0.14277 0.02554,-0.19754c0.40302,-0.45751 0.72772,-0.92355 0.97408,-1.3981c0.80549,-1.54625 2.51351,-2.38239 4.23517,-2.47945c0.64541,-0.03747 1.24995,-0.05279 1.90046,-0.18902c0.85827,-0.18051 1.69441,-0.35818 2.50841,-0.53301c0.27247,-0.05904 0.92525,-0.12886 1.95836,-0.20946c1.04105,-0.08174 2.11049,-0.16121 3.2083,-0.23841c2.14398,-0.14986 4.40716,-0.37294 6.5835,-0.52449c1.66546,-0.1175 3.2645,-0.07322 4.94358,-0.12943c0.19584,-0.00511 0.44446,-0.06981 0.62327,-0.14815c1.15799,-0.50747 2.48116,-0.47171 3.76346,-0.33377c0.01022,0.00114 0.01476,0.00625 0.01362,0.01532c0,0.0034 0,0.00625 0,0.00851"/><path d="M282.24636,125.29067c-0.01022,-0.07607 -0.04995,-0.09763 -0.11921,-0.06471l-0.10387,0.04768c-0.0931,0.04428 -0.14078,0.01476 -0.14305,-0.08855c-0.0193,-1.29876 -0.02384,-2.67188 -0.01362,-4.11937c0.00568,-0.87757 0.12318,-1.60813 0.3525,-2.19166c0.18505,-0.47 0.38032,-0.9332 0.5858,-1.38958c0.03973,-0.08741 0.02213,-0.16008 -0.05279,-0.21798c-0.17597,-0.13623 -0.19867,-0.29347 -0.06812,-0.47171c0.22989,-0.31674 0.37124,-0.73907 0.47341,-1.12393c0.01652,-0.06204 0.0678,-0.10866 0.13112,-0.11921c0.13509,-0.02384 0.25771,-0.07267 0.36784,-0.14645c0.06248,-0.04161 0.10736,-0.10468 0.12601,-0.17711c0.16121,-0.61419 0.49441,-1.06035 0.99961,-1.33849c0.26792,-0.14759 0.76858,-0.26566 1.50197,-0.35421c0.70842,-0.08628 1.37652,-0.14078 2.00433,-0.16348c0.35193,-0.01248 0.856,0.05393 1.51219,0.19924c1.82723,0.4053 3.69875,0.67776 5.5362,0.97917c0.04882,0.00795 0.08231,0.0352 0.10047,0.08174c0.51655,1.31352 1.01154,2.65429 1.48495,4.02229c0.89744,2.58844 1.26357,5.34036 0.4104,7.89304c-0.02059,0.05985 -0.01151,0.12592 0.02445,0.17799c0.03595,0.05208 0.09452,0.08398 0.15777,0.08595c0.22308,0.00681 0.35081,0.17881 0.35421,0.40018c0.00681,0.39508 0.1158,0.79527 -0.30142,1.04048c-0.05331,0.03177 -0.0739,0.09873 -0.04768,0.15496l0.69309,1.50368c0.02498,0.0545 0.03179,0.11126 0.02043,0.17029c-0.18733,0.9718 -0.2509,1.80964 -0.19073,2.51351c0.06641,0.7595 0.25714,1.519 0.14134,2.28532c-0.09763,0.65279 -0.17086,1.26754 -0.21967,1.84426c-0.06981,0.83273 0.18562,1.36574 0.53301,2.08438c0.06793,0.13934 0.06024,0.30414 -0.02043,0.43765c-0.31674,0.52449 -0.45185,1.09384 -0.4053,1.70803c0.08855,1.17502 0.42914,2.26319 -0.15326,3.38881c-0.22989,0.44446 -0.14986,0.86679 -0.25204,1.32147c-0.01589,0.06812 -0.00114,0.12829 0.04428,0.18051c0.8174,0.94683 0.97066,2.08438 0.68117,3.28493c-0.07947,0.32923 -0.11978,0.6596 -0.12091,0.9911c-0.00226,0.4859 -0.05279,0.99677 -0.15156,1.53263c-0.04598,0.25374 -0.25204,0.50918 -0.23841,0.74588c0.08174,1.2965 0.18164,2.61569 0.29972,3.95759c0.0386,0.44843 0.11296,0.91674 0.22308,1.40491c0.12943,0.58411 -0.38146,0.71182 -0.814,0.7561c-0.14305,0.01476 -0.16348,0.07267 -0.06131,0.1737c0.71636,0.70047 0.814,1.45543 0.29291,2.26488c-0.37465,0.58239 -0.77993,1.11882 -0.98429,1.78977c-0.19867,0.65051 -0.40586,1.28343 -0.62157,1.89875c-0.15496,0.44787 -0.40359,0.82421 -0.83443,1.049c-0.61078,0.31902 -1.09497,0.51031 -1.45259,0.57389c-0.51315,0.09196 -1.07114,0.12829 -1.67398,0.10899c-0.66584,-0.02384 -1.2823,0.18221 -1.92771,0.13964c-0.59773,-0.03916 -1.16821,0.11409 -1.7506,0.17711c-0.37805,0.04201 -0.7402,0.02498 -1.08647,-0.05109c-0.30482,-0.06641 -0.45468,0.16859 -0.73225,0.13623c-0.34285,-0.03973 -0.69082,-0.04314 -1.04389,-0.01022c-0.21684,0.02043 -0.42403,-0.01192 -0.62157,-0.09706c-0.51769,-0.22138 -1.05241,-0.29291 -1.5718,-0.54323c-0.39678,-0.19073 -0.83443,-0.18562 -1.15459,-0.53301c-0.69252,-0.75383 -1.07625,-1.61777 -1.15118,-2.59184c-0.05109,-0.68287 -0.10047,-1.61948 0.09877,-2.30575c0.07493,-0.26054 0.15667,-0.48874 0.06471,-0.7595c-0.14645,-0.43595 -0.21798,-0.89914 -0.21457,-1.38958c0,-0.09536 -0.03576,-0.17881 -0.10728,-0.25033c-0.08252,-0.08039 -0.12813,-0.19133 -0.12601,-0.30653c0.04768,-1.91749 0.10387,-3.76346 0.25544,-5.64008c0.17029,-2.09913 0.31902,-4.0961 0.44616,-5.99088c0.11069,-1.66886 0.01532,-3.4382 0.12261,-5.09173c0.03065,-0.48136 0.19413,-1.36971 0.49044,-2.66507c0.06812,-0.29291 0.0772,-0.71012 0.02725,-1.25165c-0.06698,-0.72431 -0.13283,-1.47473 -0.19754,-2.25126c-0.22308,-2.67359 0.00681,-5.39826 -0.10218,-8.11953c-0.01476,-0.38827 0.06016,-0.76121 0.22479,-1.11882c0.06245,-0.1385 0.0789,-0.32923 0.04938,-0.57217"/><path d="M248.22028,166.98669c-0.08588,-0.01849 -0.1741,0.01492 -0.22479,0.08515c-0.08174,0.1124 -0.20435,0.16859 -0.34059,0.16177c-0.60964,-0.02611 -1.221,-0.02327 -1.83404,0.00851c-0.30085,0.01589 -0.59602,-0.0034 -0.88552,-0.0579c-0.41211,-0.07833 -0.83614,-0.02384 -1.23973,-0.13453c-0.38487,-0.10558 -0.77596,-0.17597 -1.17331,-0.21116c-0.38656,-0.03576 -1.24483,-0.25714 -1.49006,-0.57389c-0.71182,-0.91617 -1.07568,-1.94757 -1.09157,-3.09421c-0.00908,-0.66641 -0.02554,-1.0876 -0.04938,-1.26357c-0.07663,-0.56026 -0.25374,-1.18353 -0.19754,-1.73528c0.11921,-1.15628 0.38827,-2.2734 0.10728,-3.51483c-0.15894,-0.70955 -0.32185,-1.41342 -0.48874,-2.11163c-0.0244,-0.10216 0.00377,-0.2091 0.07493,-0.28439c1.23632,-1.31295 0.84295,-2.72978 0.43084,-4.41057c-0.13793,-0.56026 -0.27076,-1.284 -0.19584,-1.84767c0.24749,-1.86186 0.34796,-3.60735 0.30142,-5.23649c-0.05223,-1.79261 -0.07607,-3.43933 -0.07152,-4.94018c0.00454,-2.09005 0.18845,-4.3328 0.55174,-6.72824c0.09877,-0.65732 0.29972,-1.56782 0.60283,-2.73149c0.07379,-0.28269 0.09366,-0.71069 0.0596,-1.284c-0.0545,-0.94342 -0.21798,-1.8715 -0.32016,-2.8013c-0.13283,-1.21759 0.47341,-2.51691 -0.72204,-3.40925c-0.04572,-0.03348 -0.08158,-0.07815 -0.10387,-0.12943c-0.11807,-0.27814 -0.13,-0.55515 -0.03576,-0.83103c0.42346,-1.22952 1.22043,-2.07529 2.3909,-2.53735c0.36784,-0.14418 1.21759,-0.33433 2.54928,-0.57048c1.47246,-0.26226 2.93356,-0.53075 4.38332,-0.80549c0.35193,-0.06585 0.74077,-0.09593 1.1665,-0.09025c0.34172,0.00454 0.56708,0.12148 0.67606,0.35081c0.44616,0.94171 1.30614,0.77313 2.13716,0.54493c0.24863,-0.06812 0.49555,-0.08117 0.74077,-0.03916c1.57861,0.26735 3.49439,2.07075 3.63063,3.69023c0.27417,3.23725 0.64201,6.49154 0.46149,9.60448c-0.02384,0.39508 -0.06812,0.81343 -0.13283,1.25505c-0.08344,0.57899 -0.22138,1.14096 -0.10047,1.71995c0.13623,0.64938 0.26452,1.31238 0.38487,1.98902c0.14418,0.80264 0.16291,1.6348 0.05619,2.49648c-0.18278,1.49403 -0.34342,2.93073 -0.48193,4.3101c-0.07267,0.72204 -0.08458,1.51447 -0.03576,2.37728c0.09025,1.58883 -0.23501,2.99715 -0.79697,4.44292c-0.0539,0.13789 -0.04327,0.29229 0.02895,0.42062c0.39508,0.70615 0.72317,1.47701 0.98429,2.31257c0.37294,1.19545 0.20264,2.15419 -0.77142,2.98862c-0.04011,0.03451 -0.07012,0.07923 -0.08684,0.12943c-0.06698,0.19299 -0.06641,0.39167 0.0017,0.59602c0.28098,0.84805 0.61135,1.73868 0.48193,2.63953c-0.07152,0.49953 -0.13283,1.02742 -0.18392,1.58372c-0.00568,0.06245 0.0176,0.11069 0.06981,0.14474l0.13623,0.08855c0.06245,0.03973 0.0948,0.09706 0.09706,0.17199c0.05109,1.25335 -0.12545,2.35798 -0.52961,3.31388c-1.47473,3.48759 -5.34887,4.73072 -8.9216,3.94737"/></g><path d="M153.19728,125.41838c0.04768,-0.20946 0.07152,-0.43425 0.1754,-0.62498c0.71069,-1.29195 1.62232,-2.37444 2.73489,-3.24747c1.25335,-0.98429 2.0997,-1.91578 2.87794,-3.30537c0.64484,-1.15231 1.45884,-2.28191 2.44199,-3.38881c3.91332,-4.40375 7.46902,-8.58103 10.6671,-12.53179c0.03633,-0.04428 0.08231,-0.07209 0.13793,-0.08344c0.93434,-0.19413 1.68816,-0.72091 2.26147,-1.58031c0.38032,-0.57105 0.76291,-1.1438 1.14777,-1.71825c0.32016,-0.47511 0.72715,-0.814 1.22952,-1.13585c1.10803,-0.71069 2.23253,-1.4577 3.37349,-2.24104c1.0507,-0.72204 1.87321,-1.66205 2.41133,-2.7996c0.37465,-0.78846 1.221,-1.31466 2.00604,-1.52412c0.53812,-0.14305 1.51787,-0.31788 2.93925,-0.52449c1.80509,-0.26338 3.6153,-0.51372 5.43061,-0.75099c0.02725,-0.0034 0.04938,-0.01589 0.06641,-0.03747c0.01248,-0.01589 0.03008,-0.0193 0.05279,-0.01022c0.01135,0.00568 0.021,0.01362 0.02895,0.02384c0.19299,0.25771 0.37635,0.52904 0.55004,0.814c0.50066,0.8174 1.2193,0.13964 1.62458,-0.31334c0.26452,-0.29517 0.56934,-0.47285 0.91446,-0.53301c0.50634,-0.08969 1.05467,-0.13509 1.64502,-0.13623c0.97066,-0.00114 1.91578,-0.0017 2.83536,-0.0017c0.25657,0 0.47738,-0.0596 0.66244,-0.17881c0.97408,-0.63008 1.67908,-0.55686 2.63783,0.03065c0.1737,0.10558 0.32752,0.08174 0.46149,-0.07152c1.08476,-1.24483 2.71275,-0.85317 4.1364,-0.80718c0.51769,0.01703 0.94001,-0.1385 1.26698,-0.4666c0.25997,-0.25997 0.56083,-0.33547 0.90255,-0.22649c0.58921,0.18845 1.18183,0.28041 1.77785,0.27588c0.89007,-0.00568 1.74039,-0.05052 2.55098,-0.13453c1.61437,-0.16461 3.4575,-0.17937 5.52938,-0.04428c0.47,0.03065 0.88552,0.01362 1.33509,-0.10558c0.55686,-0.14986 0.97408,-0.29801 1.61096,-0.25714c0.66868,0.04314 1.33793,0.07493 2.00775,0.09536c0.77484,0.02213 1.90727,0.15667 2.86091,0.10387c0.06471,-0.0034 0.12204,-0.02554 0.17199,-0.06641c0.37465,-0.29801 0.63519,-0.55004 1.17161,-0.50236c0.34285,0.03065 0.69422,0.05507 1.0541,0.07322c0.34172,0.01703 0.69026,0.04257 1.04559,0.07663c1.02289,0.09991 1.68646,0.12488 1.99071,0.07493c0.3701,-0.05904 0.7419,-0.15156 1.11541,-0.27757c0.17711,-0.05904 0.36613,-0.05166 0.56708,0.02213c1.39299,0.51598 2.93413,0.10728 4.27944,-0.38487c1.08533,-0.39621 2.14852,-0.63008 3.18957,-0.7016c0.12601,-0.00908 0.19754,0.04882 0.21457,0.1737l0.04768,0.33547c0.01248,0.09082 0.05676,0.11013 0.13283,0.0579c1.32147,-0.90028 2.91029,-1.25165 4.76648,-1.0541c0.79129,0.08515 1.498,0.11523 2.12014,0.09025c0.49044,-0.0193 0.82081,0.19242 0.9911,0.63519c0.02157,0.05676 0.06188,0.09139 0.12091,0.10387c0.38146,0.08174 0.83783,0.0579 1.07795,-0.2895c0.48874,-0.70842 1.09669,-0.69138 1.76934,-0.30994c0.96896,0.55004 2.0367,0.85998 3.06867,1.30273c0.07947,0.03406 0.13907,0.01248 0.17881,-0.06471l0.12261,-0.22989c0.03065,-0.0579 0.02498,-0.11126 -0.01703,-0.16008l-0.9911,-1.17502c-0.01417,-0.01606 -0.01764,-0.03877 -0.00898,-0.05864c0.00866,-0.01986 0.02799,-0.03343 0.04985,-0.03503c0.4104,-0.02725 0.80549,-0.01192 1.221,-0.05109c2.99033,-0.28269 5.40451,-0.48419 7.24252,-0.60454c1.90614,-0.12488 3.91785,-0.10275 6.03515,0.06641c1.32715,0.10558 2.80414,0.10672 4.431,0.0034c1.5894,-0.10104 3.36327,-0.13397 5.32163,-0.09877c0.34285,0.00681 0.67492,0.05733 0.9962,0.15156c0.02207,0.0063 0.04066,0.02124 0.05156,0.04144c0.0109,0.0202 0.01318,0.04394 0.00633,0.06585c-0.03179,0.10104 -0.0352,0.20605 -0.01022,0.31504c0.01476,0.06585 0.05563,0.09253 0.12261,0.08003c0.46887,-0.08628 0.81343,-0.28269 1.03367,-0.58921c0.43935,-0.60964 1.03707,-0.72034 1.71654,-0.45128c0.99451,0.39394 2.04748,0.7419 3.15892,1.04389c0.05336,0.01476 0.10218,0.00511 0.14645,-0.02895c0.07493,-0.0579 0.12148,-0.13509 0.13964,-0.2316c0.01362,-0.07038 -0.0034,-0.13169 -0.05109,-0.18392l-0.96896,-1.06432c-0.01798,-0.02045 -0.02484,-0.04839 -0.0184,-0.07484c0.00645,-0.02646 0.02539,-0.0481 0.05075,-0.05799c1.32487,-0.47511 2.44199,-0.35081 3.77708,-0.16348c0.53471,0.07493 1.07625,0.03406 1.5769,0.22308c0.20548,0.0772 0.41608,0.10956 0.63179,0.09706c1.75174,-0.09991 3.49099,-0.22422 5.21775,-0.37294c0.98599,-0.08515 1.58542,0.33718 2.44029,0.6437c0.07493,0.02611 0.14986,0.02611 0.22479,0c0.40983,-0.14191 0.79583,-0.25828 1.15799,-0.3491c0.85317,-0.21116 1.5139,0.16008 2.15419,0.83614c0.0386,0.04087 0.08628,0.06528 0.14305,0.07322c0.34853,0.04542 0.67719,0.02839 0.98599,-0.05109c1.34304,-0.34512 2.44086,-0.91106 3.29344,-1.69782c0.04428,-0.04087 0.09593,-0.05393 0.15496,-0.03916c0.78107,0.19186 1.52865,0.42119 2.24275,0.68798c0.52449,0.19641 0.88609,0.53301 1.08476,1.00983c0.02611,0.06245 0.07152,0.08515 0.13623,0.06812c0.53471,-0.14418 1.06375,-0.28552 1.58712,-0.42403c0.47,-0.12431 0.99451,-0.15667 1.49175,-0.12601c1.36347,0.08515 2.80244,0.27474 4.31691,0.56877c2.37615,0.46206 4.53828,1.263 6.48643,2.40282c0.25714,0.14986 0.69138,0.28779 0.98599,0.26566c1.36744,-0.10728 2.76384,0.38315 3.51483,1.56499c0.27076,0.42573 0.48022,0.82762 0.83955,1.20567c2.20188,2.30916 3.31048,5.35399 2.45561,8.47885c-0.06131,0.22138 -0.07607,0.44957 -0.04428,0.68457c0.22024,1.65297 0.41324,3.28039 0.57899,4.88228c0.05223,0.50406 0.0965,1.03027 0.13283,1.57861c0.0352,0.52563 0.03349,1.01381 -0.00511,1.46451c-0.0772,0.87985 -0.15724,1.78636 -0.24011,2.71956c-0.07607,0.84919 -0.08572,1.68646 -0.02895,2.51181c0.06016,0.86622 0.11126,1.7279 0.15326,2.58503c0.0227,0.47114 0.04542,0.96669 0.06812,1.48665c0.04654,1.09669 0.08401,2.20812 0.1124,3.33432c0.01476,0.56765 0.04144,1.15345 0.08003,1.75741c0.0352,0.56196 0.06131,1.15118 0.07833,1.76763c0.02384,0.92809 -0.15156,1.75741 -0.20776,2.63272c-0.03065,0.48363 0.10332,0.92355 0.40189,1.31976c0.03633,0.04768 0.03179,0.09139 -0.01362,0.13112c-0.98939,0.84295 -1.02516,2.02818 -0.77484,3.19808c0.1124,0.52449 0.16802,1.02289 0.16689,1.49516c-0.00114,0.3894 0.02839,0.77937 0.08855,1.1699c0.08174,0.53983 0.1737,1.04559 0.13112,1.60245c-0.15099,1.98447 -0.33093,4.00981 -0.53983,6.07602c-0.0088,0.08576 0.01296,0.171 0.06131,0.24011c0.73737,1.06432 0.49044,2.13036 -0.42743,2.94265c-0.10672,0.09423 -0.14929,0.21229 -0.12771,0.35421l0.06981,0.45468c0.0193,0.13169 0.07833,0.15326 0.17711,0.06471l0.78334,-0.6982c0.15326,-0.13737 0.21627,-0.10387 0.18902,0.10047c-0.41552,3.04255 -0.6034,6.09191 -0.56367,9.1481c0.02839,2.27624 0.03406,5.86827 0.01703,10.77609c-0.00226,0.51996 -0.02782,1.03707 -0.07663,1.55137c-0.06471,0.69138 -0.04938,1.35383 -0.12091,2.05883c-0.08401,0.8367 -0.16632,1.63537 -0.24692,2.39601c-0.00735,0.06548 -0.04801,0.12226 -0.10728,0.14986l-1.11031,0.50236c-0.12365,0.05602 -0.2039,0.17872 -0.20605,0.31504c-0.00681,0.63462 -0.00454,1.31522 0.00681,2.0418c0.01022,0.66754 0.21343,1.16707 0.60964,1.49857c0.57729,0.48363 0.89403,0.9928 0.72034,1.79147c-0.29801,1.35893 -1.02516,2.56801 -1.69441,3.79071c-0.03179,0.0579 -0.02782,0.11353 0.01192,0.16689c1.2823,1.68589 0.00511,3.36668 -1.48154,4.21643c-0.03045,0.01736 -0.05106,0.04792 -0.05574,0.08265c-0.00468,0.03474 0.00712,0.06966 0.0319,0.09445l0.65563,0.65903c0.05918,0.05881 0.06435,0.15249 0.01192,0.21627c-0.11921,0.14986 -0.24409,0.29403 -0.37465,0.43254c-0.9718,1.0297 -1.75174,1.9067 -2.33981,2.63102c-0.21229,0.26111 -0.34967,0.57275 -0.41211,0.9349c-0.30653,1.78636 -1.79658,2.35003 -2.90008,3.51824c-0.9298,0.98315 -1.63197,2.17349 -2.10651,3.57102c-0.56026,1.65524 -2.07245,2.1559 -3.10102,3.39393c-0.50577,0.60964 -0.84125,1.32487 -1.20567,2.05883c-0.36102,0.72544 -0.70388,1.46451 -1.02857,2.2172c-0.02951,0.06925 -0.08174,0.10218 -0.15667,0.09877l-0.86338,-0.04087c-0.1544,-0.00795 -0.23898,0.06528 -0.25374,0.21967c-0.06131,0.68457 0.16177,1.30103 -0.29291,1.91919c-0.44503,0.60397 -1.20908,1.49516 -2.29213,2.67359c-0.05904,0.06358 -0.12601,0.07436 -0.20095,0.03235l-0.19924,-0.11069c-0.08174,-0.04542 -0.14815,-0.02951 -0.19924,0.04768c-0.61759,0.93093 -1.24938,1.85902 -1.89535,2.78427c-0.18221,0.26226 -0.42914,0.36443 -0.66073,0.56877c-0.55515,0.4859 -0.99508,0.94796 -1.31976,1.38617c-0.88893,1.20227 -1.80851,2.46866 -2.75874,3.79922c-0.98769,1.38448 -2.16271,2.62421 -3.19638,3.97973c-0.86338,1.13074 -1.70803,2.24616 -3.06696,2.61058c-0.18619,0.04995 -0.35705,0.12261 -0.51258,0.21798c-0.05333,0.03349 -0.08353,0.09392 -0.07833,0.15667c0.14986,1.71825 -1.40491,2.24785 -2.14057,3.50632c-0.37635,0.6437 -1.07625,1.04559 -1.6331,1.54115c-0.0322,0.02852 -0.07586,0.04037 -0.11778,0.03198c-0.04192,-0.00838 -0.07717,-0.03603 -0.09508,-0.07456l-0.48193,-1.03367c-0.16121,-0.34512 -0.28439,-0.33207 -0.36953,0.03916c-0.07038,0.30199 -0.11069,0.63973 -0.12091,1.01324c-0.01362,0.42062 0.24182,0.67776 0.39508,1.04048c0.43254,1.01154 -0.78164,1.81701 -0.95874,2.75703c-0.18562,0.98939 -0.62838,1.99242 -1.83234,1.89535c-0.2509,-0.02043 -0.47909,0.03292 -0.68457,0.16008c-0.04882,0.02951 -0.07038,0.07267 -0.06471,0.12943c0.08344,0.98429 -0.49215,1.51049 -1.24654,2.00775c-0.26735,0.17711 -0.66414,0.49384 -0.83273,0.76632c-0.26054,0.42062 -0.45468,0.88211 -0.8157,1.23121c-0.39621,0.37918 -0.86054,0.61759 -1.39299,0.71522c-0.65732,0.12091 -1.26357,0.24863 -1.87662,0.54834c-0.70388,0.34626 -1.42251,0.66471 -2.1559,0.95534c-0.02839,0.01135 -0.05847,0.01703 -0.09025,0.01703c-0.03065,0 -0.05563,-0.00851 -0.07493,-0.02554c-0.02517,-0.02133 -0.02963,-0.05847 -0.01022,-0.08515l0.6965,-0.97066c0.01789,-0.0249 0.02033,-0.05772 0.00633,-0.085c-0.01399,-0.02728 -0.04209,-0.04443 -0.07275,-0.04442c-0.22932,-0.0034 -0.46206,-0.00681 -0.6982,-0.01022c-0.17937,-0.00226 -0.37124,0.04882 -0.57559,0.15326c-1.05922,0.53585 -2.17293,0.8719 -3.34113,1.00813c-1.0683,0.12488 -2.16555,0.13112 -3.29175,0.01873c-1.24995,-0.12601 -2.62534,-0.3298 -4.12618,-0.61135c-2.49138,-0.4666 -4.89079,-0.43935 -7.38046,0.0545c-0.30085,0.06016 -0.55402,-0.00965 -0.7595,-0.20946c-0.04158,-0.03945 -0.09624,-0.06192 -0.15326,-0.06301c-1.00246,-0.02043 -2.07302,-0.04542 -3.21171,-0.07493c-0.46547,-0.01248 -0.80775,0.02384 -1.02686,0.10899c-0.6965,0.27076 -1.30103,0.34229 -2.0384,0.30482c-0.35081,-0.01703 -0.7226,-0.06414 -1.11541,-0.14134c-0.64711,-0.12431 -1.44407,-0.3525 -2.09629,-0.28269c-0.58239,0.06301 -1.15459,0.22989 -1.73017,0.32867c-0.29517,0.05109 -0.53301,-0.02441 -0.71352,-0.22649c-0.14427,-0.1618 -0.38345,-0.1976 -0.56877,-0.08515c-0.37975,0.22819 -1.01835,0.82252 -1.44748,0.47171c-0.06585,-0.05336 -0.09934,-0.03803 -0.10047,0.04598c0,0.02384 -0.00681,0.04542 -0.02043,0.06471c-0.03406,0.04768 -0.08003,0.07267 -0.13793,0.07493c-0.20321,0.00908 -0.3877,0.00511 -0.55345,-0.01192c-1.51447,-0.15326 -2.94776,-0.30994 -4.29988,-0.47c-0.35648,-0.04314 -0.64201,-0.06585 -0.85657,-0.06812c-0.05676,0 -0.10728,0.0176 -0.15156,0.05279c-0.50406,0.4053 -1.02742,0.82989 -1.57009,1.27379c-0.31447,0.25657 -0.85657,0.56651 -1.62629,0.9298c-1.24483,0.5858 -2.36877,1.4611 -2.77746,2.62421c-0.06131,0.1737 -0.13964,0.33774 -0.23501,0.49215c-0.03179,0.05109 -0.0755,0.08741 -0.13112,0.10899c-0.55856,0.21457 -1.08078,0.46206 -1.56668,0.74247c-0.10899,0.06245 -0.19016,0.14986 -0.24352,0.26226c-0.3928,0.82421 -0.9122,1.51106 -1.55817,2.06054c-1.19375,1.01494 -2.4488,1.89024 -3.50291,3.13337c-0.2912,0.34569 -0.67435,0.71693 -1.05922,0.96215c-1.20113,0.77086 -2.20642,1.63707 -3.01587,2.59866c-0.64711,0.76972 -1.31352,1.54228 -1.99923,2.31767c-1.65183,1.86981 -3.70896,3.48759 -6.03005,4.37481c-0.32923,0.12601 -0.63008,0.30028 -0.90255,0.5228c-2.40339,1.95495 -4.79202,3.87414 -7.1659,5.75758c-0.34285,0.27247 -0.73907,0.5001 -1.18864,0.68287c-0.47,0.19073 -0.96215,0.5262 -1.15968,1.01494c-0.16008,0.39337 -0.34569,0.68117 -0.71182,0.91446c-0.49384,0.31674 -0.97805,0.63008 -1.45259,0.94001c-0.73339,0.47909 -1.45827,0.73509 -2.17463,0.76802c-0.72772,0.03406 -1.36347,0.1913 -1.90727,0.47171c-0.62327,0.32242 -1.2454,0.67776 -1.86641,1.06603c-0.72204,0.45128 -1.55817,0.8753 -2.39771,1.00983c-1.947,0.31447 -3.65845,-0.14929 -5.13431,-1.39129c-0.56196,-0.47341 -1.01494,-1.06716 -1.35893,-1.78126c-0.2191,-0.45638 -0.40926,-1.1631 -0.57048,-2.12014c-0.65051,-3.84747 -1.10803,-7.41565 -1.37255,-10.70457c-0.07038,-0.86394 -0.11013,-2.07586 -0.11921,-3.63573c-0.0034,-0.39508 0.01248,-0.81457 0.04768,-1.25846c0.04257,-0.56026 0.02554,-1.1069 0.08174,-1.66717c0.12261,-1.19886 0.33377,-2.38068 0.34399,-3.58976c0.01703,-1.84937 -0.02611,-3.6732 -0.12943,-5.47148c-0.0034,-0.05904 -0.03463,-0.08855 -0.09366,-0.08855c-1.519,-0.01192 -2.93584,-0.12943 -4.4327,-0.15667c-1.80851,-0.03065 -3.70896,-0.12601 -5.43573,-0.12431c-0.8526,0 -1.72052,-0.00057 -2.60377,-0.0017c-0.73225,0 -1.23462,0.67776 -1.89875,0.77142c-1.38617,0.19527 -2.87737,0.36953 -4.47357,0.5228c-2.61909,0.25033 -4.92484,0.06301 -7.64442,-0.36953c-1.52241,-0.24182 -3.13962,-0.48022 -4.85162,-0.71522c-0.1544,-0.02157 -0.24295,-0.10956 -0.26566,-0.26395l-0.14815,-1.03367c-0.01022,-0.07038 -0.05052,-0.09934 -0.12091,-0.08684c-0.46433,0.07947 -0.91106,0.15326 -1.3402,0.22138c-0.28269,0.04428 -0.56196,0.07322 -0.80037,-0.13112c-0.28836,-0.24975 -0.49953,-0.46716 -0.63349,-0.65222c-0.65051,-0.89744 -1.23802,-1.71825 -2.31427,-2.11503c-0.92298,-0.33888 -1.23973,-1.51219 -1.40151,-2.37046c-0.17029,-0.90595 -0.12261,-1.84256 -0.12431,-2.78427c0,-0.24975 -0.12771,-0.45922 -0.38315,-0.62838c-0.29291,-0.19242 -0.67776,-0.18051 -0.96896,-0.37465c-0.42573,-0.28439 -0.68117,-0.63179 -0.74928,-1.1631c-0.36784,-2.88361 -0.69536,-5.87224 -0.98258,-8.96587c-0.03633,-0.3894 -0.00397,-0.72487 0.09706,-1.00642c0.17199,-0.47852 0.40018,-0.93661 0.52449,-1.43897c0.37578,-1.51674 0.60851,-2.82742 0.6982,-3.93205c0.06245,-0.76745 0.11069,-1.52298 0.14474,-2.26659c0.06471,-1.36914 -0.0596,-2.6821 -0.09536,-4.01378c-0.01703,-0.59489 -0.05166,-1.18239 -0.10387,-1.76252c-0.12715,-1.41456 -0.20435,-2.73318 -0.2316,-3.95589c-0.03179,-1.39072 0.13,-2.73773 0.48533,-4.04103c0.19924,-0.73225 -0.32867,-1.47984 -0.35762,-2.17804c-0.0386,-0.94569 -0.09196,-1.93792 -0.16008,-2.97671c-0.03633,-0.55402 -0.04882,-1.20794 -0.03747,-1.96177c0.00114,-0.06131 0.02611,-0.11069 0.07493,-0.14815c0.26906,-0.20889 0.59205,-0.37918 0.96896,-0.51087c0.05904,-0.02043 0.06414,-0.05052 0.01532,-0.09025c-1.02857,-0.84351 -1.67625,-1.81191 -1.94303,-2.90518c-0.12943,-0.53244 -0.17313,-1.32715 -0.13112,-2.38408c0.08628,-2.14228 -0.02384,-4.45314 -0.33037,-6.9326c-0.23727,-1.91522 -0.56367,-3.97916 -0.97917,-6.19182c-0.17937,-0.95704 -0.10047,-1.92771 0.2367,-2.912c0.21116,-0.61476 -0.01532,-0.9962 -0.27928,-1.50027c-0.26566,-0.50406 -0.36158,-1.07454 -0.28779,-1.71144c0.06925,-0.59602 0.13,-1.19375 0.18221,-1.79317c0.00568,-0.06358 -0.01589,-0.1158 -0.06471,-0.15667c-0.76462,-0.65732 -1.07625,-1.32998 -0.37975,-2.21209c0.04718,-0.05946 0.03971,-0.14541 -0.01703,-0.19584l-0.94342,-0.83783c-0.05904,-0.05336 -0.0579,-0.10558 0.0034,-0.15667c0.24692,-0.20264 0.54493,-0.28439 0.74588,-0.54323c0.18278,-0.23841 0.37067,-0.47341 0.56367,-0.705c0.45298,-0.54664 0.05279,-1.03538 -0.45298,-1.46622c-0.27814,-0.23614 -0.45695,-0.56253 -0.53642,-0.97917c-0.13397,-0.69934 -0.23841,-1.52298 -0.31334,-2.47094c-0.04314,-0.56196 0.11694,-1.03764 0.48022,-1.42704c0.0352,-0.03747 0.05393,-0.08231 0.05619,-0.13453c0.02554,-0.62838 -0.13112,-1.20056 -0.12771,-1.82213c0.00226,-0.25884 -0.02384,-0.50804 -0.07833,-0.74759c-0.01589,-0.07152 0.01248,-0.10728 0.08515,-0.10728l1.46792,-0.01703c0.04201,0 0.07209,-0.01987 0.09025,-0.0596c0.01248,-0.02611 0.01419,-0.05279 0.00511,-0.08003c-0.01476,-0.04087 -0.04371,-0.06585 -0.08684,-0.07493c-0.22649,-0.04938 -0.53301,-0.02384 -0.71863,-0.15837c-0.38315,-0.27928 -0.35421,-0.86679 -0.33718,-1.30103c0.01022,-0.24863 -0.02668,-0.50747 -0.11069,-0.77653c-0.22592,-0.71977 -0.3139,-1.55363 -0.26395,-2.5016c0.08628,-1.62458 0.19641,-3.07832 0.33037,-4.36119c0.0227,-0.22251 -0.00226,-0.45638 -0.07493,-0.7016c-0.01817,-0.05904 -0.01079,-0.11523 0.02213,-0.16859c0.55288,-0.9071 0.8367,-1.83575 0.85146,-2.78598c0.01248,-0.85032 0.0176,-1.75741 0.01532,-2.72127c0,-0.18505 0.02213,-0.36727 0.06641,-0.54664c0.0579,-0.2316 0.05109,-0.4666 0.11409,-0.69138c0.31788,-1.13301 0.80037,-2.28362 1.44748,-3.45183c1.6927,-3.05617 3.34113,-5.84613 4.94528,-8.36986c0.0386,-0.06016 0.09536,-0.10387 0.17029,-0.13112c0.07038,-0.02384 0.09877,0.00057 0.08515,0.07322c-0.01248,0.06471 -0.01305,0.12715 -0.0017,0.18733c0.01817,0.09082 0.03803,0.09082 0.0596,0zM219.68273,101.66604c0,-0.00226 0,-0.00511 0,-0.00851c0.00114,-0.00908 -0.0034,-0.01419 -0.01362,-0.01532c-1.2823,-0.13793 -2.60547,-0.1737 -3.76346,0.33377c-0.17881,0.07833 -0.42743,0.14305 -0.62327,0.14815c-1.67908,0.05619 -3.27813,0.01192 -4.94358,0.12943c-2.17634,0.15156 -4.43951,0.37465 -6.5835,0.52449c-1.09781,0.0772 -2.16725,0.15667 -3.2083,0.23841c-1.03311,0.0806 -1.68589,0.15043 -1.95836,0.20946c-0.814,0.17483 -1.65013,0.3525 -2.50841,0.53301c-0.65051,0.13623 -1.25505,0.15156 -1.90046,0.18902c-1.72166,0.09706 -3.42968,0.9332 -4.23517,2.47945c-0.24635,0.47455 -0.57105,0.94058 -0.97408,1.3981c-0.04736,0.05476 -0.05741,0.13253 -0.02554,0.19754c0.44276,0.87871 1.00473,1.52071 0.87019,2.57482c-0.16348,1.27038 -0.56026,2.54076 -0.85146,3.76856c-0.06301,0.26666 -0.07515,0.54283 -0.03576,0.814c0.40359,2.75362 0.70672,5.43913 -0.65903,7.99692c-0.20095,0.37635 -0.16859,0.74418 0.01873,1.09838c0.03406,0.06585 0.08572,0.11183 0.15496,0.13793c0.61135,0.22989 1.72676,0.73396 0.98429,1.59053c-0.31107,0.35875 -0.63746,0.69707 -0.97917,1.01494c-0.78561,0.73112 -1.08192,1.65183 -0.88893,2.76214c0.09366,0.54152 0.25204,1.07284 0.67606,1.47132c0.09035,0.0862 0.22224,0.11271 0.33888,0.06812l1.01324,-0.38656c0.19073,-0.07267 0.24352,-0.01589 0.15837,0.17029l-0.50577,1.09838c-0.06358,0.1385 -0.09196,0.28439 -0.08515,0.43765c0.11013,2.25126 0.2316,4.50934 0.36443,6.77422c0.03406,0.56424 -0.00511,0.97009 -0.1175,1.21759c-0.17029,0.37578 -0.37237,0.76518 -0.60624,1.16821c-0.04314,0.07493 -0.05904,0.15553 -0.04768,0.24182c0.1158,0.81967 0.26054,1.50878 0.43425,2.06735c0.08855,0.28382 0.24068,0.57672 0.45638,0.87871c0.45638,0.63859 0.02725,1.25335 -0.37124,1.77104c-0.24295,0.31674 -0.28439,0.64598 -0.12431,0.98769c0.35081,0.74759 0.97236,1.73188 1.06092,2.49819c0.05109,0.45071 0.03916,0.94796 -0.03576,1.49175c-0.25317,1.84029 -0.54891,3.32921 -0.88722,4.46676c-0.06245,0.20776 -0.0176,0.38997 0.13453,0.54664c1.18524,1.22952 0.35762,2.38408 -0.41892,3.4961c-0.19867,0.28382 -0.28552,0.5983 -0.26054,0.94342c0.0193,0.25544 0.04882,0.49896 0.08855,0.73056c0.06358,0.36896 0.21343,0.40757 0.44957,0.1158c0.27247,-0.33718 0.55572,-0.72147 0.84976,-1.15288c0.0806,-0.11807 0.13907,-0.10785 0.1754,0.03065c0.19242,0.75099 0.4104,1.53944 0.37465,2.31767c-0.06131,1.35552 -0.28439,2.6855 -0.03916,4.04614c0.21229,1.17388 0.4053,2.291 0.57899,3.35134c0.11069,0.68457 0.26735,1.70973 0.01703,2.3858c-0.03393,0.09296 -0.10291,0.16927 -0.19242,0.21286c-0.54152,0.27076 -0.82252,0.85486 -0.36613,1.37255c0.3088,0.34853 0.57217,0.71409 0.79015,1.09669c0.25544,0.44787 0.24182,1.12222 0.18902,1.60927c-0.19073,1.74946 -0.21684,3.41947 -0.07833,5.00999c0.03633,0.41552 0.11069,0.81797 0.22308,1.20737c0.23841,0.81911 0.16859,1.66035 0.13112,2.51011c-0.04428,1.02857 0.54834,1.6893 0.83614,2.57822c0.47,1.45429 0.69934,2.79677 0.68798,4.02741c-0.00511,0.41722 0.31163,0.78675 0.71522,0.85657c0.50747,0.08855 1.02799,0.21798 1.56158,0.38827c0.62157,0.20095 1.20567,0.19413 1.83745,0.19584c1.03367,0.00511 1.34701,0.72885 1.29422,1.67057c-0.00051,0.01607 0.00818,0.03118 0.02217,0.03855c0.01399,0.00737 0.03067,0.00561 0.04254,-0.00449l1.46281,-1.1665c0.08273,-0.06488 0.19508,-0.07802 0.2912,-0.03406c0.58013,0.26566 1.18864,0.29915 1.82553,0.10047c0.70615,-0.2191 1.38788,-0.43651 2.04521,-0.65222c0.17711,-0.05904 0.36272,-0.08684 0.55686,-0.08344c0.05676,0 0.10332,0.02157 0.13964,0.06471c0.28155,0.32923 0.54607,0.55061 0.79356,0.66414c0.7544,0.34569 1.8647,0.2333 2.62931,0.73225c0.37805,0.24692 0.84125,0.3474 1.29082,0.33718c1.72507,-0.04257 3.65617,-0.32356 5.46127,-0.38487c2.6174,-0.09025 5.28246,-0.00511 7.86069,0.03406c1.03027,0.01703 2.0401,-0.16348 3.08229,-0.16689c0.26566,-0.00114 0.49441,0.05733 0.68628,0.1754c1.58031,0.9718 2.94208,2.20699 4.08531,3.70556c0.41211,0.53983 0.6982,1.13244 0.80549,1.80851c0.16859,1.06262 0.13453,2.10141 0.26906,3.15892c0.1124,0.8753 0.47852,1.66886 0.63008,2.53735c0.43027,2.44767 0.7998,4.92939 1.1086,7.44518c0.14872,1.21475 0.13397,2.42724 -0.04428,3.63744c-0.12431,0.84125 -0.04598,1.59393 0.29801,2.38068c0.18733,0.42686 0.28325,0.88098 0.28779,1.36234c0.01248,1.50425 0.01476,3.07207 0.00681,4.70347c0,0.09423 0.04428,0.15724 0.13283,0.18902l0.34399,0.12261c0.08628,0.03065 0.1578,0.01022 0.21457,-0.06131l3.6187,-4.55021c0.04768,-0.06016 0.10444,-0.07095 0.17029,-0.03235c0.2316,0.13283 0.48022,0.24352 0.74588,0.33207c0.11694,0.03973 0.14305,0.00681 0.07833,-0.09877l-0.59261,-0.94852c-0.08005,-0.12827 -0.07598,-0.2919 0.01035,-0.41603c0.08633,-0.12413 0.23832,-0.18488 0.38643,-0.15445l1.70633,0.35421c0.03575,0.00768 0.07279,-0.00539 0.0958,-0.0338c0.02302,-0.02841 0.02812,-0.06735 0.01319,-0.10073l-0.45638,-0.99451c-0.03065,-0.06812 -0.02213,-0.13056 0.02554,-0.18733c2.00831,-2.3943 3.9048,-4.58596 5.68946,-6.57498c1.20737,-1.3453 2.65996,-2.66507 3.92183,-4.024c0.36556,-0.39394 0.70672,-0.80037 1.02345,-1.2193c0.53131,-0.70274 1.05694,-1.39129 1.5769,-2.06564c1.13187,-1.46905 2.56744,-2.58674 4.30669,-3.35306c0.06812,-0.03065 0.0982,-0.08288 0.09025,-0.15667c-0.38997,-3.80944 3.89117,-4.53999 6.69588,-5.37952c1.77444,-0.52961 3.43479,-1.14777 5.33866,-1.13074c0.55174,0.00511 0.89233,0.34059 1.18524,0.7561c0.04314,0.06131 0.09025,0.06414 0.14134,0.00851c0.40643,-0.45865 0.81002,-0.89914 1.21078,-1.32147c0.22024,-0.23387 0.44503,-0.386 0.67435,-0.45638c0.63689,-0.19754 1.40377,-0.33264 2.30065,-0.4053c0.95364,-0.0772 1.89365,-0.12204 2.82004,-0.13453c0.48703,-0.00681 1.03992,0.10956 1.65865,0.3491c0.30539,0.11921 0.60624,0.1737 0.90255,0.16348c1.29422,-0.04428 2.40452,-0.24692 3.41776,-0.83614c1.03878,-0.60283 2.17123,-0.96726 3.21851,-0.08855c0.0931,0.07833 0.19073,0.1544 0.29291,0.22819c0.04201,0.03065 0.08855,0.04428 0.13964,0.04087c1.23121,-0.08515 2.43518,-0.20264 3.69193,-0.09366c1.24086,0.10785 2.46242,0.21059 3.66469,0.30823c1.2999,0.10672 2.49138,0.01305 3.57443,-0.28098c2.28532,-0.61816 4.46335,-2.26488 5.97555,-4.00357c0.46319,-0.53244 0.95647,-1.20283 1.47984,-2.01115c0.69309,-1.07284 1.77444,-2.08267 2.79279,-2.89326c1.00018,-0.79697 1.99355,-1.59336 2.98011,-2.3892c0.37465,-0.30482 0.5807,-0.74928 0.83103,-1.15118c0.86849,-1.39469 2.34492,-2.4471 3.90139,-3.10783c0.24975,-0.10672 0.4473,-0.2895 0.59261,-0.54834c0.23841,-0.428 0.40757,-0.82138 0.50747,-1.18012c0.10332,-0.37465 0.25317,-0.73112 0.44957,-1.06944c0.81173,-1.3998 1.67965,-2.67699 2.60377,-3.83158c0.2543,-0.31902 0.52166,-0.58694 0.80208,-0.80378c0.85317,-0.66073 1.58542,-1.25676 1.863,-2.35174c0.12601,-0.49384 0.11864,-1.1069 -0.02213,-1.83916c-0.06131,-0.32185 0.0545,-0.63519 0.18221,-0.91787c0.20605,-0.45808 -0.75269,-0.56367 -0.18902,-1.17331c0.24635,-0.26679 0.5262,-0.52166 0.83955,-0.76462c0.02677,-0.02014 0.04335,-0.05103 0.04531,-0.08448c0.00197,-0.03345 -0.01087,-0.06607 -0.0351,-0.08921c-0.32525,-0.30994 -0.63008,-0.70842 -0.50747,-1.19205c0.11694,-0.45979 0.19471,-0.92072 0.2333,-1.38277c0.1158,-1.40434 0.11013,-2.83083 -0.01703,-4.27944c-0.24011,-2.7434 -0.15156,-5.53109 -0.18733,-8.11272c-0.01135,-0.78789 -0.06755,-1.58769 -0.16859,-2.39942c-0.14759,-1.17842 -0.1737,-2.26999 -0.07833,-3.27472c0.15496,-1.63651 0.17199,-3.15721 -0.50406,-4.69836c-0.0227,-0.05109 -0.03008,-0.10444 -0.02213,-0.16008c0.02157,-0.15894 0.0545,-0.31561 0.09877,-0.47c0.45979,-1.61096 0.90766,-3.37349 0.71693,-5.03214c-0.11126,-0.96726 -0.20435,-1.93962 -0.27928,-2.9171c-0.06812,-0.88438 -0.06981,-1.85164 -0.00511,-2.90178c0.15837,-2.58163 0.10558,-5.25692 0.07833,-7.76362c-0.00454,-0.3667 -0.04768,-0.71806 -0.12943,-1.0541c-0.12771,-0.53131 -0.30142,-1.06603 -0.21967,-1.62289c0.10785,-0.73566 0.22251,-1.48097 0.34399,-2.23594c0.08855,-0.55345 0.03235,-1.36744 -0.14134,-2.00264c-0.30539,-1.10803 -0.43482,-2.22401 -0.38827,-3.34794c0.01135,-0.26792 0.02043,-0.54493 0.02725,-0.83103c0.04598,-1.81531 0.45128,-4.15683 -0.70842,-5.75247c-0.25657,-0.35421 -0.62951,-0.72658 -1.11882,-1.11712c-0.99791,-0.79697 -2.02818,-1.70008 -3.0908,-2.70935c-0.50066,-0.47341 -1.59393,-0.38656 -2.22912,-0.34569c-1.37255,0.08741 -2.75419,-0.02782 -4.14491,-0.34569c-0.33377,-0.07607 -0.68628,-0.09706 -1.05751,-0.06301c-2.22742,0.20548 -4.52353,0.46149 -6.88832,0.76802c-0.30823,0.04087 -0.66584,0.06471 -0.96896,-0.03065c-1.98561,-0.62498 -4.19771,-0.51428 -6.34509,-0.46149c-1.00813,0.02498 -1.97482,-0.07493 -2.90008,-0.29972c-0.22365,-0.05336 -0.45638,-0.06698 -0.6982,-0.04087c-2.0367,0.22024 -4.01038,0.43368 -5.92106,0.6403c-1.42477,0.1544 -2.82685,0.20378 -4.20621,0.14815c-2.69232,-0.11069 -5.38464,-0.25884 -7.97989,0.05109c-1.59621,0.18959 -3.43082,0.47398 -5.50384,0.85317c-0.22819,0.04257 -0.48363,0.01022 -0.67947,0.04257c-1.84824,0.30312 -3.70726,0.3911 -5.57707,0.26395c-1.65183,-0.11126 -3.25371,-0.18562 -4.80565,-0.22308c-1.15231,-0.02725 -2.27794,0.24466 -3.3769,0.8157c-0.10558,0.0545 -0.21684,0.08288 -0.33377,0.08515c-2.29667,0.04882 -4.47698,0.05563 -6.54092,0.02043c-1.44407,-0.02384 -2.81833,0.14645 -4.23176,0.31674c-1.03084,0.12488 -2.03953,0.11694 -3.02609,-0.02384c-0.93831,-0.13283 -2.05032,-0.11921 -2.96819,0.05279c-1.89251,0.35534 -3.80602,0.66641 -5.74055,0.9332c-0.19867,0.02725 -0.39621,0.04314 -0.59261,0.04768c-0.00188,0 -0.0034,0.00152 -0.0034,0.0034c0,0.00188 0.00152,0.0034 0.0034,0.0034c0.0227,0.00114 0.04371,0.00397 0.06301,0.00851c0.03973,0.01022 0.03916,0.01703 -0.0017,0.02043c-0.88211,0.06698 -1.68816,0.06016 -2.41815,-0.02043c-1.17331,-0.13112 -2.20358,-0.07322 -3.28153,0.27417c-0.73737,0.2367 -1.51049,0.22649 -2.28191,0.21116c-0.42233,-0.00908 -0.80378,-0.04257 -1.14437,-0.10047c-0.85941,-0.14759 -1.72109,-0.26735 -2.58503,-0.35932c-0.00681,0 -0.01022,-0.0034 -0.01022,-0.01022z" fill="#9146ff" stroke="none" stroke-width="1"/><path d="M219.69295,101.67625c0.86394,0.09196 1.72562,0.21173 2.58503,0.35932c0.34059,0.0579 0.72204,0.09139 1.14437,0.10047c0.77142,0.01532 1.54455,0.02554 2.28191,-0.21116c1.07795,-0.3474 2.10822,-0.4053 3.28153,-0.27417c0.72999,0.0806 1.53603,0.08741 2.41815,0.02043c0.04087,-0.0034 0.04144,-0.01022 0.0017,-0.02043c-0.0193,-0.00454 -0.0403,-0.00738 -0.06301,-0.00851c-0.00188,0 -0.0034,-0.00152 -0.0034,-0.0034c0,-0.00188 0.00152,-0.0034 0.0034,-0.0034c0.19641,-0.00454 0.39394,-0.02043 0.59261,-0.04768c1.93452,-0.26679 3.84804,-0.57786 5.74055,-0.9332c0.91787,-0.17199 2.02989,-0.18562 2.96819,-0.05279c0.98656,0.14078 1.99525,0.14872 3.02609,0.02384c1.41342,-0.17029 2.78768,-0.34059 4.23176,-0.31674c2.06395,0.0352 4.24425,0.02839 6.54092,-0.02043c0.11694,-0.00226 0.22819,-0.03065 0.33377,-0.08515c1.09895,-0.57105 2.22458,-0.84295 3.3769,-0.8157c1.55194,0.03747 3.15381,0.11183 4.80565,0.22308c1.86981,0.12715 3.72883,0.03916 5.57707,-0.26395c0.19584,-0.03235 0.45128,0 0.67947,-0.04257c2.07302,-0.37918 3.90763,-0.66357 5.50384,-0.85317c2.59525,-0.30994 5.28757,-0.16177 7.97989,-0.05109c1.37936,0.05563 2.78143,0.00625 4.20621,-0.14815c1.91068,-0.20662 3.88436,-0.42005 5.92106,-0.6403c0.24182,-0.02611 0.47455,-0.01248 0.6982,0.04087c0.92525,0.22479 1.89194,0.32469 2.90008,0.29972c2.14738,-0.05279 4.35948,-0.16348 6.34509,0.46149c0.30312,0.09536 0.66073,0.07152 0.96896,0.03065c2.36479,-0.30653 4.66089,-0.56253 6.88832,-0.76802c0.37124,-0.03406 0.72374,-0.01305 1.05751,0.06301c1.39072,0.31788 2.77235,0.43311 4.14491,0.34569c0.63519,-0.04087 1.72847,-0.12771 2.22912,0.34569c1.06262,1.00927 2.09289,1.91238 3.0908,2.70935c0.48931,0.39054 0.86225,0.76291 1.11882,1.11712c1.15968,1.59564 0.7544,3.93716 0.70842,5.75247c-0.00681,0.28609 -0.01589,0.5631 -0.02725,0.83103c-0.04654,1.12393 0.08288,2.23991 0.38827,3.34794c0.1737,0.63519 0.22989,1.44919 0.14134,2.00264c-0.12148,0.75496 -0.23614,1.50027 -0.34399,2.23594c-0.08174,0.55686 0.09196,1.09157 0.21967,1.62289c0.08174,0.33604 0.12488,0.68741 0.12943,1.0541c0.02725,2.5067 0.08003,5.18199 -0.07833,7.76362c-0.06471,1.05013 -0.06301,2.01739 0.00511,2.90178c0.07493,0.97748 0.16802,1.94984 0.27928,2.9171c0.19073,1.65865 -0.25714,3.42118 -0.71693,5.03214c-0.04428,0.1544 -0.0772,0.31107 -0.09877,0.47c-0.00795,0.05563 -0.00057,0.10899 0.02213,0.16008c0.67606,1.54115 0.65903,3.06186 0.50406,4.69836c-0.09536,1.00473 -0.06925,2.09629 0.07833,3.27472c0.10104,0.81173 0.15724,1.61153 0.16859,2.39942c0.03576,2.58163 -0.05279,5.36931 0.18733,8.11272c0.12715,1.44862 0.13283,2.8751 0.01703,4.27944c-0.0386,0.46206 -0.11637,0.92298 -0.2333,1.38277c-0.12261,0.48363 0.18221,0.88211 0.50747,1.19205c0.02423,0.02314 0.03707,0.05577 0.0351,0.08921c-0.00197,0.03345 -0.01854,0.06435 -0.04531,0.08448c-0.31334,0.24295 -0.59318,0.49782 -0.83955,0.76462c-0.56367,0.60964 0.39508,0.71522 0.18902,1.17331c-0.12771,0.28269 -0.24352,0.59602 -0.18221,0.91787c0.14078,0.73225 0.14815,1.3453 0.02213,1.83916c-0.27757,1.09497 -1.00983,1.691 -1.863,2.35174c-0.28041,0.21684 -0.54778,0.48476 -0.80208,0.80378c-0.92412,1.15459 -1.79204,2.43177 -2.60377,3.83158c-0.19641,0.33831 -0.34626,0.69479 -0.44957,1.06944c-0.09991,0.35875 -0.26906,0.75212 -0.50747,1.18012c-0.14531,0.25884 -0.34285,0.44163 -0.59261,0.54834c-1.55647,0.66073 -3.0329,1.71314 -3.90139,3.10783c-0.25033,0.40189 -0.45638,0.84635 -0.83103,1.15118c-0.98656,0.79583 -1.97993,1.59224 -2.98011,2.3892c-1.01835,0.81059 -2.0997,1.82042 -2.79279,2.89326c-0.52337,0.80832 -1.01664,1.4787 -1.47984,2.01115c-1.51219,1.73868 -3.69023,3.38541 -5.97555,4.00357c-1.08306,0.29403 -2.27454,0.3877 -3.57443,0.28098c-1.20227,-0.09763 -2.42383,-0.20038 -3.66469,-0.30823c-1.25676,-0.10899 -2.46072,0.00851 -3.69193,0.09366c-0.05109,0.0034 -0.09763,-0.01022 -0.13964,-0.04087c-0.10218,-0.07379 -0.19981,-0.14986 -0.29291,-0.22819c-1.04729,-0.87871 -2.17974,-0.51428 -3.21851,0.08855c-1.01324,0.58921 -2.12354,0.79186 -3.41776,0.83614c-0.29631,0.01022 -0.59716,-0.04428 -0.90255,-0.16348c-0.61873,-0.23954 -1.17161,-0.35591 -1.65865,-0.3491c-0.92639,0.01248 -1.86641,0.05733 -2.82004,0.13453c-0.89688,0.07267 -1.66376,0.20776 -2.30065,0.4053c-0.22932,0.07038 -0.45411,0.22251 -0.67435,0.45638c-0.40075,0.42233 -0.80435,0.86282 -1.21078,1.32147c-0.05109,0.05563 -0.0982,0.05279 -0.14134,-0.00851c-0.29291,-0.41552 -0.63349,-0.75099 -1.18524,-0.7561c-1.90387,-0.01703 -3.56421,0.60113 -5.33866,1.13074c-2.80471,0.83955 -7.08585,1.57009 -6.69588,5.37952c0.00795,0.07379 -0.02213,0.12601 -0.09025,0.15667c-1.73924,0.76632 -3.17481,1.884 -4.30669,3.35306c-0.51996,0.67435 -1.04559,1.3629 -1.5769,2.06564c-0.31674,0.41892 -0.65789,0.82535 -1.02345,1.2193c-1.26186,1.35893 -2.71446,2.67869 -3.92183,4.024c-1.78466,1.98902 -3.68115,4.18068 -5.68946,6.57498c-0.04768,0.05676 -0.05619,0.11921 -0.02554,0.18733l0.45638,0.99451c0.01492,0.03338 0.00983,0.07232 -0.01319,0.10073c-0.02302,0.02841 -0.06005,0.04148 -0.0958,0.0338l-1.70633,-0.35421c-0.14811,-0.03043 -0.3001,0.03032 -0.38643,0.15445c-0.08633,0.12413 -0.0904,0.28775 -0.01035,0.41603l0.59261,0.94852c0.06471,0.10558 0.0386,0.1385 -0.07833,0.09877c-0.26566,-0.08855 -0.51428,-0.19924 -0.74588,-0.33207c-0.06585,-0.0386 -0.12261,-0.02782 -0.17029,0.03235l-3.6187,4.55021c-0.05676,0.07152 -0.12829,0.09196 -0.21457,0.06131l-0.34399,-0.12261c-0.08855,-0.03179 -0.13283,-0.0948 -0.13283,-0.18902c0.00795,-1.6314 0.00568,-3.19922 -0.00681,-4.70347c-0.00454,-0.48136 -0.10047,-0.93547 -0.28779,-1.36234c-0.34399,-0.78675 -0.42233,-1.53944 -0.29801,-2.38068c0.17824,-1.21021 0.19299,-2.42269 0.04428,-3.63744c-0.3088,-2.51578 -0.67833,-4.99751 -1.1086,-7.44518c-0.15156,-0.86849 -0.51769,-1.66205 -0.63008,-2.53735c-0.13453,-1.05751 -0.10047,-2.09629 -0.26906,-3.15892c-0.10728,-0.67606 -0.39337,-1.26868 -0.80549,-1.80851c-1.14323,-1.49857 -2.505,-2.73375 -4.08531,-3.70556c-0.19186,-0.11807 -0.42062,-0.17654 -0.68628,-0.1754c-1.04219,0.0034 -2.05202,0.18392 -3.08229,0.16689c-2.57822,-0.03916 -5.2433,-0.12431 -7.86069,-0.03406c-1.80509,0.06131 -3.73621,0.34229 -5.46127,0.38487c-0.44957,0.01022 -0.91276,-0.09025 -1.29082,-0.33718c-0.76462,-0.49896 -1.87492,-0.38656 -2.62931,-0.73225c-0.24749,-0.11353 -0.51201,-0.3349 -0.79356,-0.66414c-0.03633,-0.04314 -0.08288,-0.06471 -0.13964,-0.06471c-0.19413,-0.0034 -0.37975,0.02441 -0.55686,0.08344c-0.65732,0.2157 -1.33906,0.43311 -2.04521,0.65222c-0.63689,0.19867 -1.2454,0.16518 -1.82553,-0.10047c-0.09612,-0.04396 -0.20847,-0.03083 -0.2912,0.03406l-1.46281,1.1665c-0.01187,0.0101 -0.02854,0.01186 -0.04254,0.00449c-0.01399,-0.00737 -0.02268,-0.02247 -0.02217,-0.03855c0.05279,-0.94171 -0.26054,-1.66546 -1.29422,-1.67057c-0.63179,-0.0017 -1.21589,0.00511 -1.83745,-0.19584c-0.53358,-0.17029 -1.0541,-0.29972 -1.56158,-0.38827c-0.40359,-0.06981 -0.72034,-0.43935 -0.71522,-0.85657c0.01135,-1.23064 -0.21798,-2.57312 -0.68798,-4.02741c-0.28779,-0.88893 -0.88041,-1.54965 -0.83614,-2.57822c0.03747,-0.84976 0.10728,-1.691 -0.13112,-2.51011c-0.1124,-0.3894 -0.18676,-0.79186 -0.22308,-1.20737c-0.1385,-1.59053 -0.1124,-3.26053 0.07833,-5.00999c0.05279,-0.48703 0.06641,-1.16139 -0.18902,-1.60927c-0.21798,-0.38258 -0.48136,-0.74815 -0.79015,-1.09669c-0.45638,-0.51769 -0.1754,-1.10179 0.36613,-1.37255c0.08951,-0.0436 0.1585,-0.11991 0.19242,-0.21286c0.25033,-0.67606 0.09366,-1.70122 -0.01703,-2.3858c-0.1737,-1.06035 -0.3667,-2.17747 -0.57899,-3.35134c-0.24522,-1.36063 -0.02213,-2.69062 0.03916,-4.04614c0.03576,-0.77824 -0.18221,-1.56668 -0.37465,-2.31767c-0.03633,-0.1385 -0.0948,-0.14872 -0.1754,-0.03065c-0.29403,0.43141 -0.57729,0.8157 -0.84976,1.15288c-0.23614,0.29177 -0.386,0.25317 -0.44957,-0.1158c-0.03973,-0.2316 -0.06925,-0.47511 -0.08855,-0.73056c-0.02498,-0.34512 0.06188,-0.6596 0.26054,-0.94342c0.77653,-1.112 1.60415,-2.26659 0.41892,-3.4961c-0.15213,-0.15667 -0.19697,-0.33888 -0.13453,-0.54664c0.33831,-1.13755 0.63405,-2.62647 0.88722,-4.46676c0.07493,-0.5438 0.08684,-1.04105 0.03576,-1.49175c-0.08855,-0.76632 -0.71012,-1.7506 -1.06092,-2.49819c-0.16008,-0.34172 -0.11864,-0.67095 0.12431,-0.98769c0.39849,-0.51769 0.82762,-1.13244 0.37124,-1.77104c-0.2157,-0.30199 -0.36784,-0.59489 -0.45638,-0.87871c-0.1737,-0.55856 -0.31845,-1.24767 -0.43425,-2.06735c-0.01135,-0.08628 0.00454,-0.16689 0.04768,-0.24182c0.23387,-0.40302 0.43595,-0.79242 0.60624,-1.16821c0.1124,-0.24749 0.15156,-0.65335 0.1175,-1.21759c-0.13283,-2.26488 -0.2543,-4.52296 -0.36443,-6.77422c-0.00681,-0.15326 0.02157,-0.29915 0.08515,-0.43765l0.50577,-1.09838c0.08515,-0.18619 0.03235,-0.24295 -0.15837,-0.17029l-1.01324,0.38656c-0.11665,0.0446 -0.24853,0.01808 -0.33888,-0.06812c-0.42403,-0.39849 -0.58239,-0.9298 -0.67606,-1.47132c-0.19299,-1.11031 0.10332,-2.03101 0.88893,-2.76214c0.34172,-0.31788 0.66811,-0.65619 0.97917,-1.01494c0.74247,-0.85657 -0.37294,-1.36063 -0.98429,-1.59053c-0.06925,-0.02611 -0.12091,-0.07209 -0.15496,-0.13793c-0.18733,-0.35421 -0.21967,-0.72204 -0.01873,-1.09838c1.36574,-2.55779 1.06262,-5.2433 0.65903,-7.99692c-0.03939,-0.27116 -0.02725,-0.54733 0.03576,-0.814c0.2912,-1.2278 0.68798,-2.49819 0.85146,-3.76856c0.13453,-1.0541 -0.42743,-1.69611 -0.87019,-2.57482c-0.03187,-0.06501 -0.02182,-0.14277 0.02554,-0.19754c0.40302,-0.45751 0.72772,-0.92355 0.97408,-1.3981c0.80549,-1.54625 2.51351,-2.38239 4.23517,-2.47945c0.64541,-0.03747 1.24995,-0.05279 1.90046,-0.18902c0.85827,-0.18051 1.69441,-0.35818 2.50841,-0.53301c0.27247,-0.05904 0.92525,-0.12886 1.95836,-0.20946c1.04105,-0.08174 2.11049,-0.16121 3.2083,-0.23841c2.14398,-0.14986 4.40716,-0.37294 6.5835,-0.52449c1.66546,-0.1175 3.2645,-0.07322 4.94358,-0.12943c0.19584,-0.00511 0.44446,-0.06981 0.62327,-0.14815c1.15799,-0.50747 2.48116,-0.47171 3.76346,-0.33377c0.01022,0.00114 0.01476,0.00625 0.01362,0.01532c0,0.0034 0,0.00625 0,0.00851c0,0.00681 0.0034,0.01022 0.01022,0.01022zM282.24636,125.29067c0.02951,0.24295 0.01305,0.43368 -0.04938,0.57217c-0.16461,0.35762 -0.23954,0.73056 -0.22479,1.11882c0.10899,2.72127 -0.12091,5.44594 0.10218,8.11953c0.06471,0.77653 0.13056,1.52695 0.19754,2.25126c0.04995,0.54152 0.04087,0.95874 -0.02725,1.25165c-0.29631,1.29535 -0.45979,2.18371 -0.49044,2.66507c-0.10728,1.65354 -0.01192,3.42287 -0.12261,5.09173c-0.12715,1.89479 -0.27588,3.89174 -0.44616,5.99088c-0.15156,1.87662 -0.20776,3.72259 -0.25544,5.64008c-0.00212,0.11519 0.04349,0.22613 0.12601,0.30653c0.07152,0.07152 0.10728,0.15496 0.10728,0.25033c-0.0034,0.49044 0.06812,0.95364 0.21457,1.38958c0.09196,0.27076 0.01022,0.49896 -0.06471,0.7595c-0.19924,0.68628 -0.14986,1.62289 -0.09877,2.30575c0.07493,0.97408 0.45865,1.83802 1.15118,2.59184c0.32016,0.3474 0.7578,0.34229 1.15459,0.53301c0.51939,0.25033 1.0541,0.32185 1.5718,0.54323c0.19754,0.08515 0.40473,0.1175 0.62157,0.09706c0.35307,-0.03292 0.70103,-0.02951 1.04389,0.01022c0.27757,0.03235 0.42743,-0.20264 0.73225,-0.13623c0.34626,0.07607 0.70842,0.0931 1.08647,0.05109c0.58239,-0.06301 1.15288,-0.21627 1.7506,-0.17711c0.64541,0.04257 1.26186,-0.16348 1.92771,-0.13964c0.60283,0.0193 1.16082,-0.01703 1.67398,-0.10899c0.35762,-0.06358 0.84181,-0.25487 1.45259,-0.57389c0.43084,-0.22479 0.67947,-0.60113 0.83443,-1.049c0.2157,-0.61533 0.42289,-1.24824 0.62157,-1.89875c0.20435,-0.67095 0.60964,-1.20737 0.98429,-1.78977c0.52109,-0.80945 0.42346,-1.56442 -0.29291,-2.26488c-0.10218,-0.10104 -0.08174,-0.15894 0.06131,-0.1737c0.43254,-0.04428 0.94342,-0.17199 0.814,-0.7561c-0.11013,-0.48817 -0.18449,-0.95647 -0.22308,-1.40491c-0.11807,-1.3419 -0.21798,-2.6611 -0.29972,-3.95759c-0.01362,-0.2367 0.19242,-0.49215 0.23841,-0.74588c0.09877,-0.53585 0.14929,-1.04673 0.15156,-1.53263c0.00114,-0.3315 0.04144,-0.66187 0.12091,-0.9911c0.2895,-1.20056 0.13623,-2.33811 -0.68117,-3.28493c-0.04542,-0.05223 -0.06016,-0.1124 -0.04428,-0.18051c0.10218,-0.45468 0.02213,-0.87701 0.25204,-1.32147c0.58239,-1.12563 0.24182,-2.2138 0.15326,-3.38881c-0.04654,-0.61419 0.08855,-1.18353 0.4053,-1.70803c0.08068,-0.13351 0.08837,-0.29831 0.02043,-0.43765c-0.3474,-0.71863 -0.60283,-1.25165 -0.53301,-2.08438c0.04882,-0.57672 0.12204,-1.19148 0.21967,-1.84426c0.1158,-0.76632 -0.07493,-1.52582 -0.14134,-2.28532c-0.06016,-0.70388 0.0034,-1.54172 0.19073,-2.51351c0.01135,-0.05904 0.00454,-0.1158 -0.02043,-0.17029l-0.69309,-1.50368c-0.02622,-0.05624 -0.00563,-0.1232 0.04768,-0.15496c0.41722,-0.24522 0.30823,-0.64541 0.30142,-1.04048c-0.0034,-0.22138 -0.13112,-0.39337 -0.35421,-0.40018c-0.06326,-0.00197 -0.12182,-0.03387 -0.15777,-0.08595c-0.03595,-0.05208 -0.04502,-0.11816 -0.02445,-0.17799c0.85317,-2.55268 0.48703,-5.3046 -0.4104,-7.89304c-0.47341,-1.36801 -0.9684,-2.70879 -1.48495,-4.02229c-0.01817,-0.04654 -0.05166,-0.07379 -0.10047,-0.08174c-1.83745,-0.30142 -3.70896,-0.57389 -5.5362,-0.97917c-0.65619,-0.14531 -1.16025,-0.21173 -1.51219,-0.19924c-0.62781,0.0227 -1.29593,0.0772 -2.00433,0.16348c-0.73339,0.08855 -1.23405,0.20662 -1.50197,0.35421c-0.5052,0.27814 -0.8384,0.72431 -0.99961,1.33849c-0.01865,0.07243 -0.06353,0.13549 -0.12601,0.17711c-0.11013,0.07379 -0.23273,0.12261 -0.36784,0.14645c-0.06332,0.01055 -0.11462,0.05717 -0.13112,0.11921c-0.10218,0.38487 -0.24352,0.80718 -0.47341,1.12393c-0.13056,0.17824 -0.10785,0.33547 0.06812,0.47171c0.07493,0.0579 0.09253,0.13056 0.05279,0.21798c-0.20548,0.45638 -0.40075,0.91958 -0.5858,1.38958c-0.22932,0.58353 -0.34683,1.31409 -0.3525,2.19166c-0.01022,1.44748 -0.00568,2.82061 0.01362,4.11937c0.00226,0.10332 0.04995,0.13283 0.14305,0.08855l0.10387,-0.04768c0.06925,-0.03292 0.10899,-0.01135 0.11921,0.06471zM248.22028,166.98669c3.57273,0.78334 7.44687,-0.45979 8.9216,-3.94737c0.40416,-0.95591 0.5807,-2.06054 0.52961,-3.31388c-0.00226,-0.07493 -0.03463,-0.13226 -0.09706,-0.17199l-0.13623,-0.08855c-0.05223,-0.03406 -0.0755,-0.08231 -0.06981,-0.14474c0.05109,-0.55629 0.1124,-1.08419 0.18392,-1.58372c0.12943,-0.90084 -0.20095,-1.79147 -0.48193,-2.63953c-0.06812,-0.20435 -0.06868,-0.40302 -0.0017,-0.59602c0.01673,-0.05019 0.04674,-0.09491 0.08684,-0.12943c0.97408,-0.83443 1.14437,-1.79317 0.77142,-2.98862c-0.26111,-0.83557 -0.58921,-1.60642 -0.98429,-2.31257c-0.07223,-0.12833 -0.08286,-0.28273 -0.02895,-0.42062c0.56196,-1.44578 0.88722,-2.8541 0.79697,-4.44292c-0.04882,-0.86282 -0.0369,-1.65524 0.03576,-2.37728c0.1385,-1.37936 0.29915,-2.81607 0.48193,-4.3101c0.10672,-0.86168 0.08798,-1.69384 -0.05619,-2.49648c-0.12034,-0.67663 -0.24863,-1.33963 -0.38487,-1.98902c-0.12091,-0.57899 0.01703,-1.14096 0.10047,-1.71995c0.06471,-0.44163 0.10899,-0.85998 0.13283,-1.25505c0.18051,-3.11294 -0.18733,-6.36722 -0.46149,-9.60448c-0.13623,-1.61948 -2.05202,-3.42287 -3.63063,-3.69023c-0.24522,-0.04201 -0.49215,-0.02895 -0.74077,0.03916c-0.83103,0.22819 -1.691,0.39678 -2.13716,-0.54493c-0.10899,-0.22932 -0.33433,-0.34626 -0.67606,-0.35081c-0.42573,-0.00568 -0.81457,0.02441 -1.1665,0.09025c-1.44976,0.27474 -2.91086,0.54323 -4.38332,0.80549c-1.33168,0.23614 -2.18144,0.4263 -2.54928,0.57048c-1.17047,0.46206 -1.96744,1.30785 -2.3909,2.53735c-0.09423,0.27588 -0.08231,0.55288 0.03576,0.83103c0.0223,0.05128 0.05815,0.09595 0.10387,0.12943c1.19545,0.89233 0.58921,2.19166 0.72204,3.40925c0.10218,0.9298 0.26566,1.85788 0.32016,2.8013c0.03406,0.57332 0.01419,1.00132 -0.0596,1.284c-0.30312,1.16367 -0.50406,2.07416 -0.60283,2.73149c-0.36329,2.39544 -0.54721,4.63819 -0.55174,6.72824c-0.00454,1.50084 0.0193,3.14757 0.07152,4.94018c0.04654,1.62913 -0.05393,3.37462 -0.30142,5.23649c-0.07493,0.56367 0.0579,1.28741 0.19584,1.84767c0.41211,1.68079 0.80549,3.09762 -0.43084,4.41057c-0.07115,0.07529 -0.09933,0.18222 -0.07493,0.28439c0.16689,0.6982 0.3298,1.40208 0.48874,2.11163c0.28098,1.24143 0.01192,2.35855 -0.10728,3.51483c-0.05619,0.55174 0.12091,1.17502 0.19754,1.73528c0.02384,0.17597 0.0403,0.59716 0.04938,1.26357c0.01589,1.14663 0.37975,2.17804 1.09157,3.09421c0.24522,0.31674 1.10349,0.53812 1.49006,0.57389c0.39735,0.0352 0.78846,0.10558 1.17331,0.21116c0.40359,0.11069 0.82762,0.05619 1.23973,0.13453c0.2895,0.0545 0.58468,0.07379 0.88552,0.0579c0.61305,-0.03179 1.2244,-0.03463 1.83404,-0.00851c0.13623,0.00681 0.25884,-0.04938 0.34059,-0.16177c0.05069,-0.07022 0.13891,-0.10364 0.22479,-0.08515z" fill="#ffffff" stroke="none" stroke-width="1"/><path d="M282.12715,125.22595l-0.10387,0.04768c-0.0931,0.04428 -0.14078,0.01476 -0.14305,-0.08855c-0.0193,-1.29876 -0.02384,-2.67188 -0.01362,-4.11937c0.00568,-0.87757 0.12318,-1.60813 0.3525,-2.19166c0.18505,-0.47 0.38032,-0.9332 0.5858,-1.38958c0.03973,-0.08741 0.02213,-0.16008 -0.05279,-0.21798c-0.17597,-0.13623 -0.19867,-0.29347 -0.06812,-0.47171c0.22989,-0.31674 0.37124,-0.73907 0.47341,-1.12393c0.01652,-0.06204 0.0678,-0.10866 0.13112,-0.11921c0.13509,-0.02384 0.25771,-0.07267 0.36784,-0.14645c0.06248,-0.04161 0.10736,-0.10468 0.12601,-0.17711c0.16121,-0.61419 0.49441,-1.06035 0.99961,-1.33849c0.26792,-0.14759 0.76858,-0.26566 1.50197,-0.35421c0.70842,-0.08628 1.37652,-0.14078 2.00433,-0.16348c0.35193,-0.01248 0.856,0.05393 1.51219,0.19924c1.82723,0.4053 3.69875,0.67776 5.5362,0.97917c0.04882,0.00795 0.08231,0.0352 0.10047,0.08174c0.51655,1.31352 1.01154,2.65429 1.48495,4.02229c0.89744,2.58844 1.26357,5.34036 0.4104,7.89304c-0.02059,0.05985 -0.01151,0.12592 0.02445,0.17799c0.03595,0.05208 0.09452,0.08398 0.15777,0.08595c0.22308,0.00681 0.35081,0.17881 0.35421,0.40018c0.00681,0.39508 0.1158,0.79527 -0.30142,1.04048c-0.05331,0.03177 -0.0739,0.09873 -0.04768,0.15496l0.69309,1.50368c0.02498,0.0545 0.03179,0.11126 0.02043,0.17029c-0.18733,0.9718 -0.2509,1.80964 -0.19073,2.51351c0.06641,0.7595 0.25714,1.519 0.14134,2.28532c-0.09763,0.65279 -0.17086,1.26754 -0.21967,1.84426c-0.06981,0.83273 0.18562,1.36574 0.53301,2.08438c0.06793,0.13934 0.06024,0.30414 -0.02043,0.43765c-0.31674,0.52449 -0.45185,1.09384 -0.4053,1.70803c0.08855,1.17502 0.42914,2.26319 -0.15326,3.38881c-0.22989,0.44446 -0.14986,0.86679 -0.25204,1.32147c-0.01589,0.06812 -0.00114,0.12829 0.04428,0.18051c0.8174,0.94683 0.97066,2.08438 0.68117,3.28493c-0.07947,0.32923 -0.11978,0.6596 -0.12091,0.9911c-0.00226,0.4859 -0.05279,0.99677 -0.15156,1.53263c-0.04598,0.25374 -0.25204,0.50918 -0.23841,0.74588c0.08174,1.2965 0.18164,2.61569 0.29972,3.95759c0.0386,0.44843 0.11296,0.91674 0.22308,1.40491c0.12943,0.58411 -0.38146,0.71182 -0.814,0.7561c-0.14305,0.01476 -0.16348,0.07267 -0.06131,0.1737c0.71636,0.70047 0.814,1.45543 0.29291,2.26488c-0.37465,0.58239 -0.77993,1.11882 -0.98429,1.78977c-0.19867,0.65051 -0.40586,1.28343 -0.62157,1.89875c-0.15496,0.44787 -0.40359,0.82421 -0.83443,1.049c-0.61078,0.31902 -1.09497,0.51031 -1.45259,0.57389c-0.51315,0.09196 -1.07114,0.12829 -1.67398,0.10899c-0.66584,-0.02384 -1.2823,0.18221 -1.92771,0.13964c-0.59773,-0.03916 -1.16821,0.11409 -1.7506,0.17711c-0.37805,0.04201 -0.7402,0.02498 -1.08647,-0.05109c-0.30482,-0.06641 -0.45468,0.16859 -0.73225,0.13623c-0.34285,-0.03973 -0.69082,-0.04314 -1.04389,-0.01022c-0.21684,0.02043 -0.42403,-0.01192 -0.62157,-0.09706c-0.51769,-0.22138 -1.05241,-0.29291 -1.5718,-0.54323c-0.39678,-0.19073 -0.83443,-0.18562 -1.15459,-0.53301c-0.69252,-0.75383 -1.07625,-1.61777 -1.15118,-2.59184c-0.05109,-0.68287 -0.10047,-1.61948 0.09877,-2.30575c0.07493,-0.26054 0.15667,-0.48874 0.06471,-0.7595c-0.14645,-0.43595 -0.21798,-0.89914 -0.21457,-1.38958c0,-0.09536 -0.03576,-0.17881 -0.10728,-0.25033c-0.08252,-0.08039 -0.12813,-0.19133 -0.12601,-0.30653c0.04768,-1.91749 0.10387,-3.76346 0.25544,-5.64008c0.17029,-2.09913 0.31902,-4.0961 0.44616,-5.99088c0.11069,-1.66886 0.01532,-3.4382 0.12261,-5.09173c0.03065,-0.48136 0.19413,-1.36971 0.49044,-2.66507c0.06812,-0.29291 0.0772,-0.71012 0.02725,-1.25165c-0.06698,-0.72431 -0.13283,-1.47473 -0.19754,-2.25126c-0.22308,-2.67359 0.00681,-5.39826 -0.10218,-8.11953c-0.01476,-0.38827 0.06016,-0.76121 0.22479,-1.11882c0.06245,-0.1385 0.0789,-0.32923 0.04938,-0.57217c-0.01022,-0.07607 -0.04995,-0.09763 -0.11921,-0.06471z" fill="#9146ff" stroke="none" stroke-width="1"/><path d="M248.22028,166.98669c-0.08588,-0.01849 -0.1741,0.01492 -0.22479,0.08515c-0.08174,0.1124 -0.20435,0.16859 -0.34059,0.16177c-0.60964,-0.02611 -1.221,-0.02327 -1.83404,0.00851c-0.30085,0.01589 -0.59602,-0.0034 -0.88552,-0.0579c-0.41211,-0.07833 -0.83614,-0.02384 -1.23973,-0.13453c-0.38487,-0.10558 -0.77596,-0.17597 -1.17331,-0.21116c-0.38656,-0.03576 -1.24483,-0.25714 -1.49006,-0.57389c-0.71182,-0.91617 -1.07568,-1.94757 -1.09157,-3.09421c-0.00908,-0.66641 -0.02554,-1.0876 -0.04938,-1.26357c-0.07663,-0.56026 -0.25374,-1.18353 -0.19754,-1.73528c0.11921,-1.15628 0.38827,-2.2734 0.10728,-3.51483c-0.15894,-0.70955 -0.32185,-1.41342 -0.48874,-2.11163c-0.0244,-0.10216 0.00377,-0.2091 0.07493,-0.28439c1.23632,-1.31295 0.84295,-2.72978 0.43084,-4.41057c-0.13793,-0.56026 -0.27076,-1.284 -0.19584,-1.84767c0.24749,-1.86186 0.34796,-3.60735 0.30142,-5.23649c-0.05223,-1.79261 -0.07607,-3.43933 -0.07152,-4.94018c0.00454,-2.09005 0.18845,-4.3328 0.55174,-6.72824c0.09877,-0.65732 0.29972,-1.56782 0.60283,-2.73149c0.07379,-0.28269 0.09366,-0.71069 0.0596,-1.284c-0.0545,-0.94342 -0.21798,-1.8715 -0.32016,-2.8013c-0.13283,-1.21759 0.47341,-2.51691 -0.72204,-3.40925c-0.04572,-0.03348 -0.08158,-0.07815 -0.10387,-0.12943c-0.11807,-0.27814 -0.13,-0.55515 -0.03576,-0.83103c0.42346,-1.22952 1.22043,-2.07529 2.3909,-2.53735c0.36784,-0.14418 1.21759,-0.33433 2.54928,-0.57048c1.47246,-0.26226 2.93356,-0.53075 4.38332,-0.80549c0.35193,-0.06585 0.74077,-0.09593 1.1665,-0.09025c0.34172,0.00454 0.56708,0.12148 0.67606,0.35081c0.44616,0.94171 1.30614,0.77313 2.13716,0.54493c0.24863,-0.06812 0.49555,-0.08117 0.74077,-0.03916c1.57861,0.26735 3.49439,2.07075 3.63063,3.69023c0.27417,3.23725 0.64201,6.49154 0.46149,9.60448c-0.02384,0.39508 -0.06812,0.81343 -0.13283,1.25505c-0.08344,0.57899 -0.22138,1.14096 -0.10047,1.71995c0.13623,0.64938 0.26452,1.31238 0.38487,1.98902c0.14418,0.80264 0.16291,1.6348 0.05619,2.49648c-0.18278,1.49403 -0.34342,2.93073 -0.48193,4.3101c-0.07267,0.72204 -0.08458,1.51447 -0.03576,2.37728c0.09025,1.58883 -0.23501,2.99715 -0.79697,4.44292c-0.0539,0.13789 -0.04327,0.29229 0.02895,0.42062c0.39508,0.70615 0.72317,1.47701 0.98429,2.31257c0.37294,1.19545 0.20264,2.15419 -0.77142,2.98862c-0.04011,0.03451 -0.07012,0.07923 -0.08684,0.12943c-0.06698,0.19299 -0.06641,0.39167 0.0017,0.59602c0.28098,0.84805 0.61135,1.73868 0.48193,2.63953c-0.07152,0.49953 -0.13283,1.02742 -0.18392,1.58372c-0.00568,0.06245 0.0176,0.11069 0.06981,0.14474l0.13623,0.08855c0.06245,0.03973 0.0948,0.09706 0.09706,0.17199c0.05109,1.25335 -0.12545,2.35798 -0.52961,3.31388c-1.47473,3.48759 -5.34887,4.73072 -8.9216,3.94737z" fill="#9146ff" stroke="none" stroke-width="1"/></g></g></g></svg>