<?xml version="1.0" encoding="UTF-8" standalone="no"?>
<!DOCTYPE svg PUBLIC "-//W3C//DTD SVG 1.1//EN" "http://www.w3.org/Graphics/SVG/1.1/DTD/svg11.dtd">
<svg xmlns="http://www.w3.org/2000/svg" version="1.1" viewBox="0.00 0.00 434.00 434.00">
<g stroke-width="2.00" fill="none" stroke-linecap="butt">
<path stroke="#808080" vector-effect="non-scaling-stroke" d="
  M 326.60 313.55
  C 342.73 310.58 353.68 299.53 357.00 283.61
  Q 358.97 274.16 359.80 265.75
  Q 362.29 240.61 362.30 214.15
  Q 362.30 206.63 361.89 198.65
  Q 361.50 191.28 361.04 182.87
  C 360.46 172.25 359.31 161.71 357.17 151.08
  Q 353.34 132.01 337.44 123.87
  Q 331.12 120.63 321.06 119.40
  C 308.70 117.88 297.29 117.37 285.24 116.59
  Q 279.76 116.23 274.42 116.18
  Q 269.06 116.13 263.70 115.91
  Q 221.54 114.20 175.87 115.65
  Q 171.71 115.78 167.65 116.02
  Q 163.60 116.26 159.42 116.31
  Q 152.77 116.40 147.08 116.70
  Q 130.10 117.59 118.92 118.69
  Q 110.27 119.54 104.39 120.95
  Q 89.02 124.63 80.89 138.79
  Q 77.31 145.03 75.39 157.50
  Q 73.55 169.51 72.66 183.53
  C 71.05 208.93 71.25 231.26 73.02 255.28
  Q 73.77 265.41 75.13 274.76
  Q 76.54 284.42 78.91 290.69
  Q 83.84 303.77 97.07 310.37
  Q 102.96 313.31 113.06 314.56
  C 125.70 316.12 137.95 316.63 150.42 317.38
  C 158.65 317.87 166.04 317.72 174.74 318.10
  Q 202.23 319.30 238.49 318.74
  C 248.78 318.58 258.71 318.01 268.49 317.84
  C 279.99 317.64 291.15 316.96 302.50 316.25
  Q 316.69 315.37 326.60 313.55"
/>
<path stroke="#808080" vector-effect="non-scaling-stroke" d="
  M 189.01 174.53
  A 0.48 0.48 0.0 0 0 188.29 174.95
  L 188.29 258.93
  A 0.48 0.48 0.0 0 0 189.01 259.35
  L 261.76 217.36
  A 0.48 0.48 0.0 0 0 261.76 216.52
  L 189.01 174.53"
/>
</g>
<path fill="#000000" d="
  M 0.00 0.00
  L 434.00 0.00
  L 434.00 434.00
  L 0.00 434.00
  L 0.00 0.00
  Z
  M 326.60 313.55
  C 342.73 310.58 353.68 299.53 357.00 283.61
  Q 358.97 274.16 359.80 265.75
  Q 362.29 240.61 362.30 214.15
  Q 362.30 206.63 361.89 198.65
  Q 361.50 191.28 361.04 182.87
  C 360.46 172.25 359.31 161.71 357.17 151.08
  Q 353.34 132.01 337.44 123.87
  Q 331.12 120.63 321.06 119.40
  C 308.70 117.88 297.29 117.37 285.24 116.59
  Q 279.76 116.23 274.42 116.18
  Q 269.06 116.13 263.70 115.91
  Q 221.54 114.20 175.87 115.65
  Q 171.71 115.78 167.65 116.02
  Q 163.60 116.26 159.42 116.31
  Q 152.77 116.40 147.08 116.70
  Q 130.10 117.59 118.92 118.69
  Q 110.27 119.54 104.39 120.95
  Q 89.02 124.63 80.89 138.79
  Q 77.31 145.03 75.39 157.50
  Q 73.55 169.51 72.66 183.53
  C 71.05 208.93 71.25 231.26 73.02 255.28
  Q 73.77 265.41 75.13 274.76
  Q 76.54 284.42 78.91 290.69
  Q 83.84 303.77 97.07 310.37
  Q 102.96 313.31 113.06 314.56
  C 125.70 316.12 137.95 316.63 150.42 317.38
  C 158.65 317.87 166.04 317.72 174.74 318.10
  Q 202.23 319.30 238.49 318.74
  C 248.78 318.58 258.71 318.01 268.49 317.84
  C 279.99 317.64 291.15 316.96 302.50 316.25
  Q 316.69 315.37 326.60 313.55
  Z"
/>
<path fill="#ffffff" d="
  M 357.00 283.61
  C 353.68 299.53 342.73 310.58 326.60 313.55
  Q 316.69 315.37 302.50 316.25
  C 291.15 316.96 279.99 317.64 268.49 317.84
  C 258.71 318.01 248.78 318.58 238.49 318.74
  Q 202.23 319.30 174.74 318.10
  C 166.04 317.72 158.65 317.87 150.42 317.38
  C 137.95 316.63 125.70 316.12 113.06 314.56
  Q 102.96 313.31 97.07 310.37
  Q 83.84 303.77 78.91 290.69
  Q 76.54 284.42 75.13 274.76
  Q 73.77 265.41 73.02 255.28
  C 71.25 231.26 71.05 208.93 72.66 183.53
  Q 73.55 169.51 75.39 157.50
  Q 77.31 145.03 80.89 138.79
  Q 89.02 124.63 104.39 120.95
  Q 110.27 119.54 118.92 118.69
  Q 130.10 117.59 147.08 116.70
  Q 152.77 116.40 159.42 116.31
  Q 163.60 116.26 167.65 116.02
  Q 171.71 115.78 175.87 115.65
  Q 221.54 114.20 263.70 115.91
  Q 269.06 116.13 274.42 116.18
  Q 279.76 116.23 285.24 116.59
  C 297.29 117.37 308.70 117.88 321.06 119.40
  Q 331.12 120.63 337.44 123.87
  Q 353.34 132.01 357.17 151.08
  C 359.31 161.71 360.46 172.25 361.04 182.87
  Q 361.50 191.28 361.89 198.65
  Q 362.30 206.63 362.30 214.15
  Q 362.29 240.61 359.80 265.75
  Q 358.97 274.16 357.00 283.61
  Z
  M 189.01 174.53
  A 0.48 0.48 0.0 0 0 188.29 174.95
  L 188.29 258.93
  A 0.48 0.48 0.0 0 0 189.01 259.35
  L 261.76 217.36
  A 0.48 0.48 0.0 0 0 261.76 216.52
  L 189.01 174.53
  Z"
/>
<path fill="#000000" d="
  M 189.01 174.53
  L 261.76 216.52
  A 0.48 0.48 0.0 0 1 261.76 217.36
  L 189.01 259.35
  A 0.48 0.48 0.0 0 1 188.29 258.93
  L 188.29 174.95
  A 0.48 0.48 0.0 0 1 189.01 174.53
  Z"
/>
</svg>
